<svg xmlns="http://www.w3.org/2000/svg" viewBox="132.80050659179688 -121.69950103759766 14.39898681640625 37.999000549316406" width="1200" height="1200">
  <title>F.Cu - Smd only</title>
  <rect x="0" y="0" width="100%" height="100%" fill="black"/>
  <path d="M137.350,-97.805 L135.650,-97.805 L135.650,-98.355 L137.350,-98.355 L137.350,-97.805 Z" fill="#FFA500" fill-opacity="0.9" fill-rule="nonzero" stroke="none"/>
  <path d="M136.800,-100.805 L136.800,-100.605 L135.200,-100.605 L135.200,-100.805 L136.800,-100.805 Z" fill="#FFA500" fill-opacity="0.9" fill-rule="nonzero" stroke="none"/>
  <path d="M144.075,-99.735 L143.805,-99.735 C143.730,-99.735 143.670,-99.795 143.670,-99.870 L143.670,-100.240 C143.670,-100.315 143.730,-100.375 143.805,-100.375 L144.075,-100.375 C144.150,-100.375 144.210,-100.315 144.210,-100.240 L144.210,-99.870 C144.210,-99.795 144.150,-99.735 144.075,-99.735 Z" fill="#FFA500" fill-opacity="0.9" fill-rule="nonzero" stroke="none"/>
  <path d="M141.730,-99.223 L141.730,-99.518 C141.730,-99.599 141.796,-99.665 141.878,-99.665 L142.223,-99.665 C142.304,-99.665 142.370,-99.599 142.370,-99.518 L142.370,-99.223 C142.370,-99.141 142.304,-99.075 142.223,-99.075 L141.878,-99.075 C141.796,-99.075 141.730,-99.141 141.730,-99.223 Z" fill="#FFA500" fill-opacity="0.9" fill-rule="nonzero" stroke="none"/>
  <path d="M138.950,-111.875 L139.050,-111.875 C139.078,-111.875 139.100,-111.853 139.100,-111.825 L139.100,-111.050 C139.100,-111.022 139.078,-111.000 139.050,-111.000 L138.950,-111.000 C138.922,-111.000 138.900,-111.022 138.900,-111.050 L138.900,-111.825 C138.900,-111.853 138.922,-111.875 138.950,-111.875 Z" fill="#FFA500" fill-opacity="0.9" fill-rule="nonzero" stroke="none"/>
  <path d="M138.400,-109.600 L141.600,-109.600 L141.600,-106.400 L138.400,-106.400 L138.400,-109.600 Z" fill="#FFA500" fill-opacity="0.9" fill-rule="nonzero" stroke="none"/>
  <path d="M143.060,-101.595 L143.060,-101.315 C143.060,-101.238 142.997,-101.175 142.920,-101.175 L142.580,-101.175 C142.503,-101.175 142.440,-101.238 142.440,-101.315 L142.440,-101.595 C142.440,-101.672 142.503,-101.735 142.580,-101.735 L142.920,-101.735 C142.997,-101.735 143.060,-101.672 143.060,-101.595 Z" fill="#FFA500" fill-opacity="0.9" fill-rule="nonzero" stroke="none"/>
  <path d="M135.670,-116.382 L135.670,-116.088 C135.670,-116.006 135.604,-115.940 135.523,-115.940 L135.178,-115.940 C135.096,-115.940 135.030,-116.006 135.030,-116.088 L135.030,-116.382 C135.030,-116.464 135.096,-116.530 135.178,-116.530 L135.523,-116.530 C135.604,-116.530 135.670,-116.464 135.670,-116.382 Z" fill="#FFA500" fill-opacity="0.9" fill-rule="nonzero" stroke="none"/>
  <path d="M142.660,-97.115 L142.660,-96.835 C142.660,-96.758 142.597,-96.695 142.520,-96.695 L142.180,-96.695 C142.103,-96.695 142.040,-96.758 142.040,-96.835 L142.040,-97.115 C142.040,-97.192 142.103,-97.255 142.180,-97.255 L142.520,-97.255 C142.597,-97.255 142.660,-97.192 142.660,-97.115 Z" fill="#FFA500" fill-opacity="0.9" fill-rule="nonzero" stroke="none"/>
  <path d="M144.820,-92.433 L144.820,-92.162 C144.820,-92.088 144.760,-92.028 144.685,-92.028 L144.315,-92.028 C144.240,-92.028 144.180,-92.088 144.180,-92.162 L144.180,-92.433 C144.180,-92.507 144.240,-92.567 144.315,-92.567 L144.685,-92.567 C144.760,-92.567 144.820,-92.507 144.820,-92.433 Z" fill="#FFA500" fill-opacity="0.9" fill-rule="nonzero" stroke="none"/>
  <path d="M136.670,-116.382 L136.670,-116.088 C136.670,-116.006 136.604,-115.940 136.523,-115.940 L136.178,-115.940 C136.096,-115.940 136.030,-116.006 136.030,-116.088 L136.030,-116.382 C136.030,-116.464 136.096,-116.530 136.178,-116.530 L136.523,-116.530 C136.604,-116.530 136.670,-116.464 136.670,-116.382 Z" fill="#FFA500" fill-opacity="0.9" fill-rule="nonzero" stroke="none"/>
  <path d="M144.260,-94.615 L144.260,-94.335 C144.260,-94.258 144.197,-94.195 144.120,-94.195 L143.780,-94.195 C143.703,-94.195 143.640,-94.258 143.640,-94.335 L143.640,-94.615 C143.640,-94.692 143.703,-94.755 143.780,-94.755 L144.120,-94.755 C144.197,-94.755 144.260,-94.692 144.260,-94.615 Z" fill="#FFA500" fill-opacity="0.9" fill-rule="nonzero" stroke="none"/>
  <path d="M145.000,-98.236 L145.000,-98.049 C145.000,-97.997 144.958,-97.955 144.906,-97.955 L144.694,-97.955 C144.642,-97.955 144.600,-97.997 144.600,-98.049 L144.600,-98.236 C144.600,-98.288 144.642,-98.330 144.694,-98.330 L144.906,-98.330 C144.958,-98.330 145.000,-98.288 145.000,-98.236 Z" fill="#FFA500" fill-opacity="0.9" fill-rule="nonzero" stroke="none"/>
  <path d="M144.950,-97.755 L144.950,-96.755 L143.350,-96.755 L143.350,-97.755 L144.950,-97.755 Z" fill="#FFA500" fill-opacity="0.9" fill-rule="nonzero" stroke="none"/>
  <path d="M141.190,-114.295 L141.190,-114.575 C141.190,-114.652 141.253,-114.715 141.330,-114.715 L141.670,-114.715 C141.747,-114.715 141.810,-114.652 141.810,-114.575 L141.810,-114.295 C141.810,-114.218 141.747,-114.155 141.670,-114.155 L141.330,-114.155 C141.253,-114.155 141.190,-114.218 141.190,-114.295 Z" fill="#FFA500" fill-opacity="0.9" fill-rule="nonzero" stroke="none"/>
  <path d="M140.190,-114.295 L140.190,-114.575 C140.190,-114.652 140.253,-114.715 140.330,-114.715 L140.670,-114.715 C140.747,-114.715 140.810,-114.652 140.810,-114.575 L140.810,-114.295 C140.810,-114.218 140.747,-114.155 140.670,-114.155 L140.330,-114.155 C140.253,-114.155 140.190,-114.218 140.190,-114.295 Z" fill="#FFA500" fill-opacity="0.9" fill-rule="nonzero" stroke="none"/>
  <path d="M145.060,-103.865 L145.060,-103.585 C145.060,-103.508 144.997,-103.445 144.920,-103.445 L144.580,-103.445 C144.503,-103.445 144.440,-103.508 144.440,-103.585 L144.440,-103.865 C144.440,-103.942 144.503,-104.005 144.580,-104.005 L144.920,-104.005 C144.997,-104.005 145.060,-103.942 145.060,-103.865 Z" fill="#FFA500" fill-opacity="0.9" fill-rule="nonzero" stroke="none"/>
  <path d="M139.000,-95.355 L138.100,-95.355 L138.100,-96.355 L139.000,-96.355 L139.000,-95.355 Z" fill="#FFA500" fill-opacity="0.9" fill-rule="nonzero" stroke="none"/>
  <path d="M134.900,-95.355 L134.000,-95.355 L134.000,-96.355 L134.900,-96.355 L134.900,-95.355 Z" fill="#FFA500" fill-opacity="0.9" fill-rule="nonzero" stroke="none"/>
  <path d="M136.150,-94.058 L136.150,-93.757 C136.150,-93.675 136.083,-93.607 136.000,-93.607 L135.600,-93.607 C135.517,-93.607 135.450,-93.675 135.450,-93.757 L135.450,-94.058 C135.450,-94.140 135.517,-94.208 135.600,-94.208 L136.000,-94.208 C136.083,-94.208 136.150,-94.140 136.150,-94.058 Z" fill="#FFA500" fill-opacity="0.9" fill-rule="nonzero" stroke="none"/>
  <path d="M139.060,-101.615 L139.060,-101.335 C139.060,-101.258 138.997,-101.195 138.920,-101.195 L138.580,-101.195 C138.503,-101.195 138.440,-101.258 138.440,-101.335 L138.440,-101.615 C138.440,-101.692 138.503,-101.755 138.580,-101.755 L138.920,-101.755 C138.997,-101.755 139.060,-101.692 139.060,-101.615 Z" fill="#FFA500" fill-opacity="0.9" fill-rule="nonzero" stroke="none"/>
  <path d="M138.060,-101.615 L138.060,-101.335 C138.060,-101.258 137.997,-101.195 137.920,-101.195 L137.580,-101.195 C137.503,-101.195 137.440,-101.258 137.440,-101.335 L137.440,-101.615 C137.440,-101.692 137.503,-101.755 137.580,-101.755 L137.920,-101.755 C137.997,-101.755 138.060,-101.692 138.060,-101.615 Z" fill="#FFA500" fill-opacity="0.9" fill-rule="nonzero" stroke="none"/>
  <path d="M141.125,-93.467 L141.275,-93.467 C141.316,-93.467 141.350,-93.434 141.350,-93.392 L141.350,-92.993 C141.350,-92.951 141.316,-92.917 141.275,-92.917 L141.125,-92.917 C141.084,-92.917 141.050,-92.951 141.050,-92.993 L141.050,-93.392 C141.050,-93.434 141.084,-93.467 141.125,-93.467 Z" fill="#FFA500" fill-opacity="0.9" fill-rule="nonzero" stroke="none"/>
  <path d="M141.125,-92.698 L141.275,-92.698 C141.316,-92.698 141.350,-92.664 141.350,-92.622 L141.350,-92.223 C141.350,-92.181 141.316,-92.147 141.275,-92.147 L141.125,-92.147 C141.084,-92.147 141.050,-92.181 141.050,-92.223 L141.050,-92.622 C141.050,-92.664 141.084,-92.698 141.125,-92.698 Z" fill="#FFA500" fill-opacity="0.9" fill-rule="nonzero" stroke="none"/>
  <path d="M137.550,-93.632 L137.100,-93.632 C136.976,-93.632 136.875,-93.733 136.875,-93.857 L136.875,-94.357 C136.875,-94.482 136.976,-94.582 137.100,-94.582 L137.550,-94.582 C137.674,-94.582 137.775,-94.482 137.775,-94.357 L137.775,-93.857 C137.775,-93.733 137.674,-93.632 137.550,-93.632 Z" fill="#FFA500" fill-opacity="0.9" fill-rule="nonzero" stroke="none"/>
  <path d="M142.190,-114.295 L142.190,-114.575 C142.190,-114.652 142.253,-114.715 142.330,-114.715 L142.670,-114.715 C142.747,-114.715 142.810,-114.652 142.810,-114.575 L142.810,-114.295 C142.810,-114.218 142.747,-114.155 142.670,-114.155 L142.330,-114.155 C142.253,-114.155 142.190,-114.218 142.190,-114.295 Z" fill="#FFA500" fill-opacity="0.9" fill-rule="nonzero" stroke="none"/>
  <path d="M145.590,-109.265 L145.870,-109.265 C145.947,-109.265 146.010,-109.202 146.010,-109.125 L146.010,-108.785 C146.010,-108.708 145.947,-108.645 145.870,-108.645 L145.590,-108.645 C145.513,-108.645 145.450,-108.708 145.450,-108.785 L145.450,-109.125 C145.450,-109.202 145.513,-109.265 145.590,-109.265 Z" fill="#FFA500" fill-opacity="0.9" fill-rule="nonzero" stroke="none"/>
  <path d="M134.560,-99.365 L134.560,-99.085 C134.560,-99.008 134.497,-98.945 134.420,-98.945 L134.080,-98.945 C134.003,-98.945 133.940,-99.008 133.940,-99.085 L133.940,-99.365 C133.940,-99.442 134.003,-99.505 134.080,-99.505 L134.420,-99.505 C134.497,-99.505 134.560,-99.442 134.560,-99.365 Z" fill="#FFA500" fill-opacity="0.9" fill-rule="nonzero" stroke="none"/>
  <path d="M135.560,-103.865 L135.560,-103.585 C135.560,-103.508 135.497,-103.445 135.420,-103.445 L135.080,-103.445 C135.003,-103.445 134.940,-103.508 134.940,-103.585 L134.940,-103.865 C134.940,-103.942 135.003,-104.005 135.080,-104.005 L135.420,-104.005 C135.497,-104.005 135.560,-103.942 135.560,-103.865 Z" fill="#FFA500" fill-opacity="0.9" fill-rule="nonzero" stroke="none"/>
  <path d="M138.210,-116.645 L137.930,-116.645 C137.853,-116.645 137.790,-116.708 137.790,-116.785 L137.790,-117.125 C137.790,-117.202 137.853,-117.265 137.930,-117.265 L138.210,-117.265 C138.287,-117.265 138.350,-117.202 138.350,-117.125 L138.350,-116.785 C138.350,-116.708 138.287,-116.645 138.210,-116.645 Z" fill="#FFA500" fill-opacity="0.9" fill-rule="nonzero" stroke="none"/>
  <path d="M140.060,-101.615 L140.060,-101.335 C140.060,-101.258 139.997,-101.195 139.920,-101.195 L139.580,-101.195 C139.503,-101.195 139.440,-101.258 139.440,-101.335 L139.440,-101.615 C139.440,-101.692 139.503,-101.755 139.580,-101.755 L139.920,-101.755 C139.997,-101.755 140.060,-101.692 140.060,-101.615 Z" fill="#FFA500" fill-opacity="0.9" fill-rule="nonzero" stroke="none"/>
  <path d="M143.350,-90.160 L143.050,-90.160 C142.967,-90.160 142.900,-90.227 142.900,-90.310 L142.900,-91.160 C142.900,-91.243 142.967,-91.310 143.050,-91.310 L143.350,-91.310 C143.433,-91.310 143.500,-91.243 143.500,-91.160 L143.500,-90.310 C143.500,-90.227 143.433,-90.160 143.350,-90.160 Z" fill="#FFA500" fill-opacity="0.9" fill-rule="nonzero" stroke="none"/>
  <path d="M136.950,-90.160 L136.650,-90.160 C136.567,-90.160 136.500,-90.227 136.500,-90.310 L136.500,-91.160 C136.500,-91.243 136.567,-91.310 136.650,-91.310 L136.950,-91.310 C137.033,-91.310 137.100,-91.243 137.100,-91.160 L137.100,-90.310 C137.100,-90.227 137.033,-90.160 136.950,-90.160 Z" fill="#FFA500" fill-opacity="0.9" fill-rule="nonzero" stroke="none"/>
  <path d="M136.950,-90.160 L136.650,-90.160 C136.567,-90.160 136.500,-90.227 136.500,-90.310 L136.500,-91.160 C136.500,-91.243 136.567,-91.310 136.650,-91.310 L136.950,-91.310 C137.033,-91.310 137.100,-91.243 137.100,-91.160 L137.100,-90.310 C137.100,-90.227 137.033,-90.160 136.950,-90.160 Z" fill="#FFA500" fill-opacity="0.9" fill-rule="nonzero" stroke="none"/>
  <path d="M143.350,-90.160 L143.050,-90.160 C142.967,-90.160 142.900,-90.227 142.900,-90.310 L142.900,-91.160 C142.900,-91.243 142.967,-91.310 143.050,-91.310 L143.350,-91.310 C143.433,-91.310 143.500,-91.243 143.500,-91.160 L143.500,-90.310 C143.500,-90.227 143.433,-90.160 143.350,-90.160 Z" fill="#FFA500" fill-opacity="0.9" fill-rule="nonzero" stroke="none"/>
  <path d="M143.820,-90.160 C143.820,-89.580 144.044,-89.110 144.320,-89.110 C144.596,-89.110 144.820,-89.580 144.820,-90.160 C144.820,-90.740 144.596,-91.210 144.320,-91.210 C144.044,-91.210 143.820,-90.740 143.820,-90.160 Z" fill="#FFA500" fill-opacity="0.9" fill-rule="nonzero" stroke="none"/>
  <path d="M143.820,-85.980 C143.820,-85.483 144.044,-85.080 144.320,-85.080 C144.596,-85.080 144.820,-85.483 144.820,-85.980 C144.820,-86.477 144.596,-86.880 144.320,-86.880 C144.044,-86.880 143.820,-86.477 143.820,-85.980 Z" fill="#FFA500" fill-opacity="0.9" fill-rule="nonzero" stroke="none"/>
  <path d="M135.180,-90.160 C135.180,-89.580 135.404,-89.110 135.680,-89.110 C135.956,-89.110 136.180,-89.580 136.180,-90.160 C136.180,-90.740 135.956,-91.210 135.680,-91.210 C135.404,-91.210 135.180,-90.740 135.180,-90.160 Z" fill="#FFA500" fill-opacity="0.9" fill-rule="nonzero" stroke="none"/>
  <path d="M135.180,-85.980 C135.180,-85.483 135.404,-85.080 135.680,-85.080 C135.956,-85.080 136.180,-85.483 136.180,-85.980 C136.180,-86.477 135.956,-86.880 135.680,-86.880 C135.404,-86.880 135.180,-86.477 135.180,-85.980 Z" fill="#FFA500" fill-opacity="0.9" fill-rule="nonzero" stroke="none"/>
  <path d="M134.410,-108.645 L134.130,-108.645 C134.053,-108.645 133.990,-108.708 133.990,-108.785 L133.990,-109.125 C133.990,-109.202 134.053,-109.265 134.130,-109.265 L134.410,-109.265 C134.487,-109.265 134.550,-109.202 134.550,-109.125 L134.550,-108.785 C134.550,-108.708 134.487,-108.645 134.410,-108.645 Z" fill="#FFA500" fill-opacity="0.9" fill-rule="nonzero" stroke="none"/>
  <path d="M145.970,-114.688 L145.970,-114.393 C145.970,-114.311 145.904,-114.245 145.822,-114.245 L145.477,-114.245 C145.396,-114.245 145.330,-114.311 145.330,-114.393 L145.330,-114.688 C145.330,-114.769 145.396,-114.835 145.477,-114.835 L145.822,-114.835 C145.904,-114.835 145.970,-114.769 145.970,-114.688 Z" fill="#FFA500" fill-opacity="0.9" fill-rule="nonzero" stroke="none"/>
  <path d="M136.875,-102.517 L136.875,-101.743 C136.875,-101.708 136.847,-101.680 136.812,-101.680 L136.688,-101.680 C136.653,-101.680 136.625,-101.708 136.625,-101.743 L136.625,-102.517 C136.625,-102.552 136.653,-102.580 136.688,-102.580 L136.812,-102.580 C136.847,-102.580 136.875,-102.552 136.875,-102.517 Z" fill="#FFA500" fill-opacity="0.9" fill-rule="nonzero" stroke="none"/>
  <path d="M139.650,-114.455 L139.650,-113.355 L138.750,-113.355 L138.750,-114.455 L139.650,-114.455 Z" fill="#FFA500" fill-opacity="0.9" fill-rule="nonzero" stroke="none"/>
  <path d="M134.375,-107.635 L134.105,-107.635 C134.030,-107.635 133.970,-107.695 133.970,-107.770 L133.970,-108.140 C133.970,-108.215 134.030,-108.275 134.105,-108.275 L134.375,-108.275 C134.450,-108.275 134.510,-108.215 134.510,-108.140 L134.510,-107.770 C134.510,-107.695 134.450,-107.635 134.375,-107.635 Z" fill="#FFA500" fill-opacity="0.9" fill-rule="nonzero" stroke="none"/>
  <path d="M143.820,-92.433 L143.820,-92.162 C143.820,-92.088 143.760,-92.028 143.685,-92.028 L143.315,-92.028 C143.240,-92.028 143.180,-92.088 143.180,-92.162 L143.180,-92.433 C143.180,-92.507 143.240,-92.567 143.315,-92.567 L143.685,-92.567 C143.760,-92.567 143.820,-92.507 143.820,-92.433 Z" fill="#FFA500" fill-opacity="0.9" fill-rule="nonzero" stroke="none"/>
  <path d="M144.060,-101.595 L144.060,-101.315 C144.060,-101.238 143.997,-101.175 143.920,-101.175 L143.580,-101.175 C143.503,-101.175 143.440,-101.238 143.440,-101.315 L143.440,-101.595 C143.440,-101.672 143.503,-101.735 143.580,-101.735 L143.920,-101.735 C143.997,-101.735 144.060,-101.672 144.060,-101.595 Z" fill="#FFA500" fill-opacity="0.9" fill-rule="nonzero" stroke="none"/>
  <path d="M145.060,-101.595 L145.060,-101.315 C145.060,-101.238 144.997,-101.175 144.920,-101.175 L144.580,-101.175 C144.503,-101.175 144.440,-101.238 144.440,-101.315 L144.440,-101.595 C144.440,-101.672 144.503,-101.735 144.580,-101.735 L144.920,-101.735 C144.997,-101.735 145.060,-101.672 145.060,-101.595 Z" fill="#FFA500" fill-opacity="0.9" fill-rule="nonzero" stroke="none"/>
  <path d="M134.670,-116.372 L134.670,-116.077 C134.670,-115.996 134.604,-115.930 134.523,-115.930 L134.178,-115.930 C134.096,-115.930 134.030,-115.996 134.030,-116.077 L134.030,-116.372 C134.030,-116.454 134.096,-116.520 134.178,-116.520 L134.523,-116.520 C134.604,-116.520 134.670,-116.454 134.670,-116.372 Z" fill="#FFA500" fill-opacity="0.9" fill-rule="nonzero" stroke="none"/>
  <path d="M144.970,-114.688 L144.970,-114.393 C144.970,-114.311 144.904,-114.245 144.822,-114.245 L144.477,-114.245 C144.396,-114.245 144.330,-114.311 144.330,-114.393 L144.330,-114.688 C144.330,-114.769 144.396,-114.835 144.477,-114.835 L144.822,-114.835 C144.904,-114.835 144.970,-114.769 144.970,-114.688 Z" fill="#FFA500" fill-opacity="0.9" fill-rule="nonzero" stroke="none"/>
  <path d="M145.000,-96.461 L145.000,-96.274 C145.000,-96.222 144.958,-96.180 144.906,-96.180 L144.694,-96.180 C144.642,-96.180 144.600,-96.222 144.600,-96.274 L144.600,-96.461 C144.600,-96.513 144.642,-96.555 144.694,-96.555 L144.906,-96.555 C144.958,-96.555 145.000,-96.513 145.000,-96.461 Z" fill="#FFA500" fill-opacity="0.9" fill-rule="nonzero" stroke="none"/>
  <path d="M144.630,-95.330 L144.630,-95.600 C144.630,-95.675 144.690,-95.735 144.765,-95.735 L145.135,-95.735 C145.210,-95.735 145.270,-95.675 145.270,-95.600 L145.270,-95.330 C145.270,-95.255 145.210,-95.195 145.135,-95.195 L144.765,-95.195 C144.690,-95.195 144.630,-95.255 144.630,-95.330 Z" fill="#FFA500" fill-opacity="0.9" fill-rule="nonzero" stroke="none"/>
  <path d="M145.095,-99.735 L144.825,-99.735 C144.750,-99.735 144.690,-99.795 144.690,-99.870 L144.690,-100.240 C144.690,-100.315 144.750,-100.375 144.825,-100.375 L145.095,-100.375 C145.170,-100.375 145.230,-100.315 145.230,-100.240 L145.230,-99.870 C145.230,-99.795 145.170,-99.735 145.095,-99.735 Z" fill="#FFA500" fill-opacity="0.9" fill-rule="nonzero" stroke="none"/>
  <path d="M144.350,-98.236 L144.350,-98.049 C144.350,-97.997 144.308,-97.955 144.256,-97.955 L144.044,-97.955 C143.992,-97.955 143.950,-97.997 143.950,-98.049 L143.950,-98.236 C143.950,-98.288 143.992,-98.330 144.044,-98.330 L144.256,-98.330 C144.308,-98.330 144.350,-98.288 144.350,-98.236 Z" fill="#FFA500" fill-opacity="0.9" fill-rule="nonzero" stroke="none"/>
  <path d="M144.825,-99.400 L145.095,-99.400 C145.170,-99.400 145.230,-99.340 145.230,-99.265 L145.230,-98.895 C145.230,-98.820 145.170,-98.760 145.095,-98.760 L144.825,-98.760 C144.750,-98.760 144.690,-98.820 144.690,-98.895 L144.690,-99.265 C144.690,-99.340 144.750,-99.400 144.825,-99.400 Z" fill="#FFA500" fill-opacity="0.9" fill-rule="nonzero" stroke="none"/>
  <path d="M144.350,-96.461 L144.350,-96.274 C144.350,-96.222 144.308,-96.180 144.256,-96.180 L144.044,-96.180 C143.992,-96.180 143.950,-96.222 143.950,-96.274 L143.950,-96.461 C143.950,-96.513 143.992,-96.555 144.044,-96.555 L144.256,-96.555 C144.308,-96.555 144.350,-96.513 144.350,-96.461 Z" fill="#FFA500" fill-opacity="0.9" fill-rule="nonzero" stroke="none"/>
  <path d="M142.550,-111.875 L142.650,-111.875 C142.678,-111.875 142.700,-111.853 142.700,-111.825 L142.700,-111.050 C142.700,-111.022 142.678,-111.000 142.650,-111.000 L142.550,-111.000 C142.522,-111.000 142.500,-111.022 142.500,-111.050 L142.500,-111.825 C142.500,-111.853 142.522,-111.875 142.550,-111.875 Z" fill="#FFA500" fill-opacity="0.9" fill-rule="nonzero" stroke="none"/>
  <path d="M145.330,-111.510 L145.330,-111.780 C145.330,-111.855 145.390,-111.915 145.465,-111.915 L145.835,-111.915 C145.910,-111.915 145.970,-111.855 145.970,-111.780 L145.970,-111.510 C145.970,-111.435 145.910,-111.375 145.835,-111.375 L145.465,-111.375 C145.390,-111.375 145.330,-111.435 145.330,-111.510 Z" fill="#FFA500" fill-opacity="0.9" fill-rule="nonzero" stroke="none"/>
  <path d="M145.330,-112.530 L145.330,-112.800 C145.330,-112.875 145.390,-112.935 145.465,-112.935 L145.835,-112.935 C145.910,-112.935 145.970,-112.875 145.970,-112.800 L145.970,-112.530 C145.970,-112.455 145.910,-112.395 145.835,-112.395 L145.465,-112.395 C145.390,-112.395 145.330,-112.455 145.330,-112.530 Z" fill="#FFA500" fill-opacity="0.9" fill-rule="nonzero" stroke="none"/>
  <path d="M145.970,-113.717 L145.970,-113.423 C145.970,-113.341 145.904,-113.275 145.822,-113.275 L145.477,-113.275 C145.396,-113.275 145.330,-113.341 145.330,-113.423 L145.330,-113.717 C145.330,-113.799 145.396,-113.865 145.477,-113.865 L145.822,-113.865 C145.904,-113.865 145.970,-113.799 145.970,-113.717 Z" fill="#FFA500" fill-opacity="0.9" fill-rule="nonzero" stroke="none"/>
  <path d="M142.150,-111.875 L142.250,-111.875 C142.278,-111.875 142.300,-111.853 142.300,-111.825 L142.300,-111.050 C142.300,-111.022 142.278,-111.000 142.250,-111.000 L142.150,-111.000 C142.122,-111.000 142.100,-111.022 142.100,-111.050 L142.100,-111.825 C142.100,-111.853 142.122,-111.875 142.150,-111.875 Z" fill="#FFA500" fill-opacity="0.9" fill-rule="nonzero" stroke="none"/>
  <path d="M144.330,-111.510 L144.330,-111.780 C144.330,-111.855 144.390,-111.915 144.465,-111.915 L144.835,-111.915 C144.910,-111.915 144.970,-111.855 144.970,-111.780 L144.970,-111.510 C144.970,-111.435 144.910,-111.375 144.835,-111.375 L144.465,-111.375 C144.390,-111.375 144.330,-111.435 144.330,-111.510 Z" fill="#FFA500" fill-opacity="0.9" fill-rule="nonzero" stroke="none"/>
  <path d="M144.330,-112.530 L144.330,-112.800 C144.330,-112.875 144.390,-112.935 144.465,-112.935 L144.835,-112.935 C144.910,-112.935 144.970,-112.875 144.970,-112.800 L144.970,-112.530 C144.970,-112.455 144.910,-112.395 144.835,-112.395 L144.465,-112.395 C144.390,-112.395 144.330,-112.455 144.330,-112.530 Z" fill="#FFA500" fill-opacity="0.9" fill-rule="nonzero" stroke="none"/>
  <path d="M144.970,-113.717 L144.970,-113.423 C144.970,-113.341 144.904,-113.275 144.822,-113.275 L144.477,-113.275 C144.396,-113.275 144.330,-113.341 144.330,-113.423 L144.330,-113.717 C144.330,-113.799 144.396,-113.865 144.477,-113.865 L144.822,-113.865 C144.904,-113.865 144.970,-113.799 144.970,-113.717 Z" fill="#FFA500" fill-opacity="0.9" fill-rule="nonzero" stroke="none"/>
  <path d="M138.550,-111.875 L138.650,-111.875 C138.678,-111.875 138.700,-111.853 138.700,-111.825 L138.700,-111.050 C138.700,-111.022 138.678,-111.000 138.650,-111.000 L138.550,-111.000 C138.522,-111.000 138.500,-111.022 138.500,-111.050 L138.500,-111.825 C138.500,-111.853 138.522,-111.875 138.550,-111.875 Z" fill="#FFA500" fill-opacity="0.9" fill-rule="nonzero" stroke="none"/>
  <path d="M136.030,-113.205 L136.030,-113.475 C136.030,-113.550 136.090,-113.610 136.165,-113.610 L136.535,-113.610 C136.610,-113.610 136.670,-113.550 136.670,-113.475 L136.670,-113.205 C136.670,-113.130 136.610,-113.070 136.535,-113.070 L136.165,-113.070 C136.090,-113.070 136.030,-113.130 136.030,-113.205 Z" fill="#FFA500" fill-opacity="0.9" fill-rule="nonzero" stroke="none"/>
  <path d="M136.670,-115.412 L136.670,-115.118 C136.670,-115.036 136.604,-114.970 136.523,-114.970 L136.178,-114.970 C136.096,-114.970 136.030,-115.036 136.030,-115.118 L136.030,-115.412 C136.030,-115.494 136.096,-115.560 136.178,-115.560 L136.523,-115.560 C136.604,-115.560 136.670,-115.494 136.670,-115.412 Z" fill="#FFA500" fill-opacity="0.9" fill-rule="nonzero" stroke="none"/>
  <path d="M136.030,-114.225 L136.030,-114.495 C136.030,-114.570 136.090,-114.630 136.165,-114.630 L136.535,-114.630 C136.610,-114.630 136.670,-114.570 136.670,-114.495 L136.670,-114.225 C136.670,-114.150 136.610,-114.090 136.535,-114.090 L136.165,-114.090 C136.090,-114.090 136.030,-114.150 136.030,-114.225 Z" fill="#FFA500" fill-opacity="0.9" fill-rule="nonzero" stroke="none"/>
  <path d="M138.150,-111.875 L138.250,-111.875 C138.278,-111.875 138.300,-111.853 138.300,-111.825 L138.300,-111.050 C138.300,-111.022 138.278,-111.000 138.250,-111.000 L138.150,-111.000 C138.122,-111.000 138.100,-111.022 138.100,-111.050 L138.100,-111.825 C138.100,-111.853 138.122,-111.875 138.150,-111.875 Z" fill="#FFA500" fill-opacity="0.9" fill-rule="nonzero" stroke="none"/>
  <path d="M135.030,-113.205 L135.030,-113.475 C135.030,-113.550 135.090,-113.610 135.165,-113.610 L135.535,-113.610 C135.610,-113.610 135.670,-113.550 135.670,-113.475 L135.670,-113.205 C135.670,-113.130 135.610,-113.070 135.535,-113.070 L135.165,-113.070 C135.090,-113.070 135.030,-113.130 135.030,-113.205 Z" fill="#FFA500" fill-opacity="0.9" fill-rule="nonzero" stroke="none"/>
  <path d="M135.670,-115.412 L135.670,-115.118 C135.670,-115.036 135.604,-114.970 135.523,-114.970 L135.178,-114.970 C135.096,-114.970 135.030,-115.036 135.030,-115.118 L135.030,-115.412 C135.030,-115.494 135.096,-115.560 135.178,-115.560 L135.523,-115.560 C135.604,-115.560 135.670,-115.494 135.670,-115.412 Z" fill="#FFA500" fill-opacity="0.9" fill-rule="nonzero" stroke="none"/>
  <path d="M135.030,-114.225 L135.030,-114.495 C135.030,-114.570 135.090,-114.630 135.165,-114.630 L135.535,-114.630 C135.610,-114.630 135.670,-114.570 135.670,-114.495 L135.670,-114.225 C135.670,-114.150 135.610,-114.090 135.535,-114.090 L135.165,-114.090 C135.090,-114.090 135.030,-114.150 135.030,-114.225 Z" fill="#FFA500" fill-opacity="0.9" fill-rule="nonzero" stroke="none"/>
  <path d="M137.350,-111.875 L137.450,-111.875 C137.478,-111.875 137.500,-111.853 137.500,-111.825 L137.500,-111.050 C137.500,-111.022 137.478,-111.000 137.450,-111.000 L137.350,-111.000 C137.322,-111.000 137.300,-111.022 137.300,-111.050 L137.300,-111.825 C137.300,-111.853 137.322,-111.875 137.350,-111.875 Z" fill="#FFA500" fill-opacity="0.9" fill-rule="nonzero" stroke="none"/>
  <path d="M134.030,-113.195 L134.030,-113.465 C134.030,-113.540 134.090,-113.600 134.165,-113.600 L134.535,-113.600 C134.610,-113.600 134.670,-113.540 134.670,-113.465 L134.670,-113.195 C134.670,-113.120 134.610,-113.060 134.535,-113.060 L134.165,-113.060 C134.090,-113.060 134.030,-113.120 134.030,-113.195 Z" fill="#FFA500" fill-opacity="0.9" fill-rule="nonzero" stroke="none"/>
  <path d="M134.030,-114.215 L134.030,-114.485 C134.030,-114.560 134.090,-114.620 134.165,-114.620 L134.535,-114.620 C134.610,-114.620 134.670,-114.560 134.670,-114.485 L134.670,-114.215 C134.670,-114.140 134.610,-114.080 134.535,-114.080 L134.165,-114.080 C134.090,-114.080 134.030,-114.140 134.030,-114.215 Z" fill="#FFA500" fill-opacity="0.9" fill-rule="nonzero" stroke="none"/>
  <path d="M134.670,-115.402 L134.670,-115.107 C134.670,-115.026 134.604,-114.960 134.523,-114.960 L134.178,-114.960 C134.096,-114.960 134.030,-115.026 134.030,-115.107 L134.030,-115.402 C134.030,-115.484 134.096,-115.550 134.178,-115.550 L134.523,-115.550 C134.604,-115.550 134.670,-115.484 134.670,-115.402 Z" fill="#FFA500" fill-opacity="0.9" fill-rule="nonzero" stroke="none"/>
  <path d="M141.730,-100.192 L141.730,-100.487 C141.730,-100.569 141.796,-100.635 141.878,-100.635 L142.223,-100.635 C142.304,-100.635 142.370,-100.569 142.370,-100.487 L142.370,-100.192 C142.370,-100.111 142.304,-100.045 142.223,-100.045 L141.878,-100.045 C141.796,-100.045 141.730,-100.111 141.730,-100.192 Z" fill="#FFA500" fill-opacity="0.9" fill-rule="nonzero" stroke="none"/>
  <path d="M142.730,-100.230 L142.730,-100.500 C142.730,-100.575 142.790,-100.635 142.865,-100.635 L143.235,-100.635 C143.310,-100.635 143.370,-100.575 143.370,-100.500 L143.370,-100.230 C143.370,-100.155 143.310,-100.095 143.235,-100.095 L142.865,-100.095 C142.790,-100.095 142.730,-100.155 142.730,-100.230 Z" fill="#FFA500" fill-opacity="0.9" fill-rule="nonzero" stroke="none"/>
  <path d="M136.175,-105.900 L136.950,-105.900 C136.978,-105.900 137.000,-105.878 137.000,-105.850 L137.000,-105.750 C137.000,-105.722 136.978,-105.700 136.950,-105.700 L136.175,-105.700 C136.147,-105.700 136.125,-105.722 136.125,-105.750 L136.125,-105.850 C136.125,-105.878 136.147,-105.900 136.175,-105.900 Z" fill="#FFA500" fill-opacity="0.9" fill-rule="nonzero" stroke="none"/>
  <path d="M136.175,-106.300 L136.950,-106.300 C136.978,-106.300 137.000,-106.278 137.000,-106.250 L137.000,-106.150 C137.000,-106.122 136.978,-106.100 136.950,-106.100 L136.175,-106.100 C136.147,-106.100 136.125,-106.122 136.125,-106.150 L136.125,-106.250 C136.125,-106.278 136.147,-106.300 136.175,-106.300 Z" fill="#FFA500" fill-opacity="0.9" fill-rule="nonzero" stroke="none"/>
  <path d="M136.175,-110.300 L136.950,-110.300 C136.978,-110.300 137.000,-110.278 137.000,-110.250 L137.000,-110.150 C137.000,-110.122 136.978,-110.100 136.950,-110.100 L136.175,-110.100 C136.147,-110.100 136.125,-110.122 136.125,-110.150 L136.125,-110.250 C136.125,-110.278 136.147,-110.300 136.175,-110.300 Z" fill="#FFA500" fill-opacity="0.9" fill-rule="nonzero" stroke="none"/>
  <path d="M136.175,-110.700 L136.950,-110.700 C136.978,-110.700 137.000,-110.678 137.000,-110.650 L137.000,-110.550 C137.000,-110.522 136.978,-110.500 136.950,-110.500 L136.175,-110.500 C136.147,-110.500 136.125,-110.522 136.125,-110.550 L136.125,-110.650 C136.125,-110.678 136.147,-110.700 136.175,-110.700 Z" fill="#FFA500" fill-opacity="0.9" fill-rule="nonzero" stroke="none"/>
  <path d="M136.175,-106.700 L136.950,-106.700 C136.978,-106.700 137.000,-106.678 137.000,-106.650 L137.000,-106.550 C137.000,-106.522 136.978,-106.500 136.950,-106.500 L136.175,-106.500 C136.147,-106.500 136.125,-106.522 136.125,-106.550 L136.125,-106.650 C136.125,-106.678 136.147,-106.700 136.175,-106.700 Z" fill="#FFA500" fill-opacity="0.9" fill-rule="nonzero" stroke="none"/>
  <path d="M143.050,-109.500 L143.825,-109.500 C143.853,-109.500 143.875,-109.478 143.875,-109.450 L143.875,-109.350 C143.875,-109.322 143.853,-109.300 143.825,-109.300 L143.050,-109.300 C143.022,-109.300 143.000,-109.322 143.000,-109.350 L143.000,-109.450 C143.000,-109.478 143.022,-109.500 143.050,-109.500 Z" fill="#FFA500" fill-opacity="0.9" fill-rule="nonzero" stroke="none"/>
  <path d="M143.050,-108.700 L143.825,-108.700 C143.853,-108.700 143.875,-108.678 143.875,-108.650 L143.875,-108.550 C143.875,-108.522 143.853,-108.500 143.825,-108.500 L143.050,-108.500 C143.022,-108.500 143.000,-108.522 143.000,-108.550 L143.000,-108.650 C143.000,-108.678 143.022,-108.700 143.050,-108.700 Z" fill="#FFA500" fill-opacity="0.9" fill-rule="nonzero" stroke="none"/>
  <path d="M143.050,-108.300 L143.825,-108.300 C143.853,-108.300 143.875,-108.278 143.875,-108.250 L143.875,-108.150 C143.875,-108.122 143.853,-108.100 143.825,-108.100 L143.050,-108.100 C143.022,-108.100 143.000,-108.122 143.000,-108.150 L143.000,-108.250 C143.000,-108.278 143.022,-108.300 143.050,-108.300 Z" fill="#FFA500" fill-opacity="0.9" fill-rule="nonzero" stroke="none"/>
  <path d="M143.050,-107.900 L143.825,-107.900 C143.853,-107.900 143.875,-107.878 143.875,-107.850 L143.875,-107.750 C143.875,-107.722 143.853,-107.700 143.825,-107.700 L143.050,-107.700 C143.022,-107.700 143.000,-107.722 143.000,-107.750 L143.000,-107.850 C143.000,-107.878 143.022,-107.900 143.050,-107.900 Z" fill="#FFA500" fill-opacity="0.9" fill-rule="nonzero" stroke="none"/>
  <path d="M143.050,-107.500 L143.825,-107.500 C143.853,-107.500 143.875,-107.478 143.875,-107.450 L143.875,-107.350 C143.875,-107.322 143.853,-107.300 143.825,-107.300 L143.050,-107.300 C143.022,-107.300 143.000,-107.322 143.000,-107.350 L143.000,-107.450 C143.000,-107.478 143.022,-107.500 143.050,-107.500 Z" fill="#FFA500" fill-opacity="0.9" fill-rule="nonzero" stroke="none"/>
  <path d="M136.175,-107.100 L136.950,-107.100 C136.978,-107.100 137.000,-107.078 137.000,-107.050 L137.000,-106.950 C137.000,-106.922 136.978,-106.900 136.950,-106.900 L136.175,-106.900 C136.147,-106.900 136.125,-106.922 136.125,-106.950 L136.125,-107.050 C136.125,-107.078 136.147,-107.100 136.175,-107.100 Z" fill="#FFA500" fill-opacity="0.9" fill-rule="nonzero" stroke="none"/>
  <path d="M136.175,-107.500 L136.950,-107.500 C136.978,-107.500 137.000,-107.478 137.000,-107.450 L137.000,-107.350 C137.000,-107.322 136.978,-107.300 136.950,-107.300 L136.175,-107.300 C136.147,-107.300 136.125,-107.322 136.125,-107.350 L136.125,-107.450 C136.125,-107.478 136.147,-107.500 136.175,-107.500 Z" fill="#FFA500" fill-opacity="0.9" fill-rule="nonzero" stroke="none"/>
  <path d="M136.175,-107.900 L136.950,-107.900 C136.978,-107.900 137.000,-107.878 137.000,-107.850 L137.000,-107.750 C137.000,-107.722 136.978,-107.700 136.950,-107.700 L136.175,-107.700 C136.147,-107.700 136.125,-107.722 136.125,-107.750 L136.125,-107.850 C136.125,-107.878 136.147,-107.900 136.175,-107.900 Z" fill="#FFA500" fill-opacity="0.9" fill-rule="nonzero" stroke="none"/>
  <path d="M136.175,-108.300 L136.950,-108.300 C136.978,-108.300 137.000,-108.278 137.000,-108.250 L137.000,-108.150 C137.000,-108.122 136.978,-108.100 136.950,-108.100 L136.175,-108.100 C136.147,-108.100 136.125,-108.122 136.125,-108.150 L136.125,-108.250 C136.125,-108.278 136.147,-108.300 136.175,-108.300 Z" fill="#FFA500" fill-opacity="0.9" fill-rule="nonzero" stroke="none"/>
  <path d="M136.175,-108.700 L136.950,-108.700 C136.978,-108.700 137.000,-108.678 137.000,-108.650 L137.000,-108.550 C137.000,-108.522 136.978,-108.500 136.950,-108.500 L136.175,-108.500 C136.147,-108.500 136.125,-108.522 136.125,-108.550 L136.125,-108.650 C136.125,-108.678 136.147,-108.700 136.175,-108.700 Z" fill="#FFA500" fill-opacity="0.9" fill-rule="nonzero" stroke="none"/>
  <path d="M136.175,-109.500 L136.950,-109.500 C136.978,-109.500 137.000,-109.478 137.000,-109.450 L137.000,-109.350 C137.000,-109.322 136.978,-109.300 136.950,-109.300 L136.175,-109.300 C136.147,-109.300 136.125,-109.322 136.125,-109.350 L136.125,-109.450 C136.125,-109.478 136.147,-109.500 136.175,-109.500 Z" fill="#FFA500" fill-opacity="0.9" fill-rule="nonzero" stroke="none"/>
  <path d="M136.175,-109.900 L136.950,-109.900 C136.978,-109.900 137.000,-109.878 137.000,-109.850 L137.000,-109.750 C137.000,-109.722 136.978,-109.700 136.950,-109.700 L136.175,-109.700 C136.147,-109.700 136.125,-109.722 136.125,-109.750 L136.125,-109.850 C136.125,-109.878 136.147,-109.900 136.175,-109.900 Z" fill="#FFA500" fill-opacity="0.9" fill-rule="nonzero" stroke="none"/>
  <path d="M138.950,-105.000 L139.050,-105.000 C139.078,-105.000 139.100,-104.978 139.100,-104.950 L139.100,-104.175 C139.100,-104.147 139.078,-104.125 139.050,-104.125 L138.950,-104.125 C138.922,-104.125 138.900,-104.147 138.900,-104.175 L138.900,-104.950 C138.900,-104.978 138.922,-105.000 138.950,-105.000 Z" fill="#FFA500" fill-opacity="0.9" fill-rule="nonzero" stroke="none"/>
  <path d="M136.375,-99.667 L136.375,-98.893 C136.375,-98.858 136.347,-98.830 136.312,-98.830 L136.188,-98.830 C136.153,-98.830 136.125,-98.858 136.125,-98.893 L136.125,-99.667 C136.125,-99.702 136.153,-99.730 136.188,-99.730 L136.312,-99.730 C136.347,-99.730 136.375,-99.702 136.375,-99.667 Z" fill="#FFA500" fill-opacity="0.9" fill-rule="nonzero" stroke="none"/>
  <path d="M137.350,-105.000 L137.450,-105.000 C137.478,-105.000 137.500,-104.978 137.500,-104.950 L137.500,-104.175 C137.500,-104.147 137.478,-104.125 137.450,-104.125 L137.350,-104.125 C137.322,-104.125 137.300,-104.147 137.300,-104.175 L137.300,-104.950 C137.300,-104.978 137.322,-105.000 137.350,-105.000 Z" fill="#FFA500" fill-opacity="0.9" fill-rule="nonzero" stroke="none"/>
  <path d="M139.000,-96.955 L138.100,-96.955 L138.100,-97.955 L139.000,-97.955 L139.000,-96.955 Z" fill="#FFA500" fill-opacity="0.9" fill-rule="nonzero" stroke="none"/>
  <path d="M134.900,-96.955 L134.000,-96.955 L134.000,-97.955 L134.900,-97.955 L134.900,-96.955 Z" fill="#FFA500" fill-opacity="0.9" fill-rule="nonzero" stroke="none"/>
  <path d="M134.570,-102.350 L134.570,-102.080 C134.570,-102.005 134.510,-101.945 134.435,-101.945 L134.065,-101.945 C133.990,-101.945 133.930,-102.005 133.930,-102.080 L133.930,-102.350 C133.930,-102.425 133.990,-102.485 134.065,-102.485 L134.435,-102.485 C134.510,-102.485 134.570,-102.425 134.570,-102.350 Z" fill="#FFA500" fill-opacity="0.9" fill-rule="nonzero" stroke="none"/>
  <path d="M135.375,-102.517 L135.375,-101.743 C135.375,-101.708 135.347,-101.680 135.312,-101.680 L135.188,-101.680 C135.153,-101.680 135.125,-101.708 135.125,-101.743 L135.125,-102.517 C135.125,-102.552 135.153,-102.580 135.188,-102.580 L135.312,-102.580 C135.347,-102.580 135.375,-102.552 135.375,-102.517 Z" fill="#FFA500" fill-opacity="0.9" fill-rule="nonzero" stroke="none"/>
  <path d="M138.550,-105.000 L138.650,-105.000 C138.678,-105.000 138.700,-104.978 138.700,-104.950 L138.700,-104.175 C138.700,-104.147 138.678,-104.125 138.650,-104.125 L138.550,-104.125 C138.522,-104.125 138.500,-104.147 138.500,-104.175 L138.500,-104.950 C138.500,-104.978 138.522,-105.000 138.550,-105.000 Z" fill="#FFA500" fill-opacity="0.9" fill-rule="nonzero" stroke="none"/>
  <path d="M136.875,-99.667 L136.875,-98.893 C136.875,-98.858 136.847,-98.830 136.812,-98.830 L136.688,-98.830 C136.653,-98.830 136.625,-98.858 136.625,-98.893 L136.625,-99.667 C136.625,-99.702 136.653,-99.730 136.688,-99.730 L136.812,-99.730 C136.847,-99.730 136.875,-99.702 136.875,-99.667 Z" fill="#FFA500" fill-opacity="0.9" fill-rule="nonzero" stroke="none"/>
  <path d="M137.750,-105.000 L137.850,-105.000 C137.878,-105.000 137.900,-104.978 137.900,-104.950 L137.900,-104.175 C137.900,-104.147 137.878,-104.125 137.850,-104.125 L137.750,-104.125 C137.722,-104.125 137.700,-104.147 137.700,-104.175 L137.700,-104.950 C137.700,-104.978 137.722,-105.000 137.750,-105.000 Z" fill="#FFA500" fill-opacity="0.9" fill-rule="nonzero" stroke="none"/>
  <path d="M135.875,-102.517 L135.875,-101.743 C135.875,-101.708 135.847,-101.680 135.812,-101.680 L135.688,-101.680 C135.653,-101.680 135.625,-101.708 135.625,-101.743 L135.625,-102.517 C135.625,-102.552 135.653,-102.580 135.688,-102.580 L135.812,-102.580 C135.847,-102.580 135.875,-102.552 135.875,-102.517 Z" fill="#FFA500" fill-opacity="0.9" fill-rule="nonzero" stroke="none"/>
  <path d="M138.150,-105.000 L138.250,-105.000 C138.278,-105.000 138.300,-104.978 138.300,-104.950 L138.300,-104.175 C138.300,-104.147 138.278,-104.125 138.250,-104.125 L138.150,-104.125 C138.122,-104.125 138.100,-104.147 138.100,-104.175 L138.100,-104.950 C138.100,-104.978 138.122,-105.000 138.150,-105.000 Z" fill="#FFA500" fill-opacity="0.9" fill-rule="nonzero" stroke="none"/>
  <path d="M137.875,-99.885 L137.605,-99.885 C137.530,-99.885 137.470,-99.945 137.470,-100.020 L137.470,-100.390 C137.470,-100.465 137.530,-100.525 137.605,-100.525 L137.875,-100.525 C137.950,-100.525 138.010,-100.465 138.010,-100.390 L138.010,-100.020 C138.010,-99.945 137.950,-99.885 137.875,-99.885 Z" fill="#FFA500" fill-opacity="0.9" fill-rule="nonzero" stroke="none"/>
  <path d="M136.375,-102.517 L136.375,-101.743 C136.375,-101.708 136.347,-101.680 136.312,-101.680 L136.188,-101.680 C136.153,-101.680 136.125,-101.708 136.125,-101.743 L136.125,-102.517 C136.125,-102.552 136.153,-102.580 136.188,-102.580 L136.312,-102.580 C136.347,-102.580 136.375,-102.552 136.375,-102.517 Z" fill="#FFA500" fill-opacity="0.9" fill-rule="nonzero" stroke="none"/>
  <path d="M139.350,-105.000 L139.450,-105.000 C139.478,-105.000 139.500,-104.978 139.500,-104.950 L139.500,-104.175 C139.500,-104.147 139.478,-104.125 139.450,-104.125 L139.350,-104.125 C139.322,-104.125 139.300,-104.147 139.300,-104.175 L139.300,-104.950 C139.300,-104.978 139.322,-105.000 139.350,-105.000 Z" fill="#FFA500" fill-opacity="0.9" fill-rule="nonzero" stroke="none"/>
  <path d="M135.875,-99.667 L135.875,-98.893 C135.875,-98.858 135.847,-98.830 135.812,-98.830 L135.688,-98.830 C135.653,-98.830 135.625,-98.858 135.625,-98.893 L135.625,-99.667 C135.625,-99.702 135.653,-99.730 135.688,-99.730 L135.812,-99.730 C135.847,-99.730 135.875,-99.702 135.875,-99.667 Z" fill="#FFA500" fill-opacity="0.9" fill-rule="nonzero" stroke="none"/>
  <path d="M137.875,-98.885 L137.605,-98.885 C137.530,-98.885 137.470,-98.945 137.470,-99.020 L137.470,-99.390 C137.470,-99.465 137.530,-99.525 137.605,-99.525 L137.875,-99.525 C137.950,-99.525 138.010,-99.465 138.010,-99.390 L138.010,-99.020 C138.010,-98.945 137.950,-98.885 137.875,-98.885 Z" fill="#FFA500" fill-opacity="0.9" fill-rule="nonzero" stroke="none"/>
  <path d="M141.350,-105.000 L141.450,-105.000 C141.478,-105.000 141.500,-104.978 141.500,-104.950 L141.500,-104.175 C141.500,-104.147 141.478,-104.125 141.450,-104.125 L141.350,-104.125 C141.322,-104.125 141.300,-104.147 141.300,-104.175 L141.300,-104.950 C141.300,-104.978 141.322,-105.000 141.350,-105.000 Z" fill="#FFA500" fill-opacity="0.9" fill-rule="nonzero" stroke="none"/>
  <path d="M142.070,-102.600 L142.070,-102.330 C142.070,-102.255 142.010,-102.195 141.935,-102.195 L141.565,-102.195 C141.490,-102.195 141.430,-102.255 141.430,-102.330 L141.430,-102.600 C141.430,-102.675 141.490,-102.735 141.565,-102.735 L141.935,-102.735 C142.010,-102.735 142.070,-102.675 142.070,-102.600 Z" fill="#FFA500" fill-opacity="0.9" fill-rule="nonzero" stroke="none"/>
  <path d="M141.070,-102.600 L141.070,-102.330 C141.070,-102.255 141.010,-102.195 140.935,-102.195 L140.565,-102.195 C140.490,-102.195 140.430,-102.255 140.430,-102.330 L140.430,-102.600 C140.430,-102.675 140.490,-102.735 140.565,-102.735 L140.935,-102.735 C141.010,-102.735 141.070,-102.675 141.070,-102.600 Z" fill="#FFA500" fill-opacity="0.9" fill-rule="nonzero" stroke="none"/>
  <path d="M140.950,-105.000 L141.050,-105.000 C141.078,-105.000 141.100,-104.978 141.100,-104.950 L141.100,-104.175 C141.100,-104.147 141.078,-104.125 141.050,-104.125 L140.950,-104.125 C140.922,-104.125 140.900,-104.147 140.900,-104.175 L140.900,-104.950 C140.900,-104.978 140.922,-105.000 140.950,-105.000 Z" fill="#FFA500" fill-opacity="0.9" fill-rule="nonzero" stroke="none"/>
  <path d="M140.550,-111.875 L140.650,-111.875 C140.678,-111.875 140.700,-111.853 140.700,-111.825 L140.700,-111.050 C140.700,-111.022 140.678,-111.000 140.650,-111.000 L140.550,-111.000 C140.522,-111.000 140.500,-111.022 140.500,-111.050 L140.500,-111.825 C140.500,-111.853 140.522,-111.875 140.550,-111.875 Z" fill="#FFA500" fill-opacity="0.9" fill-rule="nonzero" stroke="none"/>
  <path d="M141.750,-105.000 L141.850,-105.000 C141.878,-105.000 141.900,-104.978 141.900,-104.950 L141.900,-104.175 C141.900,-104.147 141.878,-104.125 141.850,-104.125 L141.750,-104.125 C141.722,-104.125 141.700,-104.147 141.700,-104.175 L141.700,-104.950 C141.700,-104.978 141.722,-105.000 141.750,-105.000 Z" fill="#FFA500" fill-opacity="0.9" fill-rule="nonzero" stroke="none"/>
  <path d="M139.750,-105.000 L139.850,-105.000 C139.878,-105.000 139.900,-104.978 139.900,-104.950 L139.900,-104.175 C139.900,-104.147 139.878,-104.125 139.850,-104.125 L139.750,-104.125 C139.722,-104.125 139.700,-104.147 139.700,-104.175 L139.700,-104.950 C139.700,-104.978 139.722,-105.000 139.750,-105.000 Z" fill="#FFA500" fill-opacity="0.9" fill-rule="nonzero" stroke="none"/>
  <path d="M143.060,-102.555 L143.060,-102.275 C143.060,-102.198 142.997,-102.135 142.920,-102.135 L142.580,-102.135 C142.503,-102.135 142.440,-102.198 142.440,-102.275 L142.440,-102.555 C142.440,-102.632 142.503,-102.695 142.580,-102.695 L142.920,-102.695 C142.997,-102.695 143.060,-102.632 143.060,-102.555 Z" fill="#FFA500" fill-opacity="0.9" fill-rule="nonzero" stroke="none"/>
  <path d="M141.190,-113.335 L141.190,-113.615 C141.190,-113.692 141.253,-113.755 141.330,-113.755 L141.670,-113.755 C141.747,-113.755 141.810,-113.692 141.810,-113.615 L141.810,-113.335 C141.810,-113.258 141.747,-113.195 141.670,-113.195 L141.330,-113.195 C141.253,-113.195 141.190,-113.258 141.190,-113.335 Z" fill="#FFA500" fill-opacity="0.9" fill-rule="nonzero" stroke="none"/>
  <path d="M138.060,-102.575 L138.060,-102.295 C138.060,-102.218 137.997,-102.155 137.920,-102.155 L137.580,-102.155 C137.503,-102.155 137.440,-102.218 137.440,-102.295 L137.440,-102.575 C137.440,-102.652 137.503,-102.715 137.580,-102.715 L137.920,-102.715 C137.997,-102.715 138.060,-102.652 138.060,-102.575 Z" fill="#FFA500" fill-opacity="0.9" fill-rule="nonzero" stroke="none"/>
  <path d="M139.350,-111.875 L139.450,-111.875 C139.478,-111.875 139.500,-111.853 139.500,-111.825 L139.500,-111.050 C139.500,-111.022 139.478,-111.000 139.450,-111.000 L139.350,-111.000 C139.322,-111.000 139.300,-111.022 139.300,-111.050 L139.300,-111.825 C139.300,-111.853 139.322,-111.875 139.350,-111.875 Z" fill="#FFA500" fill-opacity="0.9" fill-rule="nonzero" stroke="none"/>
  <path d="M138.350,-114.455 L138.350,-113.355 L137.450,-113.355 L137.450,-114.455 L138.350,-114.455 Z" fill="#FFA500" fill-opacity="0.9" fill-rule="nonzero" stroke="none"/>
  <path d="M139.750,-111.875 L139.850,-111.875 C139.878,-111.875 139.900,-111.853 139.900,-111.825 L139.900,-111.050 C139.900,-111.022 139.878,-111.000 139.850,-111.000 L139.750,-111.000 C139.722,-111.000 139.700,-111.022 139.700,-111.050 L139.700,-111.825 C139.700,-111.853 139.722,-111.875 139.750,-111.875 Z" fill="#FFA500" fill-opacity="0.9" fill-rule="nonzero" stroke="none"/>
  <path d="M141.750,-111.875 L141.850,-111.875 C141.878,-111.875 141.900,-111.853 141.900,-111.825 L141.900,-111.050 C141.900,-111.022 141.878,-111.000 141.850,-111.000 L141.750,-111.000 C141.722,-111.000 141.700,-111.022 141.700,-111.050 L141.700,-111.825 C141.700,-111.853 141.722,-111.875 141.750,-111.875 Z" fill="#FFA500" fill-opacity="0.9" fill-rule="nonzero" stroke="none"/>
  <path d="M142.190,-113.335 L142.190,-113.615 C142.190,-113.692 142.253,-113.755 142.330,-113.755 L142.670,-113.755 C142.747,-113.755 142.810,-113.692 142.810,-113.615 L142.810,-113.335 C142.810,-113.258 142.747,-113.195 142.670,-113.195 L142.330,-113.195 C142.253,-113.195 142.190,-113.258 142.190,-113.335 Z" fill="#FFA500" fill-opacity="0.9" fill-rule="nonzero" stroke="none"/>
  <path d="M143.820,-113.580 L143.820,-113.310 C143.820,-113.235 143.760,-113.175 143.685,-113.175 L143.315,-113.175 C143.240,-113.175 143.180,-113.235 143.180,-113.310 L143.180,-113.580 C143.180,-113.655 143.240,-113.715 143.315,-113.715 L143.685,-113.715 C143.760,-113.715 143.820,-113.655 143.820,-113.580 Z" fill="#FFA500" fill-opacity="0.9" fill-rule="nonzero" stroke="none"/>
  <path d="M140.950,-111.875 L141.050,-111.875 C141.078,-111.875 141.100,-111.853 141.100,-111.825 L141.100,-111.050 C141.100,-111.022 141.078,-111.000 141.050,-111.000 L140.950,-111.000 C140.922,-111.000 140.900,-111.022 140.900,-111.050 L140.900,-111.825 C140.900,-111.853 140.922,-111.875 140.950,-111.875 Z" fill="#FFA500" fill-opacity="0.9" fill-rule="nonzero" stroke="none"/>
  <path d="M141.950,-116.205 C141.950,-116.619 141.614,-116.955 141.200,-116.955 C140.786,-116.955 140.450,-116.619 140.450,-116.205 C140.450,-115.791 140.786,-115.455 141.200,-115.455 C141.614,-115.455 141.950,-115.791 141.950,-116.205 Z" fill="#FFA500" fill-opacity="0.9" fill-rule="nonzero" stroke="none"/>
  <path d="M141.350,-111.875 L141.450,-111.875 C141.478,-111.875 141.500,-111.853 141.500,-111.825 L141.500,-111.050 C141.500,-111.022 141.478,-111.000 141.450,-111.000 L141.350,-111.000 C141.322,-111.000 141.300,-111.022 141.300,-111.050 L141.300,-111.825 C141.300,-111.853 141.322,-111.875 141.350,-111.875 Z" fill="#FFA500" fill-opacity="0.9" fill-rule="nonzero" stroke="none"/>
  <path d="M144.450,-116.205 C144.450,-116.619 144.114,-116.955 143.700,-116.955 C143.286,-116.955 142.950,-116.619 142.950,-116.205 C142.950,-115.791 143.286,-115.455 143.700,-115.455 C144.114,-115.455 144.450,-115.791 144.450,-116.205 Z" fill="#FFA500" fill-opacity="0.9" fill-rule="nonzero" stroke="none"/>
  <path d="M143.050,-110.300 L143.825,-110.300 C143.853,-110.300 143.875,-110.278 143.875,-110.250 L143.875,-110.150 C143.875,-110.122 143.853,-110.100 143.825,-110.100 L143.050,-110.100 C143.022,-110.100 143.000,-110.122 143.000,-110.150 L143.000,-110.250 C143.000,-110.278 143.022,-110.300 143.050,-110.300 Z" fill="#FFA500" fill-opacity="0.9" fill-rule="nonzero" stroke="none"/>
  <path d="M143.050,-109.900 L143.825,-109.900 C143.853,-109.900 143.875,-109.878 143.875,-109.850 L143.875,-109.750 C143.875,-109.722 143.853,-109.700 143.825,-109.700 L143.050,-109.700 C143.022,-109.700 143.000,-109.722 143.000,-109.750 L143.000,-109.850 C143.000,-109.878 143.022,-109.900 143.050,-109.900 Z" fill="#FFA500" fill-opacity="0.9" fill-rule="nonzero" stroke="none"/>
  <path d="M143.050,-106.700 L143.825,-106.700 C143.853,-106.700 143.875,-106.678 143.875,-106.650 L143.875,-106.550 C143.875,-106.522 143.853,-106.500 143.825,-106.500 L143.050,-106.500 C143.022,-106.500 143.000,-106.522 143.000,-106.550 L143.000,-106.650 C143.000,-106.678 143.022,-106.700 143.050,-106.700 Z" fill="#FFA500" fill-opacity="0.9" fill-rule="nonzero" stroke="none"/>
  <path d="M143.050,-110.700 L143.825,-110.700 C143.853,-110.700 143.875,-110.678 143.875,-110.650 L143.875,-110.550 C143.875,-110.522 143.853,-110.500 143.825,-110.500 L143.050,-110.500 C143.022,-110.500 143.000,-110.522 143.000,-110.550 L143.000,-110.650 C143.000,-110.678 143.022,-110.700 143.050,-110.700 Z" fill="#FFA500" fill-opacity="0.9" fill-rule="nonzero" stroke="none"/>
  <path d="M143.050,-106.300 L143.825,-106.300 C143.853,-106.300 143.875,-106.278 143.875,-106.250 L143.875,-106.150 C143.875,-106.122 143.853,-106.100 143.825,-106.100 L143.050,-106.100 C143.022,-106.100 143.000,-106.122 143.000,-106.150 L143.000,-106.250 C143.000,-106.278 143.022,-106.300 143.050,-106.300 Z" fill="#FFA500" fill-opacity="0.9" fill-rule="nonzero" stroke="none"/>
  <path d="M143.050,-105.900 L143.825,-105.900 C143.853,-105.900 143.875,-105.878 143.875,-105.850 L143.875,-105.750 C143.875,-105.722 143.853,-105.700 143.825,-105.700 L143.050,-105.700 C143.022,-105.700 143.000,-105.722 143.000,-105.750 L143.000,-105.850 C143.000,-105.878 143.022,-105.900 143.050,-105.900 Z" fill="#FFA500" fill-opacity="0.9" fill-rule="nonzero" stroke="none"/>
  <path d="M143.050,-107.100 L143.825,-107.100 C143.853,-107.100 143.875,-107.078 143.875,-107.050 L143.875,-106.950 C143.875,-106.922 143.853,-106.900 143.825,-106.900 L143.050,-106.900 C143.022,-106.900 143.000,-106.922 143.000,-106.950 L143.000,-107.050 C143.000,-107.078 143.022,-107.100 143.050,-107.100 Z" fill="#FFA500" fill-opacity="0.9" fill-rule="nonzero" stroke="none"/>
  <path d="M144.820,-93.452 L144.820,-93.182 C144.820,-93.108 144.760,-93.048 144.685,-93.048 L144.315,-93.048 C144.240,-93.048 144.180,-93.108 144.180,-93.182 L144.180,-93.452 C144.180,-93.527 144.240,-93.587 144.315,-93.587 L144.685,-93.587 C144.760,-93.587 144.820,-93.527 144.820,-93.452 Z" fill="#FFA500" fill-opacity="0.9" fill-rule="nonzero" stroke="none"/>
  <path d="M141.625,-93.467 L141.775,-93.467 C141.816,-93.467 141.850,-93.434 141.850,-93.392 L141.850,-92.993 C141.850,-92.951 141.816,-92.917 141.775,-92.917 L141.625,-92.917 C141.584,-92.917 141.550,-92.951 141.550,-92.993 L141.550,-93.392 C141.550,-93.434 141.584,-93.467 141.625,-93.467 Z" fill="#FFA500" fill-opacity="0.9" fill-rule="nonzero" stroke="none"/>
  <path d="M141.625,-92.698 L141.775,-92.698 C141.816,-92.698 141.850,-92.664 141.850,-92.622 L141.850,-92.223 C141.850,-92.181 141.816,-92.147 141.775,-92.147 L141.625,-92.147 C141.584,-92.147 141.550,-92.181 141.550,-92.223 L141.550,-92.622 C141.550,-92.664 141.584,-92.698 141.625,-92.698 Z" fill="#FFA500" fill-opacity="0.9" fill-rule="nonzero" stroke="none"/>
  <path d="M141.325,-90.160 L141.175,-90.160 C141.134,-90.160 141.100,-90.194 141.100,-90.235 L141.100,-91.235 C141.100,-91.276 141.134,-91.310 141.175,-91.310 L141.325,-91.310 C141.366,-91.310 141.400,-91.276 141.400,-91.235 L141.400,-90.235 C141.400,-90.194 141.366,-90.160 141.325,-90.160 Z" fill="#FFA500" fill-opacity="0.9" fill-rule="nonzero" stroke="none"/>
  <path d="M142.125,-93.467 L142.275,-93.467 C142.316,-93.467 142.350,-93.434 142.350,-93.392 L142.350,-92.993 C142.350,-92.951 142.316,-92.917 142.275,-92.917 L142.125,-92.917 C142.084,-92.917 142.050,-92.951 142.050,-92.993 L142.050,-93.392 C142.050,-93.434 142.084,-93.467 142.125,-93.467 Z" fill="#FFA500" fill-opacity="0.9" fill-rule="nonzero" stroke="none"/>
  <path d="M142.125,-92.698 L142.275,-92.698 C142.316,-92.698 142.350,-92.664 142.350,-92.622 L142.350,-92.223 C142.350,-92.181 142.316,-92.147 142.275,-92.147 L142.125,-92.147 C142.084,-92.147 142.050,-92.181 142.050,-92.223 L142.050,-92.622 C142.050,-92.664 142.084,-92.698 142.125,-92.698 Z" fill="#FFA500" fill-opacity="0.9" fill-rule="nonzero" stroke="none"/>
  <path d="M138.325,-90.160 L138.175,-90.160 C138.134,-90.160 138.100,-90.194 138.100,-90.235 L138.100,-91.235 C138.100,-91.276 138.134,-91.310 138.175,-91.310 L138.325,-91.310 C138.366,-91.310 138.400,-91.276 138.400,-91.235 L138.400,-90.235 C138.400,-90.194 138.366,-90.160 138.325,-90.160 Z" fill="#FFA500" fill-opacity="0.9" fill-rule="nonzero" stroke="none"/>
  <path d="M143.820,-93.452 L143.820,-93.182 C143.820,-93.108 143.760,-93.048 143.685,-93.048 L143.315,-93.048 C143.240,-93.048 143.180,-93.108 143.180,-93.182 L143.180,-93.452 C143.180,-93.527 143.240,-93.587 143.315,-93.587 L143.685,-93.587 C143.760,-93.587 143.820,-93.527 143.820,-93.452 Z" fill="#FFA500" fill-opacity="0.9" fill-rule="nonzero" stroke="none"/>
  <path d="M138.825,-90.160 L138.675,-90.160 C138.634,-90.160 138.600,-90.194 138.600,-90.235 L138.600,-91.235 C138.600,-91.276 138.634,-91.310 138.675,-91.310 L138.825,-91.310 C138.866,-91.310 138.900,-91.276 138.900,-91.235 L138.900,-90.235 C138.900,-90.194 138.866,-90.160 138.825,-90.160 Z" fill="#FFA500" fill-opacity="0.9" fill-rule="nonzero" stroke="none"/>
  <path d="M141.825,-90.160 L141.675,-90.160 C141.634,-90.160 141.600,-90.194 141.600,-90.235 L141.600,-91.235 C141.600,-91.276 141.634,-91.310 141.675,-91.310 L141.825,-91.310 C141.866,-91.310 141.900,-91.276 141.900,-91.235 L141.900,-90.235 C141.900,-90.194 141.866,-90.160 141.825,-90.160 Z" fill="#FFA500" fill-opacity="0.9" fill-rule="nonzero" stroke="none"/>
  <path d="M137.075,-93.082 L137.475,-93.082 C137.585,-93.082 137.675,-92.993 137.675,-92.882 L137.675,-92.332 C137.675,-92.222 137.585,-92.132 137.475,-92.132 L137.075,-92.132 C136.965,-92.132 136.875,-92.222 136.875,-92.332 L136.875,-92.882 C136.875,-92.993 136.965,-93.082 137.075,-93.082 Z" fill="#FFA500" fill-opacity="0.9" fill-rule="nonzero" stroke="none"/>
  <path d="M136.150,-92.658 L136.150,-92.357 C136.150,-92.275 136.083,-92.207 136.000,-92.207 L135.600,-92.207 C135.517,-92.207 135.450,-92.275 135.450,-92.357 L135.450,-92.658 C135.450,-92.740 135.517,-92.808 135.600,-92.808 L136.000,-92.808 C136.083,-92.808 136.150,-92.740 136.150,-92.658 Z" fill="#FFA500" fill-opacity="0.9" fill-rule="nonzero" stroke="none"/>
  <path d="M142.550,-90.160 L142.250,-90.160 C142.167,-90.160 142.100,-90.227 142.100,-90.310 L142.100,-91.160 C142.100,-91.243 142.167,-91.310 142.250,-91.310 L142.550,-91.310 C142.633,-91.310 142.700,-91.243 142.700,-91.160 L142.700,-90.310 C142.700,-90.227 142.633,-90.160 142.550,-90.160 Z" fill="#FFA500" fill-opacity="0.9" fill-rule="nonzero" stroke="none"/>
  <path d="M137.750,-90.160 L137.450,-90.160 C137.367,-90.160 137.300,-90.227 137.300,-90.310 L137.300,-91.160 C137.300,-91.243 137.367,-91.310 137.450,-91.310 L137.750,-91.310 C137.833,-91.310 137.900,-91.243 137.900,-91.160 L137.900,-90.310 C137.900,-90.227 137.833,-90.160 137.750,-90.160 Z" fill="#FFA500" fill-opacity="0.9" fill-rule="nonzero" stroke="none"/>
  <path d="M137.750,-90.160 L137.450,-90.160 C137.367,-90.160 137.300,-90.227 137.300,-90.310 L137.300,-91.160 C137.300,-91.243 137.367,-91.310 137.450,-91.310 L137.750,-91.310 C137.833,-91.310 137.900,-91.243 137.900,-91.160 L137.900,-90.310 C137.900,-90.227 137.833,-90.160 137.750,-90.160 Z" fill="#FFA500" fill-opacity="0.9" fill-rule="nonzero" stroke="none"/>
  <path d="M142.550,-90.160 L142.250,-90.160 C142.167,-90.160 142.100,-90.227 142.100,-90.310 L142.100,-91.160 C142.100,-91.243 142.167,-91.310 142.250,-91.310 L142.550,-91.310 C142.633,-91.310 142.700,-91.243 142.700,-91.160 L142.700,-90.310 C142.700,-90.227 142.633,-90.160 142.550,-90.160 Z" fill="#FFA500" fill-opacity="0.9" fill-rule="nonzero" stroke="none"/>
  <path d="M140.625,-93.467 L140.775,-93.467 C140.816,-93.467 140.850,-93.434 140.850,-93.392 L140.850,-92.993 C140.850,-92.951 140.816,-92.917 140.775,-92.917 L140.625,-92.917 C140.584,-92.917 140.550,-92.951 140.550,-92.993 L140.550,-93.392 C140.550,-93.434 140.584,-93.467 140.625,-93.467 Z" fill="#FFA500" fill-opacity="0.9" fill-rule="nonzero" stroke="none"/>
  <path d="M140.625,-92.698 L140.775,-92.698 C140.816,-92.698 140.850,-92.664 140.850,-92.622 L140.850,-92.223 C140.850,-92.181 140.816,-92.147 140.775,-92.147 L140.625,-92.147 C140.584,-92.147 140.550,-92.181 140.550,-92.223 L140.550,-92.622 C140.550,-92.664 140.584,-92.698 140.625,-92.698 Z" fill="#FFA500" fill-opacity="0.9" fill-rule="nonzero" stroke="none"/>
  <path d="M139.825,-90.160 L139.675,-90.160 C139.634,-90.160 139.600,-90.194 139.600,-90.235 L139.600,-91.235 C139.600,-91.276 139.634,-91.310 139.675,-91.310 L139.825,-91.310 C139.866,-91.310 139.900,-91.276 139.900,-91.235 L139.900,-90.235 C139.900,-90.194 139.866,-90.160 139.825,-90.160 Z" fill="#FFA500" fill-opacity="0.9" fill-rule="nonzero" stroke="none"/>
  <path d="M140.825,-90.160 L140.675,-90.160 C140.634,-90.160 140.600,-90.194 140.600,-90.235 L140.600,-91.235 C140.600,-91.276 140.634,-91.310 140.675,-91.310 L140.825,-91.310 C140.866,-91.310 140.900,-91.276 140.900,-91.235 L140.900,-90.235 C140.900,-90.194 140.866,-90.160 140.825,-90.160 Z" fill="#FFA500" fill-opacity="0.9" fill-rule="nonzero" stroke="none"/>
  <path d="M142.070,-101.580 L142.070,-101.310 C142.070,-101.235 142.010,-101.175 141.935,-101.175 L141.565,-101.175 C141.490,-101.175 141.430,-101.235 141.430,-101.310 L141.430,-101.580 C141.430,-101.655 141.490,-101.715 141.565,-101.715 L141.935,-101.715 C142.010,-101.715 142.070,-101.655 142.070,-101.580 Z" fill="#FFA500" fill-opacity="0.9" fill-rule="nonzero" stroke="none"/>
  <path d="M141.070,-101.580 L141.070,-101.310 C141.070,-101.235 141.010,-101.175 140.935,-101.175 L140.565,-101.175 C140.490,-101.175 140.430,-101.235 140.430,-101.310 L140.430,-101.580 C140.430,-101.655 140.490,-101.715 140.565,-101.715 L140.935,-101.715 C141.010,-101.715 141.070,-101.655 141.070,-101.580 Z" fill="#FFA500" fill-opacity="0.9" fill-rule="nonzero" stroke="none"/>
  <path d="M140.125,-93.467 L140.275,-93.467 C140.316,-93.467 140.350,-93.434 140.350,-93.392 L140.350,-92.993 C140.350,-92.951 140.316,-92.917 140.275,-92.917 L140.125,-92.917 C140.084,-92.917 140.050,-92.951 140.050,-92.993 L140.050,-93.392 C140.050,-93.434 140.084,-93.467 140.125,-93.467 Z" fill="#FFA500" fill-opacity="0.9" fill-rule="nonzero" stroke="none"/>
  <path d="M140.125,-92.698 L140.275,-92.698 C140.316,-92.698 140.350,-92.664 140.350,-92.622 L140.350,-92.223 C140.350,-92.181 140.316,-92.147 140.275,-92.147 L140.125,-92.147 C140.084,-92.147 140.050,-92.181 140.050,-92.223 L140.050,-92.622 C140.050,-92.664 140.084,-92.698 140.125,-92.698 Z" fill="#FFA500" fill-opacity="0.9" fill-rule="nonzero" stroke="none"/>
  <path d="M140.325,-90.160 L140.175,-90.160 C140.134,-90.160 140.100,-90.194 140.100,-90.235 L140.100,-91.235 C140.100,-91.276 140.134,-91.310 140.175,-91.310 L140.325,-91.310 C140.366,-91.310 140.400,-91.276 140.400,-91.235 L140.400,-90.235 C140.400,-90.194 140.366,-90.160 140.325,-90.160 Z" fill="#FFA500" fill-opacity="0.9" fill-rule="nonzero" stroke="none"/>
  <path d="M139.325,-90.160 L139.175,-90.160 C139.134,-90.160 139.100,-90.194 139.100,-90.235 L139.100,-91.235 C139.100,-91.276 139.134,-91.310 139.175,-91.310 L139.325,-91.310 C139.366,-91.310 139.400,-91.276 139.400,-91.235 L139.400,-90.235 C139.400,-90.194 139.366,-90.160 139.325,-90.160 Z" fill="#FFA500" fill-opacity="0.9" fill-rule="nonzero" stroke="none"/>
  <path d="M144.260,-95.575 L144.260,-95.295 C144.260,-95.218 144.197,-95.155 144.120,-95.155 L143.780,-95.155 C143.703,-95.155 143.640,-95.218 143.640,-95.295 L143.640,-95.575 C143.640,-95.652 143.703,-95.715 143.780,-95.715 L144.120,-95.715 C144.197,-95.715 144.260,-95.652 144.260,-95.575 Z" fill="#FFA500" fill-opacity="0.9" fill-rule="nonzero" stroke="none"/>
  <path d="M143.700,-96.461 L143.700,-96.274 C143.700,-96.222 143.658,-96.180 143.606,-96.180 L143.394,-96.180 C143.342,-96.180 143.300,-96.222 143.300,-96.274 L143.300,-96.461 C143.300,-96.513 143.342,-96.555 143.394,-96.555 L143.606,-96.555 C143.658,-96.555 143.700,-96.513 143.700,-96.461 Z" fill="#FFA500" fill-opacity="0.9" fill-rule="nonzero" stroke="none"/>
  <path d="M138.725,-93.082 L139.125,-93.082 C139.235,-93.082 139.325,-92.993 139.325,-92.882 L139.325,-92.332 C139.325,-92.222 139.235,-92.132 139.125,-92.132 L138.725,-92.132 C138.615,-92.132 138.525,-92.222 138.525,-92.332 L138.525,-92.882 C138.525,-92.993 138.615,-93.082 138.725,-93.082 Z" fill="#FFA500" fill-opacity="0.9" fill-rule="nonzero" stroke="none"/>
  <path d="M139.100,-93.632 L138.650,-93.632 C138.526,-93.632 138.425,-93.733 138.425,-93.857 L138.425,-94.357 C138.425,-94.482 138.526,-94.582 138.650,-94.582 L139.100,-94.582 C139.224,-94.582 139.325,-94.482 139.325,-94.357 L139.325,-93.857 C139.325,-93.733 139.224,-93.632 139.100,-93.632 Z" fill="#FFA500" fill-opacity="0.9" fill-rule="nonzero" stroke="none"/>
  <path d="M135.395,-106.635 L135.125,-106.635 C135.050,-106.635 134.990,-106.695 134.990,-106.770 L134.990,-107.140 C134.990,-107.215 135.050,-107.275 135.125,-107.275 L135.395,-107.275 C135.470,-107.275 135.530,-107.215 135.530,-107.140 L135.530,-106.770 C135.530,-106.695 135.470,-106.635 135.395,-106.635 Z" fill="#FFA500" fill-opacity="0.9" fill-rule="nonzero" stroke="none"/>
  <path d="M144.630,-94.310 L144.630,-94.580 C144.630,-94.655 144.690,-94.715 144.765,-94.715 L145.135,-94.715 C145.210,-94.715 145.270,-94.655 145.270,-94.580 L145.270,-94.310 C145.270,-94.235 145.210,-94.175 145.135,-94.175 L144.765,-94.175 C144.690,-94.175 144.630,-94.235 144.630,-94.310 Z" fill="#FFA500" fill-opacity="0.9" fill-rule="nonzero" stroke="none"/>
  <path d="M137.750,-111.875 L137.850,-111.875 C137.878,-111.875 137.900,-111.853 137.900,-111.825 L137.900,-111.050 C137.900,-111.022 137.878,-111.000 137.850,-111.000 L137.750,-111.000 C137.722,-111.000 137.700,-111.022 137.700,-111.050 L137.700,-111.825 C137.700,-111.853 137.722,-111.875 137.750,-111.875 Z" fill="#FFA500" fill-opacity="0.9" fill-rule="nonzero" stroke="none"/>
  <path d="M135.395,-107.635 L135.125,-107.635 C135.050,-107.635 134.990,-107.695 134.990,-107.770 L134.990,-108.140 C134.990,-108.215 135.050,-108.275 135.125,-108.275 L135.395,-108.275 C135.470,-108.275 135.530,-108.215 135.530,-108.140 L135.530,-107.770 C135.530,-107.695 135.470,-107.635 135.395,-107.635 Z" fill="#FFA500" fill-opacity="0.9" fill-rule="nonzero" stroke="none"/>
  <path d="M134.375,-106.635 L134.105,-106.635 C134.030,-106.635 133.970,-106.695 133.970,-106.770 L133.970,-107.140 C133.970,-107.215 134.030,-107.275 134.105,-107.275 L134.375,-107.275 C134.450,-107.275 134.510,-107.215 134.510,-107.140 L134.510,-106.770 C134.510,-106.695 134.450,-106.635 134.375,-106.635 Z" fill="#FFA500" fill-opacity="0.9" fill-rule="nonzero" stroke="none"/>
  <path d="M136.175,-105.500 L136.950,-105.500 C136.978,-105.500 137.000,-105.478 137.000,-105.450 L137.000,-105.350 C137.000,-105.322 136.978,-105.300 136.950,-105.300 L136.175,-105.300 C136.147,-105.300 136.125,-105.322 136.125,-105.350 L136.125,-105.450 C136.125,-105.478 136.147,-105.500 136.175,-105.500 Z" fill="#FFA500" fill-opacity="0.9" fill-rule="nonzero" stroke="none"/>
  <path d="M136.175,-109.100 L136.950,-109.100 C136.978,-109.100 137.000,-109.078 137.000,-109.050 L137.000,-108.950 C137.000,-108.922 136.978,-108.900 136.950,-108.900 L136.175,-108.900 C136.147,-108.900 136.125,-108.922 136.125,-108.950 L136.125,-109.050 C136.125,-109.078 136.147,-109.100 136.175,-109.100 Z" fill="#FFA500" fill-opacity="0.9" fill-rule="nonzero" stroke="none"/>
  <path d="M140.150,-111.875 L140.250,-111.875 C140.278,-111.875 140.300,-111.853 140.300,-111.825 L140.300,-111.050 C140.300,-111.022 140.278,-111.000 140.250,-111.000 L140.150,-111.000 C140.122,-111.000 140.100,-111.022 140.100,-111.050 L140.100,-111.825 C140.100,-111.853 140.122,-111.875 140.150,-111.875 Z" fill="#FFA500" fill-opacity="0.9" fill-rule="nonzero" stroke="none"/>
  <path d="M143.050,-109.100 L143.825,-109.100 C143.853,-109.100 143.875,-109.078 143.875,-109.050 L143.875,-108.950 C143.875,-108.922 143.853,-108.900 143.825,-108.900 L143.050,-108.900 C143.022,-108.900 143.000,-108.922 143.000,-108.950 L143.000,-109.050 C143.000,-109.078 143.022,-109.100 143.050,-109.100 Z" fill="#FFA500" fill-opacity="0.9" fill-rule="nonzero" stroke="none"/>
  <path d="M143.050,-105.500 L143.825,-105.500 C143.853,-105.500 143.875,-105.478 143.875,-105.450 L143.875,-105.350 C143.875,-105.322 143.853,-105.300 143.825,-105.300 L143.050,-105.300 C143.022,-105.300 143.000,-105.322 143.000,-105.350 L143.000,-105.450 C143.000,-105.478 143.022,-105.500 143.050,-105.500 Z" fill="#FFA500" fill-opacity="0.9" fill-rule="nonzero" stroke="none"/>
  <path d="M142.550,-105.000 L142.650,-105.000 C142.678,-105.000 142.700,-104.978 142.700,-104.950 L142.700,-104.175 C142.700,-104.147 142.678,-104.125 142.650,-104.125 L142.550,-104.125 C142.522,-104.125 142.500,-104.147 142.500,-104.175 L142.500,-104.950 C142.500,-104.978 142.522,-105.000 142.550,-105.000 Z" fill="#FFA500" fill-opacity="0.9" fill-rule="nonzero" stroke="none"/>
  <path d="M142.150,-105.000 L142.250,-105.000 C142.278,-105.000 142.300,-104.978 142.300,-104.950 L142.300,-104.175 C142.300,-104.147 142.278,-104.125 142.250,-104.125 L142.150,-104.125 C142.122,-104.125 142.100,-104.147 142.100,-104.175 L142.100,-104.950 C142.100,-104.978 142.122,-105.000 142.150,-105.000 Z" fill="#FFA500" fill-opacity="0.9" fill-rule="nonzero" stroke="none"/>
  <path d="M140.550,-105.000 L140.650,-105.000 C140.678,-105.000 140.700,-104.978 140.700,-104.950 L140.700,-104.175 C140.700,-104.147 140.678,-104.125 140.650,-104.125 L140.550,-104.125 C140.522,-104.125 140.500,-104.147 140.500,-104.175 L140.500,-104.950 C140.500,-104.978 140.522,-105.000 140.550,-105.000 Z" fill="#FFA500" fill-opacity="0.9" fill-rule="nonzero" stroke="none"/>
  <path d="M140.150,-105.000 L140.250,-105.000 C140.278,-105.000 140.300,-104.978 140.300,-104.950 L140.300,-104.175 C140.300,-104.147 140.278,-104.125 140.250,-104.125 L140.150,-104.125 C140.122,-104.125 140.100,-104.147 140.100,-104.175 L140.100,-104.950 C140.100,-104.978 140.122,-105.000 140.150,-105.000 Z" fill="#FFA500" fill-opacity="0.9" fill-rule="nonzero" stroke="none"/>
  <path d="M142.660,-98.075 L142.660,-97.795 C142.660,-97.718 142.597,-97.655 142.520,-97.655 L142.180,-97.655 C142.103,-97.655 142.040,-97.718 142.040,-97.795 L142.040,-98.075 C142.040,-98.152 142.103,-98.215 142.180,-98.215 L142.520,-98.215 C142.597,-98.215 142.660,-98.152 142.660,-98.075 Z" fill="#FFA500" fill-opacity="0.9" fill-rule="nonzero" stroke="none"/>
  <path d="M138.895,-99.885 L138.625,-99.885 C138.550,-99.885 138.490,-99.945 138.490,-100.020 L138.490,-100.390 C138.490,-100.465 138.550,-100.525 138.625,-100.525 L138.895,-100.525 C138.970,-100.525 139.030,-100.465 139.030,-100.390 L139.030,-100.020 C139.030,-99.945 138.970,-99.885 138.895,-99.885 Z" fill="#FFA500" fill-opacity="0.9" fill-rule="nonzero" stroke="none"/>
  <path d="M142.730,-99.210 L142.730,-99.480 C142.730,-99.555 142.790,-99.615 142.865,-99.615 L143.235,-99.615 C143.310,-99.615 143.370,-99.555 143.370,-99.480 L143.370,-99.210 C143.370,-99.135 143.310,-99.075 143.235,-99.075 L142.865,-99.075 C142.790,-99.075 142.730,-99.135 142.730,-99.210 Z" fill="#FFA500" fill-opacity="0.9" fill-rule="nonzero" stroke="none"/>
  <path d="M143.700,-98.236 L143.700,-98.049 C143.700,-97.997 143.658,-97.955 143.606,-97.955 L143.394,-97.955 C143.342,-97.955 143.300,-97.997 143.300,-98.049 L143.300,-98.236 C143.300,-98.288 143.342,-98.330 143.394,-98.330 L143.606,-98.330 C143.658,-98.330 143.700,-98.288 143.700,-98.236 Z" fill="#FFA500" fill-opacity="0.9" fill-rule="nonzero" stroke="none"/>
  <path d="M140.190,-113.335 L140.190,-113.615 C140.190,-113.692 140.253,-113.755 140.330,-113.755 L140.670,-113.755 C140.747,-113.755 140.810,-113.692 140.810,-113.615 L140.810,-113.335 C140.810,-113.258 140.747,-113.195 140.670,-113.195 L140.330,-113.195 C140.253,-113.195 140.190,-113.258 140.190,-113.335 Z" fill="#FFA500" fill-opacity="0.9" fill-rule="nonzero" stroke="none"/>
  <path d="M145.060,-104.825 L145.060,-104.545 C145.060,-104.468 144.997,-104.405 144.920,-104.405 L144.580,-104.405 C144.503,-104.405 144.440,-104.468 144.440,-104.545 L144.440,-104.825 C144.440,-104.902 144.503,-104.965 144.580,-104.965 L144.920,-104.965 C144.997,-104.965 145.060,-104.902 145.060,-104.825 Z" fill="#FFA500" fill-opacity="0.9" fill-rule="nonzero" stroke="none"/>
  <path d="M139.060,-102.575 L139.060,-102.295 C139.060,-102.218 138.997,-102.155 138.920,-102.155 L138.580,-102.155 C138.503,-102.155 138.440,-102.218 138.440,-102.295 L138.440,-102.575 C138.440,-102.652 138.503,-102.715 138.580,-102.715 L138.920,-102.715 C138.997,-102.715 139.060,-102.652 139.060,-102.575 Z" fill="#FFA500" fill-opacity="0.9" fill-rule="nonzero" stroke="none"/>
  <path d="M134.570,-101.330 L134.570,-101.060 C134.570,-100.985 134.510,-100.925 134.435,-100.925 L134.065,-100.925 C133.990,-100.925 133.930,-100.985 133.930,-101.060 L133.930,-101.330 C133.930,-101.405 133.990,-101.465 134.065,-101.465 L134.435,-101.465 C134.510,-101.465 134.570,-101.405 134.570,-101.330 Z" fill="#FFA500" fill-opacity="0.9" fill-rule="nonzero" stroke="none"/>
  <path d="M144.630,-109.265 L144.910,-109.265 C144.987,-109.265 145.050,-109.202 145.050,-109.125 L145.050,-108.785 C145.050,-108.708 144.987,-108.645 144.910,-108.645 L144.630,-108.645 C144.553,-108.645 144.490,-108.708 144.490,-108.785 L144.490,-109.125 C144.490,-109.202 144.553,-109.265 144.630,-109.265 Z" fill="#FFA500" fill-opacity="0.9" fill-rule="nonzero" stroke="none"/>
  <path d="M134.560,-100.325 L134.560,-100.045 C134.560,-99.968 134.497,-99.905 134.420,-99.905 L134.080,-99.905 C134.003,-99.905 133.940,-99.968 133.940,-100.045 L133.940,-100.325 C133.940,-100.402 134.003,-100.465 134.080,-100.465 L134.420,-100.465 C134.497,-100.465 134.560,-100.402 134.560,-100.325 Z" fill="#FFA500" fill-opacity="0.9" fill-rule="nonzero" stroke="none"/>
  <path d="M135.560,-104.825 L135.560,-104.545 C135.560,-104.468 135.497,-104.405 135.420,-104.405 L135.080,-104.405 C135.003,-104.405 134.940,-104.468 134.940,-104.545 L134.940,-104.825 C134.940,-104.902 135.003,-104.965 135.080,-104.965 L135.420,-104.965 C135.497,-104.965 135.560,-104.902 135.560,-104.825 Z" fill="#FFA500" fill-opacity="0.9" fill-rule="nonzero" stroke="none"/>
  <path d="M139.170,-116.645 L138.890,-116.645 C138.813,-116.645 138.750,-116.708 138.750,-116.785 L138.750,-117.125 C138.750,-117.202 138.813,-117.265 138.890,-117.265 L139.170,-117.265 C139.247,-117.265 139.310,-117.202 139.310,-117.125 L139.310,-116.785 C139.310,-116.708 139.247,-116.645 139.170,-116.645 Z" fill="#FFA500" fill-opacity="0.9" fill-rule="nonzero" stroke="none"/>
  <path d="M140.060,-102.575 L140.060,-102.295 C140.060,-102.218 139.997,-102.155 139.920,-102.155 L139.580,-102.155 C139.503,-102.155 139.440,-102.218 139.440,-102.295 L139.440,-102.575 C139.440,-102.652 139.503,-102.715 139.580,-102.715 L139.920,-102.715 C139.997,-102.715 140.060,-102.652 140.060,-102.575 Z" fill="#FFA500" fill-opacity="0.9" fill-rule="nonzero" stroke="none"/>
  <path d="M135.370,-108.645 L135.090,-108.645 C135.013,-108.645 134.950,-108.708 134.950,-108.785 L134.950,-109.125 C134.950,-109.202 135.013,-109.265 135.090,-109.265 L135.370,-109.265 C135.447,-109.265 135.510,-109.202 135.510,-109.125 L135.510,-108.785 C135.510,-108.708 135.447,-108.645 135.370,-108.645 Z" fill="#FFA500" fill-opacity="0.9" fill-rule="nonzero" stroke="none"/>
  <path d="M135.375,-99.667 L135.375,-98.893 C135.375,-98.858 135.347,-98.830 135.312,-98.830 L135.188,-98.830 C135.153,-98.830 135.125,-98.858 135.125,-98.893 L135.125,-99.667 C135.125,-99.702 135.153,-99.730 135.188,-99.730 L135.312,-99.730 C135.347,-99.730 135.375,-99.702 135.375,-99.667 Z" fill="#FFA500" fill-opacity="0.9" fill-rule="nonzero" stroke="none"/>
  <path d="M139.650,-116.155 L139.650,-115.055 L138.750,-115.055 L138.750,-116.155 L139.650,-116.155 Z" fill="#FFA500" fill-opacity="0.9" fill-rule="nonzero" stroke="none"/>
  <path d="M138.350,-116.155 L138.350,-115.055 L137.450,-115.055 L137.450,-116.155 L138.350,-116.155 Z" fill="#FFA500" fill-opacity="0.9" fill-rule="nonzero" stroke="none"/>
  <path d="M138.895,-98.885 L138.625,-98.885 C138.550,-98.885 138.490,-98.945 138.490,-99.020 L138.490,-99.390 C138.490,-99.465 138.550,-99.525 138.625,-99.525 L138.895,-99.525 C138.970,-99.525 139.030,-99.465 139.030,-99.390 L139.030,-99.020 C139.030,-98.945 138.970,-98.885 138.895,-98.885 Z" fill="#FFA500" fill-opacity="0.9" fill-rule="nonzero" stroke="none"/>
  <path d="M143.820,-114.600 L143.820,-114.330 C143.820,-114.255 143.760,-114.195 143.685,-114.195 L143.315,-114.195 C143.240,-114.195 143.180,-114.255 143.180,-114.330 L143.180,-114.600 C143.180,-114.675 143.240,-114.735 143.315,-114.735 L143.685,-114.735 C143.760,-114.735 143.820,-114.675 143.820,-114.600 Z" fill="#FFA500" fill-opacity="0.9" fill-rule="nonzero" stroke="none"/>
  <path d="M143.805,-99.400 L144.075,-99.400 C144.150,-99.400 144.210,-99.340 144.210,-99.265 L144.210,-98.895 C144.210,-98.820 144.150,-98.760 144.075,-98.760 L143.805,-98.760 C143.730,-98.760 143.670,-98.820 143.670,-98.895 L143.670,-99.265 C143.670,-99.340 143.730,-99.400 143.805,-99.400 Z" fill="#FFA500" fill-opacity="0.9" fill-rule="nonzero" stroke="none"/>
  <path d="M144.060,-102.555 L144.060,-102.275 C144.060,-102.198 143.997,-102.135 143.920,-102.135 L143.580,-102.135 C143.503,-102.135 143.440,-102.198 143.440,-102.275 L143.440,-102.555 C143.440,-102.632 143.503,-102.695 143.580,-102.695 L143.920,-102.695 C143.997,-102.695 144.060,-102.632 144.060,-102.555 Z" fill="#FFA500" fill-opacity="0.9" fill-rule="nonzero" stroke="none"/>
  <path d="M145.060,-102.555 L145.060,-102.275 C145.060,-102.198 144.997,-102.135 144.920,-102.135 L144.580,-102.135 C144.503,-102.135 144.440,-102.198 144.440,-102.275 L144.440,-102.555 C144.440,-102.632 144.503,-102.695 144.580,-102.695 L144.920,-102.695 C144.997,-102.695 145.060,-102.632 145.060,-102.555 Z" fill="#FFA500" fill-opacity="0.9" fill-rule="nonzero" stroke="none"/>
</svg>
