<svg xmlns="http://www.w3.org/2000/svg" viewBox="132.80050659179688 -121.69950103759766 14.39898681640625 37.999000549316406" width="1200" height="1200">
  <title>F.Cu - Trace only</title>
  <rect x="0" y="0" width="100%" height="100%" fill="black"/>
  <path d="M137.825,-101.475 L137.825,-101.455 Q137.825,-101.380 137.750,-101.380 Q137.675,-101.380 137.675,-101.455 L137.675,-101.475 Q137.675,-101.550 137.750,-101.550 Q137.825,-101.550 137.825,-101.475 Z" fill="#FF4500" fill-opacity="0.8" stroke="none"/>
  <path d="M138.803,-101.402 L138.303,-100.902 Q138.250,-100.849 138.197,-100.902 Q138.144,-100.955 138.197,-101.008 L138.697,-101.508 Q138.750,-101.561 138.803,-101.508 Q138.856,-101.455 138.803,-101.402 Z" fill="#FF4500" fill-opacity="0.8" stroke="none"/>
  <path d="M136.297,-116.302 L135.297,-117.302 Q135.244,-117.355 135.297,-117.408 Q135.350,-117.461 135.403,-117.408 L136.403,-116.408 Q136.456,-116.355 136.403,-116.302 Q136.350,-116.249 136.297,-116.302 Z" fill="#FF4500" fill-opacity="0.8" stroke="none"/>
  <path d="M144.803,-101.302 L144.303,-100.802 Q144.250,-100.749 144.197,-100.802 Q144.144,-100.855 144.197,-100.908 L144.697,-101.408 Q144.750,-101.461 144.803,-101.408 Q144.856,-101.355 144.803,-101.302 Z" fill="#FF4500" fill-opacity="0.8" stroke="none"/>
  <path d="M143.817,-97.028 L144.097,-97.308 Q144.150,-97.361 144.203,-97.308 Q144.256,-97.255 144.203,-97.202 L143.923,-96.922 Q143.870,-96.869 143.817,-96.922 Q143.764,-96.975 143.817,-97.028 Z" fill="#FF4500" fill-opacity="0.8" stroke="none"/>
  <path d="M139.253,-113.124 L139.436,-112.941 Q139.489,-112.888 139.436,-112.835 Q139.383,-112.782 139.330,-112.835 L139.147,-113.018 Q139.094,-113.071 139.147,-113.124 Q139.200,-113.177 139.253,-113.124 Z" fill="#FF4500" fill-opacity="0.8" stroke="none"/>
  <path d="M144.027,-103.672 L143.997,-103.702 Q143.944,-103.755 143.997,-103.808 Q144.050,-103.861 144.103,-103.808 L144.133,-103.778 Q144.186,-103.725 144.133,-103.672 Q144.080,-103.619 144.027,-103.672 Z" fill="#FF4500" fill-opacity="0.8" stroke="none"/>
  <path d="M144.003,-94.508 L144.503,-94.008 Q144.556,-93.955 144.503,-93.902 Q144.450,-93.849 144.397,-93.902 L143.897,-94.402 Q143.844,-94.455 143.897,-94.508 Q143.950,-94.561 144.003,-94.508 Z" fill="#FF4500" fill-opacity="0.8" stroke="none"/>
  <path d="M144.325,-100.855 L144.325,-100.365 Q144.325,-100.290 144.250,-100.290 Q144.175,-100.290 144.175,-100.365 L144.175,-100.855 Q144.175,-100.930 144.250,-100.930 Q144.325,-100.930 144.325,-100.855 Z" fill="#FF4500" fill-opacity="0.8" stroke="none"/>
  <path d="M135.275,-116.235 L135.275,-117.355 Q135.275,-117.430 135.350,-117.430 Q135.425,-117.430 135.425,-117.355 L135.425,-116.235 Q135.425,-116.160 135.350,-116.160 Q135.275,-116.160 135.275,-116.235 Z" fill="#FF4500" fill-opacity="0.8" stroke="none"/>
  <path d="M145.298,-115.025 L145.095,-115.025 Q145.020,-115.025 145.020,-115.100 Q145.020,-115.175 145.095,-115.175 L145.298,-115.175 Q145.372,-115.175 145.372,-115.100 Q145.372,-115.025 145.298,-115.025 Z" fill="#FF4500" fill-opacity="0.8" stroke="none"/>
  <path d="M136.450,-94.805 L136.850,-94.805 Q137.000,-94.805 137.000,-94.655 Q137.000,-94.505 136.850,-94.505 L136.450,-94.505 Q136.300,-94.505 136.300,-94.655 Q136.300,-94.805 136.450,-94.805 Z" fill="#FF4500" fill-opacity="0.8" stroke="none"/>
  <path d="M139.275,-113.905 L139.275,-113.071 Q139.275,-112.996 139.200,-112.996 Q139.125,-112.996 139.125,-113.071 L139.125,-113.905 Q139.125,-113.980 139.200,-113.980 Q139.275,-113.980 139.275,-113.905 Z" fill="#FF4500" fill-opacity="0.8" stroke="none"/>
  <path d="M142.350,-97.050 L143.870,-97.050 Q143.945,-97.050 143.945,-96.975 Q143.945,-96.900 143.870,-96.900 L142.350,-96.900 Q142.275,-96.900 142.275,-96.975 Q142.275,-97.050 142.350,-97.050 Z" fill="#FF4500" fill-opacity="0.8" stroke="none"/>
  <path d="M136.803,-101.708 L136.983,-101.528 Q137.036,-101.475 136.983,-101.422 Q136.930,-101.369 136.877,-101.422 L136.697,-101.602 Q136.644,-101.655 136.697,-101.708 Q136.750,-101.761 136.803,-101.708 Z" fill="#FF4500" fill-opacity="0.8" stroke="none"/>
  <path d="M141.125,-93.192 L141.125,-93.705 Q141.125,-93.780 141.200,-93.780 Q141.275,-93.780 141.275,-93.705 L141.275,-93.192 Q141.275,-93.118 141.200,-93.118 Q141.125,-93.118 141.125,-93.192 Z" fill="#FF4500" fill-opacity="0.8" stroke="none"/>
  <path d="M136.930,-101.550 L137.750,-101.550 Q137.825,-101.550 137.825,-101.475 Q137.825,-101.400 137.750,-101.400 L136.930,-101.400 Q136.855,-101.400 136.855,-101.475 Q136.855,-101.550 136.930,-101.550 Z" fill="#FF4500" fill-opacity="0.8" stroke="none"/>
  <path d="M135.950,-94.305 L135.950,-93.908 Q135.950,-93.757 135.800,-93.757 Q135.650,-93.757 135.650,-93.908 L135.650,-94.305 Q135.650,-94.455 135.800,-94.455 Q135.950,-94.455 135.950,-94.305 Z" fill="#FF4500" fill-opacity="0.8" stroke="none"/>
  <path d="M137.803,-101.508 L138.303,-101.008 Q138.356,-100.955 138.303,-100.902 Q138.250,-100.849 138.197,-100.902 L137.697,-101.402 Q137.644,-101.455 137.697,-101.508 Q137.750,-101.561 137.803,-101.508 Z" fill="#FF4500" fill-opacity="0.8" stroke="none"/>
  <path d="M144.725,-114.655 L144.725,-114.540 Q144.725,-114.465 144.650,-114.465 Q144.575,-114.465 144.575,-114.540 L144.575,-114.655 Q144.575,-114.730 144.650,-114.730 Q144.725,-114.730 144.725,-114.655 Z" fill="#FF4500" fill-opacity="0.8" stroke="none"/>
  <path d="M144.825,-101.455 L144.825,-101.355 Q144.825,-101.280 144.750,-101.280 Q144.675,-101.280 144.675,-101.355 L144.675,-101.455 Q144.675,-101.530 144.750,-101.530 Q144.825,-101.530 144.825,-101.455 Z" fill="#FF4500" fill-opacity="0.8" stroke="none"/>
  <path d="M144.750,-103.650 L144.080,-103.650 Q144.005,-103.650 144.005,-103.725 Q144.005,-103.800 144.080,-103.800 L144.750,-103.800 Q144.825,-103.800 144.825,-103.725 Q144.825,-103.650 144.750,-103.650 Z" fill="#FF4500" fill-opacity="0.8" stroke="none"/>
  <path d="M139.750,-101.400 L138.750,-101.400 Q138.675,-101.400 138.675,-101.475 Q138.675,-101.550 138.750,-101.550 L139.750,-101.550 Q139.825,-101.550 139.825,-101.475 Q139.825,-101.400 139.750,-101.400 Z" fill="#FF4500" fill-opacity="0.8" stroke="none"/>
  <path d="M134.450,-95.980 L138.550,-95.980 Q138.625,-95.980 138.625,-95.905 Q138.625,-95.830 138.550,-95.830 L134.450,-95.830 Q134.375,-95.830 134.375,-95.905 Q134.375,-95.980 134.450,-95.980 Z" fill="#FF4500" fill-opacity="0.8" stroke="none"/>
  <path d="M134.325,-99.225 L134.325,-98.955 Q134.325,-98.880 134.250,-98.880 Q134.175,-98.880 134.175,-98.955 L134.175,-99.225 Q134.175,-99.300 134.250,-99.300 Q134.325,-99.300 134.325,-99.225 Z" fill="#FF4500" fill-opacity="0.8" stroke="none"/>
  <path d="M142.425,-96.975 L142.425,-96.355 Q142.425,-96.280 142.350,-96.280 Q142.275,-96.280 142.275,-96.355 L142.275,-96.975 Q142.275,-97.050 142.350,-97.050 Q142.425,-97.050 142.425,-96.975 Z" fill="#FF4500" fill-opacity="0.8" stroke="none"/>
  <path d="M134.187,-108.978 L134.217,-109.008 Q134.270,-109.061 134.323,-109.008 Q134.376,-108.955 134.323,-108.902 L134.293,-108.872 Q134.240,-108.819 134.187,-108.872 Q134.134,-108.925 134.187,-108.978 Z" fill="#FF4500" fill-opacity="0.8" stroke="none"/>
  <path d="M136.275,-116.235 L136.275,-116.355 Q136.275,-116.430 136.350,-116.430 Q136.425,-116.430 136.425,-116.355 L136.425,-116.235 Q136.425,-116.160 136.350,-116.160 Q136.275,-116.160 136.275,-116.235 Z" fill="#FF4500" fill-opacity="0.8" stroke="none"/>
  <path d="M144.025,-94.475 L144.025,-94.455 Q144.025,-94.380 143.950,-94.380 Q143.875,-94.380 143.875,-94.455 L143.875,-94.475 Q143.875,-94.550 143.950,-94.550 Q144.025,-94.550 144.025,-94.475 Z" fill="#FF4500" fill-opacity="0.8" stroke="none"/>
  <path d="M143.803,-101.408 L144.303,-100.908 Q144.356,-100.855 144.303,-100.802 Q144.250,-100.749 144.197,-100.802 L143.697,-101.302 Q143.644,-101.355 143.697,-101.408 Q143.750,-101.461 143.803,-101.408 Z" fill="#FF4500" fill-opacity="0.8" stroke="none"/>
  <path d="M135.320,-103.650 L135.250,-103.650 Q135.175,-103.650 135.175,-103.725 Q135.175,-103.800 135.250,-103.800 L135.320,-103.800 Q135.395,-103.800 135.395,-103.725 Q135.395,-103.650 135.320,-103.650 Z" fill="#FF4500" fill-opacity="0.8" stroke="none"/>
  <path d="M143.825,-101.455 L143.825,-101.355 Q143.825,-101.280 143.750,-101.280 Q143.675,-101.280 143.675,-101.355 L143.675,-101.455 Q143.675,-101.530 143.750,-101.530 Q143.825,-101.530 143.825,-101.455 Z" fill="#FF4500" fill-opacity="0.8" stroke="none"/>
  <path d="M138.497,-95.802 L137.697,-96.602 Q137.644,-96.655 137.697,-96.708 Q137.750,-96.761 137.803,-96.708 L138.603,-95.908 Q138.656,-95.855 138.603,-95.802 Q138.550,-95.749 138.497,-95.802 Z" fill="#FF4500" fill-opacity="0.8" stroke="none"/>
  <path d="M138.825,-101.475 L138.825,-101.455 Q138.825,-101.380 138.750,-101.380 Q138.675,-101.380 138.675,-101.455 L138.675,-101.475 Q138.675,-101.550 138.750,-101.550 Q138.825,-101.550 138.825,-101.475 Z" fill="#FF4500" fill-opacity="0.8" stroke="none"/>
  <path d="M137.803,-116.902 L137.503,-116.602 Q137.450,-116.549 137.397,-116.602 Q137.344,-116.655 137.397,-116.708 L137.697,-117.008 Q137.750,-117.061 137.803,-117.008 Q137.856,-116.955 137.803,-116.902 Z" fill="#FF4500" fill-opacity="0.8" stroke="none"/>
  <path d="M135.950,-103.780 L135.450,-103.780 Q135.375,-103.780 135.375,-103.855 Q135.375,-103.930 135.450,-103.930 L135.950,-103.930 Q136.025,-103.930 136.025,-103.855 Q136.025,-103.780 135.950,-103.780 Z" fill="#FF4500" fill-opacity="0.8" stroke="none"/>
  <path d="M134.275,-116.225 L134.275,-116.355 Q134.275,-116.430 134.350,-116.430 Q134.425,-116.430 134.425,-116.355 L134.425,-116.225 Q134.425,-116.150 134.350,-116.150 Q134.275,-116.150 134.275,-116.225 Z" fill="#FF4500" fill-opacity="0.8" stroke="none"/>
  <path d="M134.165,-107.955 L134.165,-108.925 Q134.165,-109.000 134.240,-109.000 Q134.315,-109.000 134.315,-108.925 L134.315,-107.955 Q134.315,-107.880 134.240,-107.880 Q134.165,-107.880 134.165,-107.955 Z" fill="#FF4500" fill-opacity="0.8" stroke="none"/>
  <path d="M138.947,-112.052 L138.697,-112.302 Q138.644,-112.355 138.697,-112.408 Q138.750,-112.461 138.803,-112.408 L139.053,-112.158 Q139.106,-112.105 139.053,-112.052 Q139.000,-111.999 138.947,-112.052 Z" fill="#FF4500" fill-opacity="0.8" stroke="none"/>
  <path d="M140.447,-114.652 L140.097,-115.002 Q140.044,-115.055 140.097,-115.108 Q140.150,-115.161 140.203,-115.108 L140.553,-114.758 Q140.606,-114.705 140.553,-114.652 Q140.500,-114.599 140.447,-114.652 Z" fill="#FF4500" fill-opacity="0.8" stroke="none"/>
  <path d="M140.425,-114.435 L140.425,-114.705 Q140.425,-114.780 140.500,-114.780 Q140.575,-114.780 140.575,-114.705 L140.575,-114.435 Q140.575,-114.360 140.500,-114.360 Q140.425,-114.360 140.425,-114.435 Z" fill="#FF4500" fill-opacity="0.8" stroke="none"/>
  <path d="M142.103,-99.002 L141.803,-98.702 Q141.750,-98.649 141.697,-98.702 Q141.644,-98.755 141.697,-98.808 L141.997,-99.108 Q142.050,-99.161 142.103,-99.108 Q142.156,-99.055 142.103,-99.002 Z" fill="#FF4500" fill-opacity="0.8" stroke="none"/>
  <path d="M138.070,-116.880 L137.750,-116.880 Q137.675,-116.880 137.675,-116.955 Q137.675,-117.030 137.750,-117.030 L138.070,-117.030 Q138.145,-117.030 138.145,-116.955 Q138.145,-116.880 138.070,-116.880 Z" fill="#FF4500" fill-opacity="0.8" stroke="none"/>
  <path d="M141.125,-92.423 L141.125,-93.192 Q141.125,-93.267 141.200,-93.267 Q141.275,-93.267 141.275,-93.192 L141.275,-92.423 Q141.275,-92.348 141.200,-92.348 Q141.125,-92.348 141.125,-92.423 Z" fill="#FF4500" fill-opacity="0.8" stroke="none"/>
  <path d="M146.050,-109.547 L145.783,-109.280 Q145.730,-109.227 145.677,-109.280 Q145.624,-109.333 145.677,-109.386 L145.944,-109.653 Q145.997,-109.706 146.050,-109.653 Q146.103,-109.600 146.050,-109.547 Z" fill="#FF4500" fill-opacity="0.8" stroke="none"/>
  <path d="M134.217,-109.274 L134.574,-109.631 Q134.627,-109.684 134.680,-109.631 Q134.733,-109.578 134.680,-109.525 L134.323,-109.168 Q134.270,-109.115 134.217,-109.168 Q134.164,-109.221 134.217,-109.274 Z" fill="#FF4500" fill-opacity="0.8" stroke="none"/>
  <path d="M135.503,-103.802 L135.373,-103.672 Q135.320,-103.619 135.267,-103.672 Q135.214,-103.725 135.267,-103.778 L135.397,-103.908 Q135.450,-103.961 135.503,-103.908 Q135.556,-103.855 135.503,-103.802 Z" fill="#FF4500" fill-opacity="0.8" stroke="none"/>
  <path d="M144.875,-98.143 L144.875,-97.905 Q144.875,-97.830 144.800,-97.830 Q144.725,-97.830 144.725,-97.905 L144.725,-98.143 Q144.725,-98.217 144.800,-98.217 Q144.875,-98.217 144.875,-98.143 Z" fill="#FF4500" fill-opacity="0.8" stroke="none"/>
  <path d="M134.303,-99.008 L134.603,-98.708 Q134.656,-98.655 134.603,-98.602 Q134.550,-98.549 134.497,-98.602 L134.197,-98.902 Q134.144,-98.955 134.197,-99.008 Q134.250,-99.061 134.303,-99.008 Z" fill="#FF4500" fill-opacity="0.8" stroke="none"/>
  <path d="M144.853,-97.852 L144.203,-97.202 Q144.150,-97.149 144.097,-97.202 Q144.044,-97.255 144.097,-97.308 L144.747,-97.958 Q144.800,-98.011 144.853,-97.958 Q144.906,-97.905 144.853,-97.852 Z" fill="#FF4500" fill-opacity="0.8" stroke="none"/>
  <path d="M142.750,-101.530 L143.750,-101.530 Q143.825,-101.530 143.825,-101.455 Q143.825,-101.380 143.750,-101.380 L142.750,-101.380 Q142.675,-101.380 142.675,-101.455 Q142.675,-101.530 142.750,-101.530 Z" fill="#FF4500" fill-opacity="0.8" stroke="none"/>
  <path d="M142.125,-99.370 L142.125,-99.055 Q142.125,-98.980 142.050,-98.980 Q141.975,-98.980 141.975,-99.055 L141.975,-99.370 Q141.975,-99.445 142.050,-99.445 Q142.125,-99.445 142.125,-99.370 Z" fill="#FF4500" fill-opacity="0.8" stroke="none"/>
  <path d="M141.500,-114.360 L140.500,-114.360 Q140.425,-114.360 140.425,-114.435 Q140.425,-114.510 140.500,-114.510 L141.500,-114.510 Q141.575,-114.510 141.575,-114.435 Q141.575,-114.360 141.500,-114.360 Z" fill="#FF4500" fill-opacity="0.8" stroke="none"/>
  <path d="M134.297,-116.408 L135.297,-117.408 Q135.350,-117.461 135.403,-117.408 Q135.456,-117.355 135.403,-117.302 L134.403,-116.302 Q134.350,-116.249 134.297,-116.302 Q134.244,-116.355 134.297,-116.408 Z" fill="#FF4500" fill-opacity="0.8" stroke="none"/>
  <path d="M145.148,-115.047 L144.703,-114.602 Q144.650,-114.549 144.597,-114.602 Q144.544,-114.655 144.597,-114.708 L145.042,-115.153 Q145.095,-115.206 145.148,-115.153 Q145.201,-115.100 145.148,-115.047 Z" fill="#FF4500" fill-opacity="0.8" stroke="none"/>
  <path d="M137.250,-94.107 L137.250,-94.180 Q137.250,-94.255 137.325,-94.255 Q137.400,-94.255 137.400,-94.180 L137.400,-94.107 Q137.400,-94.033 137.325,-94.033 Q137.250,-94.033 137.250,-94.107 Z" fill="#FF4500" fill-opacity="0.8" stroke="none"/>
  <path d="M134.195,-108.955 L134.195,-109.221 Q134.195,-109.296 134.270,-109.296 Q134.345,-109.296 134.345,-109.221 L134.345,-108.955 Q134.345,-108.880 134.270,-108.880 Q134.195,-108.880 134.195,-108.955 Z" fill="#FF4500" fill-opacity="0.8" stroke="none"/>
  <path d="M141.147,-93.758 L141.297,-93.908 Q141.350,-93.961 141.403,-93.908 Q141.456,-93.855 141.403,-93.802 L141.253,-93.652 Q141.200,-93.599 141.147,-93.652 Q141.094,-93.705 141.147,-93.758 Z" fill="#FF4500" fill-opacity="0.8" stroke="none"/>
  <path d="M145.725,-114.950 L145.725,-114.540 Q145.725,-114.465 145.650,-114.465 Q145.575,-114.465 145.575,-114.540 L145.575,-114.950 Q145.575,-115.025 145.650,-115.025 Q145.725,-115.025 145.725,-114.950 Z" fill="#FF4500" fill-opacity="0.8" stroke="none"/>
  <path d="M136.256,-94.549 L135.906,-94.199 Q135.800,-94.093 135.694,-94.199 Q135.588,-94.305 135.694,-94.411 L136.044,-94.761 Q136.150,-94.867 136.256,-94.761 Q136.362,-94.655 136.256,-94.549 Z" fill="#FF4500" fill-opacity="0.8" stroke="none"/>
  <path d="M145.553,-115.153 L145.703,-115.003 Q145.756,-114.950 145.703,-114.897 Q145.650,-114.844 145.597,-114.897 L145.447,-115.047 Q145.394,-115.100 145.447,-115.153 Q145.500,-115.206 145.553,-115.153 Z" fill="#FF4500" fill-opacity="0.8" stroke="none"/>
  <path d="M136.825,-102.130 L136.825,-101.655 Q136.825,-101.580 136.750,-101.580 Q136.675,-101.580 136.675,-101.655 L136.675,-102.130 Q136.675,-102.205 136.750,-102.205 Q136.825,-102.205 136.825,-102.130 Z" fill="#FF4500" fill-opacity="0.8" stroke="none"/>
  <path d="M146.097,-109.525 L145.997,-109.525 Q145.922,-109.525 145.922,-109.600 Q145.922,-109.675 145.997,-109.675 L146.097,-109.675 Q146.172,-109.675 146.172,-109.600 Q146.172,-109.525 146.097,-109.525 Z" fill="#FF4500" fill-opacity="0.8" stroke="none"/>
  <path d="M144.303,-100.312 L143.993,-100.002 Q143.940,-99.949 143.887,-100.002 Q143.834,-100.055 143.887,-100.108 L144.197,-100.418 Q144.250,-100.471 144.303,-100.418 Q144.356,-100.365 144.303,-100.312 Z" fill="#FF4500" fill-opacity="0.8" stroke="none"/>
  <path d="M142.500,-114.360 L141.500,-114.360 Q141.425,-114.360 141.425,-114.435 Q141.425,-114.510 141.500,-114.510 L142.500,-114.510 Q142.575,-114.510 142.575,-114.435 Q142.575,-114.360 142.500,-114.360 Z" fill="#FF4500" fill-opacity="0.8" stroke="none"/>
  <path d="M136.450,-94.505 L136.150,-94.505 Q136.000,-94.505 136.000,-94.655 Q136.000,-94.805 136.150,-94.805 L136.450,-94.805 Q136.600,-94.805 136.600,-94.655 Q136.600,-94.505 136.450,-94.505 Z" fill="#FF4500" fill-opacity="0.8" stroke="none"/>
  <path d="M138.925,-111.438 L138.925,-112.105 Q138.925,-112.180 139.000,-112.180 Q139.075,-112.180 139.075,-112.105 L139.075,-111.438 Q139.075,-111.363 139.000,-111.363 Q138.925,-111.363 138.925,-111.438 Z" fill="#FF4500" fill-opacity="0.8" stroke="none"/>
  <path d="M145.805,-109.333 L145.805,-108.955 Q145.805,-108.880 145.730,-108.880 Q145.655,-108.880 145.655,-108.955 L145.655,-109.333 Q145.655,-109.408 145.730,-109.408 Q145.805,-109.408 145.805,-109.333 Z" fill="#FF4500" fill-opacity="0.8" stroke="none"/>
  <path d="M145.298,-115.175 L145.500,-115.175 Q145.575,-115.175 145.575,-115.100 Q145.575,-115.025 145.500,-115.025 L145.298,-115.025 Q145.223,-115.025 145.223,-115.100 Q145.223,-115.175 145.298,-115.175 Z" fill="#FF4500" fill-opacity="0.8" stroke="none"/>
  <path d="M136.956,-94.761 L137.431,-94.286 Q137.537,-94.180 137.431,-94.074 Q137.325,-93.968 137.219,-94.074 L136.744,-94.549 Q136.638,-94.655 136.744,-94.761 Q136.850,-94.867 136.956,-94.761 Z" fill="#FF4500" fill-opacity="0.8" stroke="none"/>
  <path d="M144.897,-95.412 L144.697,-95.612 Q144.644,-95.665 144.697,-95.718 Q144.750,-95.771 144.803,-95.718 L145.003,-95.518 Q145.056,-95.465 145.003,-95.412 Q144.950,-95.359 144.897,-95.412 Z" fill="#FF4500" fill-opacity="0.8" stroke="none"/>
  <path d="M144.697,-96.371 L144.747,-96.421 Q144.800,-96.474 144.853,-96.421 Q144.906,-96.368 144.853,-96.314 L144.803,-96.264 Q144.750,-96.211 144.697,-96.264 Q144.644,-96.317 144.697,-96.371 Z" fill="#FF4500" fill-opacity="0.8" stroke="none"/>
  <path d="M144.675,-95.665 L144.675,-96.317 Q144.675,-96.392 144.750,-96.392 Q144.825,-96.392 144.825,-96.317 L144.825,-95.665 Q144.825,-95.590 144.750,-95.590 Q144.675,-95.590 144.675,-95.665 Z" fill="#FF4500" fill-opacity="0.8" stroke="none"/>
  <path d="M144.075,-98.143 L144.075,-98.270 Q144.075,-98.345 144.150,-98.345 Q144.225,-98.345 144.225,-98.270 L144.225,-98.143 Q144.225,-98.068 144.150,-98.068 Q144.075,-98.068 144.075,-98.143 Z" fill="#FF4500" fill-opacity="0.8" stroke="none"/>
  <path d="M144.097,-98.323 L144.907,-99.133 Q144.960,-99.186 145.013,-99.133 Q145.066,-99.080 145.013,-99.027 L144.203,-98.217 Q144.150,-98.164 144.097,-98.217 Q144.044,-98.270 144.097,-98.323 Z" fill="#FF4500" fill-opacity="0.8" stroke="none"/>
  <path d="M144.885,-99.080 L144.885,-100.055 Q144.885,-100.130 144.960,-100.130 Q145.035,-100.130 145.035,-100.055 L145.035,-99.080 Q145.035,-99.005 144.960,-99.005 Q144.885,-99.005 144.885,-99.080 Z" fill="#FF4500" fill-opacity="0.8" stroke="none"/>
  <path d="M142.525,-111.438 L142.525,-111.805 Q142.525,-111.880 142.600,-111.880 Q142.675,-111.880 142.675,-111.805 L142.675,-111.438 Q142.675,-111.363 142.600,-111.363 Q142.525,-111.363 142.525,-111.438 Z" fill="#FF4500" fill-opacity="0.8" stroke="none"/>
  <path d="M142.547,-111.858 L142.697,-112.008 Q142.750,-112.061 142.803,-112.008 Q142.856,-111.955 142.803,-111.902 L142.653,-111.752 Q142.600,-111.699 142.547,-111.752 Q142.494,-111.805 142.547,-111.858 Z" fill="#FF4500" fill-opacity="0.8" stroke="none"/>
  <path d="M142.750,-112.030 L143.050,-112.030 Q143.125,-112.030 143.125,-111.955 Q143.125,-111.880 143.050,-111.880 L142.750,-111.880 Q142.675,-111.880 142.675,-111.955 Q142.675,-112.030 142.750,-112.030 Z" fill="#FF4500" fill-opacity="0.8" stroke="none"/>
  <path d="M145.101,-111.202 L145.597,-111.698 Q145.650,-111.751 145.703,-111.698 Q145.756,-111.645 145.703,-111.592 L145.207,-111.096 Q145.154,-111.043 145.101,-111.096 Q145.048,-111.149 145.101,-111.202 Z" fill="#FF4500" fill-opacity="0.8" stroke="none"/>
  <path d="M143.856,-111.224 L145.154,-111.224 Q145.229,-111.224 145.229,-111.149 Q145.229,-111.074 145.154,-111.074 L143.856,-111.074 Q143.781,-111.074 143.781,-111.149 Q143.781,-111.224 143.856,-111.224 Z" fill="#FF4500" fill-opacity="0.8" stroke="none"/>
  <path d="M143.103,-112.008 L143.909,-111.202 Q143.962,-111.149 143.909,-111.096 Q143.856,-111.043 143.803,-111.096 L142.997,-111.902 Q142.944,-111.955 142.997,-112.008 Q143.050,-112.061 143.103,-112.008 Z" fill="#FF4500" fill-opacity="0.8" stroke="none"/>
  <path d="M145.575,-112.665 L145.575,-113.570 Q145.575,-113.645 145.650,-113.645 Q145.725,-113.645 145.725,-113.570 L145.725,-112.665 Q145.725,-112.590 145.650,-112.590 Q145.575,-112.590 145.575,-112.665 Z" fill="#FF4500" fill-opacity="0.8" stroke="none"/>
  <path d="M143.228,-112.309 L143.839,-111.698 Q143.892,-111.645 143.839,-111.592 Q143.786,-111.539 143.733,-111.592 L143.122,-112.203 Q143.069,-112.256 143.122,-112.309 Q143.175,-112.362 143.228,-112.309 Z" fill="#FF4500" fill-opacity="0.8" stroke="none"/>
  <path d="M142.125,-111.438 L142.125,-111.875 Q142.125,-111.950 142.200,-111.950 Q142.275,-111.950 142.275,-111.875 L142.275,-111.438 Q142.275,-111.363 142.200,-111.363 Q142.125,-111.363 142.125,-111.438 Z" fill="#FF4500" fill-opacity="0.8" stroke="none"/>
  <path d="M142.581,-112.331 L143.175,-112.331 Q143.250,-112.331 143.250,-112.256 Q143.250,-112.181 143.175,-112.181 L142.581,-112.181 Q142.506,-112.181 142.506,-112.256 Q142.506,-112.331 142.581,-112.331 Z" fill="#FF4500" fill-opacity="0.8" stroke="none"/>
  <path d="M143.786,-111.720 L144.650,-111.720 Q144.725,-111.720 144.725,-111.645 Q144.725,-111.570 144.650,-111.570 L143.786,-111.570 Q143.711,-111.570 143.711,-111.645 Q143.711,-111.720 143.786,-111.720 Z" fill="#FF4500" fill-opacity="0.8" stroke="none"/>
  <path d="M142.147,-111.928 L142.528,-112.309 Q142.581,-112.362 142.634,-112.309 Q142.687,-112.256 142.634,-112.203 L142.253,-111.822 Q142.200,-111.769 142.147,-111.822 Q142.094,-111.875 142.147,-111.928 Z" fill="#FF4500" fill-opacity="0.8" stroke="none"/>
  <path d="M144.575,-112.665 L144.575,-113.570 Q144.575,-113.645 144.650,-113.645 Q144.725,-113.645 144.725,-113.570 L144.725,-112.665 Q144.725,-112.590 144.650,-112.590 Q144.575,-112.590 144.575,-112.665 Z" fill="#FF4500" fill-opacity="0.8" stroke="none"/>
  <path d="M136.403,-113.393 L137.088,-112.708 Q137.141,-112.655 137.088,-112.602 Q137.035,-112.549 136.982,-112.602 L136.297,-113.287 Q136.244,-113.340 136.297,-113.393 Q136.350,-113.446 136.403,-113.393 Z" fill="#FF4500" fill-opacity="0.8" stroke="none"/>
  <path d="M137.903,-112.708 L138.653,-111.958 Q138.706,-111.905 138.653,-111.852 Q138.600,-111.799 138.547,-111.852 L137.797,-112.602 Q137.744,-112.655 137.797,-112.708 Q137.850,-112.761 137.903,-112.708 Z" fill="#FF4500" fill-opacity="0.8" stroke="none"/>
  <path d="M138.675,-111.905 L138.675,-111.438 Q138.675,-111.363 138.600,-111.363 Q138.525,-111.363 138.525,-111.438 L138.525,-111.905 Q138.525,-111.980 138.600,-111.980 Q138.675,-111.980 138.675,-111.905 Z" fill="#FF4500" fill-opacity="0.8" stroke="none"/>
  <path d="M137.035,-112.730 L137.850,-112.730 Q137.925,-112.730 137.925,-112.655 Q137.925,-112.580 137.850,-112.580 L137.035,-112.580 Q136.960,-112.580 136.960,-112.655 Q136.960,-112.730 137.035,-112.730 Z" fill="#FF4500" fill-opacity="0.8" stroke="none"/>
  <path d="M136.275,-114.360 L136.275,-115.265 Q136.275,-115.340 136.350,-115.340 Q136.425,-115.340 136.425,-115.265 L136.425,-114.360 Q136.425,-114.285 136.350,-114.285 Q136.275,-114.285 136.275,-114.360 Z" fill="#FF4500" fill-opacity="0.8" stroke="none"/>
  <path d="M138.147,-111.826 L137.672,-112.301 Q137.619,-112.354 137.672,-112.407 Q137.725,-112.460 137.778,-112.407 L138.253,-111.932 Q138.306,-111.879 138.253,-111.826 Q138.200,-111.773 138.147,-111.826 Z" fill="#FF4500" fill-opacity="0.8" stroke="none"/>
  <path d="M136.283,-112.301 L135.297,-113.287 Q135.244,-113.340 135.297,-113.393 Q135.350,-113.446 135.403,-113.393 L136.389,-112.407 Q136.442,-112.354 136.389,-112.301 Q136.336,-112.248 136.283,-112.301 Z" fill="#FF4500" fill-opacity="0.8" stroke="none"/>
  <path d="M137.725,-112.279 L136.336,-112.279 Q136.261,-112.279 136.261,-112.354 Q136.261,-112.429 136.336,-112.429 L137.725,-112.429 Q137.800,-112.429 137.800,-112.354 Q137.800,-112.279 137.725,-112.279 Z" fill="#FF4500" fill-opacity="0.8" stroke="none"/>
  <path d="M138.125,-111.438 L138.125,-111.879 Q138.125,-111.954 138.200,-111.954 Q138.275,-111.954 138.275,-111.879 L138.275,-111.438 Q138.275,-111.363 138.200,-111.363 Q138.125,-111.363 138.125,-111.438 Z" fill="#FF4500" fill-opacity="0.8" stroke="none"/>
  <path d="M135.275,-114.360 L135.275,-115.265 Q135.275,-115.340 135.350,-115.340 Q135.425,-115.340 135.425,-115.265 L135.425,-114.360 Q135.425,-114.285 135.350,-114.285 Q135.275,-114.285 135.275,-114.360 Z" fill="#FF4500" fill-opacity="0.8" stroke="none"/>
  <path d="M137.250,-111.978 L135.627,-111.978 Q135.552,-111.978 135.552,-112.053 Q135.552,-112.128 135.627,-112.128 L137.250,-112.128 Q137.325,-112.128 137.325,-112.053 Q137.325,-111.978 137.250,-111.978 Z" fill="#FF4500" fill-opacity="0.8" stroke="none"/>
  <path d="M137.347,-111.850 L137.197,-112.000 Q137.144,-112.053 137.197,-112.106 Q137.250,-112.159 137.303,-112.106 L137.453,-111.956 Q137.506,-111.903 137.453,-111.850 Q137.400,-111.797 137.347,-111.850 Z" fill="#FF4500" fill-opacity="0.8" stroke="none"/>
  <path d="M137.325,-111.438 L137.325,-111.903 Q137.325,-111.978 137.400,-111.978 Q137.475,-111.978 137.475,-111.903 L137.475,-111.438 Q137.475,-111.363 137.400,-111.363 Q137.325,-111.363 137.325,-111.438 Z" fill="#FF4500" fill-opacity="0.8" stroke="none"/>
  <path d="M135.574,-112.000 L134.297,-113.277 Q134.244,-113.330 134.297,-113.383 Q134.350,-113.436 134.403,-113.383 L135.680,-112.106 Q135.733,-112.053 135.680,-112.000 Q135.627,-111.947 135.574,-112.000 Z" fill="#FF4500" fill-opacity="0.8" stroke="none"/>
  <path d="M134.275,-114.350 L134.275,-115.255 Q134.275,-115.330 134.350,-115.330 Q134.425,-115.330 134.425,-115.255 L134.425,-114.350 Q134.425,-114.275 134.350,-114.275 Q134.275,-114.275 134.275,-114.350 Z" fill="#FF4500" fill-opacity="0.8" stroke="none"/>
  <path d="M142.128,-100.312 L142.103,-100.287 Q142.050,-100.234 141.997,-100.287 Q141.944,-100.340 141.997,-100.393 L142.022,-100.418 Q142.075,-100.471 142.128,-100.418 Q142.181,-100.365 142.128,-100.312 Z" fill="#FF4500" fill-opacity="0.8" stroke="none"/>
  <path d="M143.050,-100.290 L142.075,-100.290 Q142.000,-100.290 142.000,-100.365 Q142.000,-100.440 142.075,-100.440 L143.050,-100.440 Q143.125,-100.440 143.125,-100.365 Q143.125,-100.290 143.050,-100.290 Z" fill="#FF4500" fill-opacity="0.8" stroke="none"/>
  <path d="M137.840,-105.400 L138.667,-105.400 Q138.742,-105.400 138.742,-105.325 Q138.742,-105.250 138.667,-105.250 L137.840,-105.250 Q137.765,-105.250 137.765,-105.325 Q137.765,-105.400 137.840,-105.400 Z" fill="#FF4500" fill-opacity="0.8" stroke="none"/>
  <path d="M139.075,-104.992 L139.075,-104.562 Q139.075,-104.488 139.000,-104.488 Q138.925,-104.488 138.925,-104.562 L138.925,-104.992 Q138.925,-105.067 139.000,-105.067 Q139.075,-105.067 139.075,-104.992 Z" fill="#FF4500" fill-opacity="0.8" stroke="none"/>
  <path d="M136.175,-99.280 L136.175,-99.955 Q136.175,-100.030 136.250,-100.030 Q136.325,-100.030 136.325,-99.955 L136.325,-99.280 Q136.325,-99.205 136.250,-99.205 Q136.175,-99.205 136.175,-99.280 Z" fill="#FF4500" fill-opacity="0.8" stroke="none"/>
  <path d="M138.720,-105.378 L139.053,-105.045 Q139.106,-104.992 139.053,-104.939 Q139.000,-104.886 138.947,-104.939 L138.614,-105.272 Q138.561,-105.325 138.614,-105.378 Q138.667,-105.431 138.720,-105.378 Z" fill="#FF4500" fill-opacity="0.8" stroke="none"/>
  <path d="M136.197,-100.008 L136.297,-100.108 Q136.350,-100.161 136.403,-100.108 Q136.456,-100.055 136.403,-100.002 L136.303,-99.902 Q136.250,-99.849 136.197,-99.902 Q136.144,-99.955 136.197,-100.008 Z" fill="#FF4500" fill-opacity="0.8" stroke="none"/>
  <path d="M135.325,-102.555 L135.325,-102.130 Q135.325,-102.055 135.250,-102.055 Q135.175,-102.055 135.175,-102.130 L135.175,-102.555 Q135.175,-102.630 135.250,-102.630 Q135.325,-102.630 135.325,-102.555 Z" fill="#FF4500" fill-opacity="0.8" stroke="none"/>
  <path d="M134.843,-102.702 L134.303,-102.162 Q134.250,-102.109 134.197,-102.162 Q134.144,-102.215 134.197,-102.268 L134.737,-102.808 Q134.790,-102.861 134.843,-102.808 Q134.896,-102.755 134.843,-102.702 Z" fill="#FF4500" fill-opacity="0.8" stroke="none"/>
  <path d="M136.416,-103.615 L135.303,-102.502 Q135.250,-102.449 135.197,-102.502 Q135.144,-102.555 135.197,-102.608 L136.310,-103.721 Q136.363,-103.774 136.416,-103.721 Q136.469,-103.668 136.416,-103.615 Z" fill="#FF4500" fill-opacity="0.8" stroke="none"/>
  <path d="M133.725,-101.615 L133.725,-98.305 Q133.725,-98.230 133.650,-98.230 Q133.575,-98.230 133.575,-98.305 L133.575,-101.615 Q133.575,-101.690 133.650,-101.690 Q133.725,-101.690 133.725,-101.615 Z" fill="#FF4500" fill-opacity="0.8" stroke="none"/>
  <path d="M134.450,-97.580 L138.550,-97.580 Q138.625,-97.580 138.625,-97.505 Q138.625,-97.430 138.550,-97.430 L134.450,-97.430 Q134.375,-97.430 134.375,-97.505 Q134.375,-97.580 134.450,-97.580 Z" fill="#FF4500" fill-opacity="0.8" stroke="none"/>
  <path d="M135.150,-102.680 L134.790,-102.680 Q134.715,-102.680 134.715,-102.755 Q134.715,-102.830 134.790,-102.830 L135.150,-102.830 Q135.225,-102.830 135.225,-102.755 Q135.225,-102.680 135.150,-102.680 Z" fill="#FF4500" fill-opacity="0.8" stroke="none"/>
  <path d="M134.303,-102.162 L133.703,-101.562 Q133.650,-101.509 133.597,-101.562 Q133.544,-101.615 133.597,-101.668 L134.197,-102.268 Q134.250,-102.321 134.303,-102.268 Q134.356,-102.215 134.303,-102.162 Z" fill="#FF4500" fill-opacity="0.8" stroke="none"/>
  <path d="M135.175,-102.130 L135.175,-102.655 Q135.175,-102.730 135.250,-102.730 Q135.325,-102.730 135.325,-102.655 L135.325,-102.130 Q135.325,-102.055 135.250,-102.055 Q135.175,-102.055 135.175,-102.130 Z" fill="#FF4500" fill-opacity="0.8" stroke="none"/>
  <path d="M135.197,-102.602 L135.097,-102.702 Q135.044,-102.755 135.097,-102.808 Q135.150,-102.861 135.203,-102.808 L135.303,-102.708 Q135.356,-102.655 135.303,-102.602 Q135.250,-102.549 135.197,-102.602 Z" fill="#FF4500" fill-opacity="0.8" stroke="none"/>
  <path d="M133.703,-98.358 L134.503,-97.558 Q134.556,-97.505 134.503,-97.452 Q134.450,-97.399 134.397,-97.452 L133.597,-98.252 Q133.544,-98.305 133.597,-98.358 Q133.650,-98.411 133.703,-98.358 Z" fill="#FF4500" fill-opacity="0.8" stroke="none"/>
  <path d="M137.475,-104.562 L137.475,-104.031 Q137.475,-103.956 137.400,-103.956 Q137.325,-103.956 137.325,-104.031 L137.325,-104.562 Q137.325,-104.637 137.400,-104.637 Q137.475,-104.637 137.475,-104.562 Z" fill="#FF4500" fill-opacity="0.8" stroke="none"/>
  <path d="M137.037,-103.593 L136.363,-103.593 Q136.288,-103.593 136.288,-103.668 Q136.288,-103.743 136.363,-103.743 L137.037,-103.743 Q137.112,-103.743 137.112,-103.668 Q137.112,-103.593 137.037,-103.593 Z" fill="#FF4500" fill-opacity="0.8" stroke="none"/>
  <path d="M137.453,-103.978 L137.090,-103.615 Q137.037,-103.562 136.984,-103.615 Q136.931,-103.668 136.984,-103.721 L137.347,-104.084 Q137.400,-104.137 137.453,-104.084 Q137.506,-104.031 137.453,-103.978 Z" fill="#FF4500" fill-opacity="0.8" stroke="none"/>
  <path d="M138.653,-103.758 L138.803,-103.608 Q138.856,-103.555 138.803,-103.502 Q138.750,-103.449 138.697,-103.502 L138.547,-103.652 Q138.494,-103.705 138.547,-103.758 Q138.600,-103.811 138.653,-103.758 Z" fill="#FF4500" fill-opacity="0.8" stroke="none"/>
  <path d="M136.903,-100.002 L136.803,-99.902 Q136.750,-99.849 136.697,-99.902 Q136.644,-99.955 136.697,-100.008 L136.797,-100.108 Q136.850,-100.161 136.903,-100.108 Q136.956,-100.055 136.903,-100.002 Z" fill="#FF4500" fill-opacity="0.8" stroke="none"/>
  <path d="M138.675,-104.562 L138.675,-103.705 Q138.675,-103.630 138.600,-103.630 Q138.525,-103.630 138.525,-103.705 L138.525,-104.562 Q138.525,-104.637 138.600,-104.637 Q138.675,-104.637 138.675,-104.562 Z" fill="#FF4500" fill-opacity="0.8" stroke="none"/>
  <path d="M136.825,-99.955 L136.825,-99.280 Q136.825,-99.205 136.750,-99.205 Q136.675,-99.205 136.675,-99.280 L136.675,-99.955 Q136.675,-100.030 136.750,-100.030 Q136.825,-100.030 136.825,-99.955 Z" fill="#FF4500" fill-opacity="0.8" stroke="none"/>
  <path d="M137.853,-103.952 L137.104,-103.203 Q137.051,-103.150 136.998,-103.203 Q136.945,-103.256 136.998,-103.309 L137.747,-104.058 Q137.800,-104.111 137.853,-104.058 Q137.906,-104.005 137.853,-103.952 Z" fill="#FF4500" fill-opacity="0.8" stroke="none"/>
  <path d="M135.825,-102.506 L135.825,-102.130 Q135.825,-102.055 135.750,-102.055 Q135.675,-102.055 135.675,-102.130 L135.675,-102.506 Q135.675,-102.581 135.750,-102.581 Q135.825,-102.581 135.825,-102.506 Z" fill="#FF4500" fill-opacity="0.8" stroke="none"/>
  <path d="M137.875,-104.562 L137.875,-104.005 Q137.875,-103.930 137.800,-103.930 Q137.725,-103.930 137.725,-104.005 L137.725,-104.562 Q137.725,-104.637 137.800,-104.637 Q137.875,-104.637 137.875,-104.562 Z" fill="#FF4500" fill-opacity="0.8" stroke="none"/>
  <path d="M137.051,-103.181 L136.500,-103.181 Q136.425,-103.181 136.425,-103.256 Q136.425,-103.331 136.500,-103.331 L137.051,-103.331 Q137.126,-103.331 137.126,-103.256 Q137.126,-103.181 137.051,-103.181 Z" fill="#FF4500" fill-opacity="0.8" stroke="none"/>
  <path d="M136.553,-103.203 L135.803,-102.453 Q135.750,-102.400 135.697,-102.453 Q135.644,-102.506 135.697,-102.559 L136.447,-103.309 Q136.500,-103.362 136.553,-103.309 Q136.606,-103.256 136.553,-103.203 Z" fill="#FF4500" fill-opacity="0.8" stroke="none"/>
  <path d="M136.625,-103.030 L137.350,-103.030 Q137.425,-103.030 137.425,-102.955 Q137.425,-102.880 137.350,-102.880 L136.625,-102.880 Q136.550,-102.880 136.550,-102.955 Q136.550,-103.030 136.625,-103.030 Z" fill="#FF4500" fill-opacity="0.8" stroke="none"/>
  <path d="M136.175,-102.130 L136.175,-102.580 Q136.175,-102.655 136.250,-102.655 Q136.325,-102.655 136.325,-102.580 L136.325,-102.130 Q136.325,-102.055 136.250,-102.055 Q136.175,-102.055 136.175,-102.130 Z" fill="#FF4500" fill-opacity="0.8" stroke="none"/>
  <path d="M137.297,-103.008 L138.147,-103.858 Q138.200,-103.911 138.253,-103.858 Q138.306,-103.805 138.253,-103.752 L137.403,-102.902 Q137.350,-102.849 137.297,-102.902 Q137.244,-102.955 137.297,-103.008 Z" fill="#FF4500" fill-opacity="0.8" stroke="none"/>
  <path d="M136.303,-101.748 L137.793,-100.258 Q137.846,-100.205 137.793,-100.152 Q137.740,-100.099 137.687,-100.152 L136.197,-101.642 Q136.144,-101.695 136.197,-101.748 Q136.250,-101.801 136.303,-101.748 Z" fill="#FF4500" fill-opacity="0.8" stroke="none"/>
  <path d="M138.125,-103.805 L138.125,-104.562 Q138.125,-104.637 138.200,-104.637 Q138.275,-104.637 138.275,-104.562 L138.275,-103.805 Q138.275,-103.730 138.200,-103.730 Q138.125,-103.730 138.125,-103.805 Z" fill="#FF4500" fill-opacity="0.8" stroke="none"/>
  <path d="M136.325,-102.130 L136.325,-101.695 Q136.325,-101.620 136.250,-101.620 Q136.175,-101.620 136.175,-101.695 L136.175,-102.130 Q136.175,-102.205 136.250,-102.205 Q136.325,-102.205 136.325,-102.130 Z" fill="#FF4500" fill-opacity="0.8" stroke="none"/>
  <path d="M136.197,-102.633 L136.572,-103.008 Q136.625,-103.061 136.678,-103.008 Q136.731,-102.955 136.678,-102.902 L136.303,-102.527 Q136.250,-102.474 136.197,-102.527 Q136.144,-102.580 136.197,-102.633 Z" fill="#FF4500" fill-opacity="0.8" stroke="none"/>
  <path d="M138.306,-105.830 L138.662,-105.830 Q138.737,-105.830 138.737,-105.755 Q138.737,-105.680 138.662,-105.680 L138.306,-105.680 Q138.231,-105.680 138.231,-105.755 Q138.231,-105.830 138.306,-105.830 Z" fill="#FF4500" fill-opacity="0.8" stroke="none"/>
  <path d="M135.999,-98.656 L137.116,-98.656 Q137.191,-98.656 137.191,-98.581 Q137.191,-98.506 137.116,-98.506 L135.999,-98.506 Q135.924,-98.506 135.924,-98.581 Q135.924,-98.656 135.999,-98.656 Z" fill="#FF4500" fill-opacity="0.8" stroke="none"/>
  <path d="M137.063,-98.634 L137.687,-99.258 Q137.740,-99.311 137.793,-99.258 Q137.846,-99.205 137.793,-99.152 L137.169,-98.528 Q137.116,-98.475 137.063,-98.528 Q137.010,-98.581 137.063,-98.634 Z" fill="#FF4500" fill-opacity="0.8" stroke="none"/>
  <path d="M135.803,-98.883 L136.052,-98.634 Q136.105,-98.581 136.052,-98.528 Q135.999,-98.475 135.946,-98.528 L135.697,-98.777 Q135.644,-98.830 135.697,-98.883 Q135.750,-98.936 135.803,-98.883 Z" fill="#FF4500" fill-opacity="0.8" stroke="none"/>
  <path d="M139.475,-105.017 L139.475,-104.562 Q139.475,-104.488 139.400,-104.488 Q139.325,-104.488 139.325,-104.562 L139.325,-105.017 Q139.325,-105.092 139.400,-105.092 Q139.475,-105.092 139.475,-105.017 Z" fill="#FF4500" fill-opacity="0.8" stroke="none"/>
  <path d="M135.675,-99.280 L135.675,-100.055 Q135.675,-100.130 135.750,-100.130 Q135.825,-100.130 135.825,-100.055 L135.825,-99.280 Q135.825,-99.205 135.750,-99.205 Q135.675,-99.205 135.675,-99.280 Z" fill="#FF4500" fill-opacity="0.8" stroke="none"/>
  <path d="M135.825,-99.280 L135.825,-98.830 Q135.825,-98.755 135.750,-98.755 Q135.675,-98.755 135.675,-98.830 L135.675,-99.280 Q135.675,-99.355 135.750,-99.355 Q135.825,-99.355 135.825,-99.280 Z" fill="#FF4500" fill-opacity="0.8" stroke="none"/>
  <path d="M138.715,-105.808 L139.453,-105.070 Q139.506,-105.017 139.453,-104.964 Q139.400,-104.911 139.347,-104.964 L138.609,-105.702 Q138.556,-105.755 138.609,-105.808 Q138.662,-105.861 138.715,-105.808 Z" fill="#FF4500" fill-opacity="0.8" stroke="none"/>
  <path d="M141.500,-104.562 L141.500,-102.815 Q141.500,-102.715 141.400,-102.715 Q141.300,-102.715 141.300,-102.815 L141.300,-104.562 Q141.300,-104.662 141.400,-104.662 Q141.500,-104.662 141.500,-104.562 Z" fill="#FF4500" fill-opacity="0.8" stroke="none"/>
  <path d="M141.471,-102.886 L141.821,-102.536 Q141.891,-102.465 141.821,-102.394 Q141.750,-102.324 141.679,-102.394 L141.329,-102.744 Q141.259,-102.815 141.329,-102.886 Q141.400,-102.956 141.471,-102.886 Z" fill="#FF4500" fill-opacity="0.8" stroke="none"/>
  <path d="M141.100,-104.562 L141.100,-102.715 Q141.100,-102.615 141.000,-102.615 Q140.900,-102.615 140.900,-102.715 L140.900,-104.562 Q140.900,-104.662 141.000,-104.662 Q141.100,-104.662 141.100,-104.562 Z" fill="#FF4500" fill-opacity="0.8" stroke="none"/>
  <path d="M141.071,-102.644 L140.821,-102.394 Q140.750,-102.324 140.679,-102.394 Q140.609,-102.465 140.679,-102.536 L140.929,-102.786 Q141.000,-102.856 141.071,-102.786 Q141.141,-102.715 141.071,-102.644 Z" fill="#FF4500" fill-opacity="0.8" stroke="none"/>
  <path d="M142.633,-102.362 L142.004,-102.992 Q141.951,-103.045 142.004,-103.098 Q142.057,-103.151 142.110,-103.098 L142.740,-102.468 Q142.793,-102.415 142.740,-102.362 Q142.686,-102.309 142.633,-102.362 Z" fill="#FF4500" fill-opacity="0.8" stroke="none"/>
  <path d="M142.825,-102.955 L142.825,-102.415 Q142.825,-102.340 142.750,-102.340 Q142.675,-102.340 142.675,-102.415 L142.675,-102.955 Q142.675,-103.030 142.750,-103.030 Q142.825,-103.030 142.825,-102.955 Z" fill="#FF4500" fill-opacity="0.8" stroke="none"/>
  <path d="M141.575,-113.475 L141.575,-113.181 Q141.575,-113.106 141.500,-113.106 Q141.425,-113.106 141.425,-113.181 L141.425,-113.475 Q141.425,-113.550 141.500,-113.550 Q141.575,-113.550 141.575,-113.475 Z" fill="#FF4500" fill-opacity="0.8" stroke="none"/>
  <path d="M142.750,-102.340 L142.686,-102.340 Q142.611,-102.340 142.611,-102.415 Q142.611,-102.490 142.686,-102.490 L142.750,-102.490 Q142.825,-102.490 142.825,-102.415 Q142.825,-102.340 142.750,-102.340 Z" fill="#FF4500" fill-opacity="0.8" stroke="none"/>
  <path d="M141.875,-104.562 L141.875,-103.905 Q141.875,-103.830 141.800,-103.830 Q141.725,-103.830 141.725,-103.905 L141.725,-104.562 Q141.725,-104.637 141.800,-104.637 Q141.875,-104.637 141.875,-104.562 Z" fill="#FF4500" fill-opacity="0.8" stroke="none"/>
  <path d="M138.286,-103.219 L137.803,-102.736 Q137.750,-102.683 137.697,-102.736 Q137.644,-102.789 137.697,-102.842 L138.180,-103.325 Q138.233,-103.378 138.286,-103.325 Q138.339,-103.272 138.286,-103.219 Z" fill="#FF4500" fill-opacity="0.8" stroke="none"/>
  <path d="M141.853,-103.958 L142.803,-103.008 Q142.856,-102.955 142.803,-102.902 Q142.750,-102.849 142.697,-102.902 L141.747,-103.852 Q141.694,-103.905 141.747,-103.958 Q141.800,-104.011 141.853,-103.958 Z" fill="#FF4500" fill-opacity="0.8" stroke="none"/>
  <path d="M140.547,-112.797 L141.278,-113.528 Q141.331,-113.581 141.385,-113.528 Q141.438,-113.475 141.385,-113.422 L140.653,-112.690 Q140.600,-112.637 140.547,-112.690 Q140.494,-112.744 140.547,-112.797 Z" fill="#FF4500" fill-opacity="0.8" stroke="none"/>
  <path d="M137.825,-102.789 L137.825,-102.435 Q137.825,-102.360 137.750,-102.360 Q137.675,-102.360 137.675,-102.435 L137.675,-102.789 Q137.675,-102.864 137.750,-102.864 Q137.825,-102.864 137.825,-102.789 Z" fill="#FF4500" fill-opacity="0.8" stroke="none"/>
  <path d="M141.553,-113.127 L141.165,-112.740 Q141.112,-112.687 141.059,-112.740 Q141.006,-112.793 141.059,-112.846 L141.447,-113.234 Q141.500,-113.287 141.553,-113.234 Q141.606,-113.181 141.553,-113.127 Z" fill="#FF4500" fill-opacity="0.8" stroke="none"/>
  <path d="M137.750,-102.510 L137.840,-102.510 Q137.915,-102.510 137.915,-102.435 Q137.915,-102.360 137.840,-102.360 L137.750,-102.360 Q137.675,-102.360 137.675,-102.435 Q137.675,-102.510 137.750,-102.510 Z" fill="#FF4500" fill-opacity="0.8" stroke="none"/>
  <path d="M140.525,-111.438 L140.525,-112.744 Q140.525,-112.819 140.600,-112.819 Q140.675,-112.819 140.675,-112.744 L140.675,-111.438 Q140.675,-111.363 140.600,-111.363 Q140.525,-111.363 140.525,-111.438 Z" fill="#FF4500" fill-opacity="0.8" stroke="none"/>
  <path d="M141.331,-113.550 L141.500,-113.550 Q141.575,-113.550 141.575,-113.475 Q141.575,-113.400 141.500,-113.400 L141.331,-113.400 Q141.256,-113.400 141.256,-113.475 Q141.256,-113.550 141.331,-113.550 Z" fill="#FF4500" fill-opacity="0.8" stroke="none"/>
  <path d="M139.725,-103.985 L139.725,-104.562 Q139.725,-104.637 139.800,-104.637 Q139.875,-104.637 139.875,-104.562 L139.875,-103.985 Q139.875,-103.910 139.800,-103.910 Q139.725,-103.910 139.725,-103.985 Z" fill="#FF4500" fill-opacity="0.8" stroke="none"/>
  <path d="M137.787,-102.488 L138.307,-103.008 Q138.360,-103.061 138.413,-103.008 Q138.466,-102.955 138.413,-102.902 L137.893,-102.382 Q137.840,-102.329 137.787,-102.382 Q137.734,-102.435 137.787,-102.488 Z" fill="#FF4500" fill-opacity="0.8" stroke="none"/>
  <path d="M138.360,-103.030 L138.770,-103.030 Q138.845,-103.030 138.845,-102.955 Q138.845,-102.880 138.770,-102.880 L138.360,-102.880 Q138.285,-102.880 138.285,-102.955 Q138.285,-103.030 138.360,-103.030 Z" fill="#FF4500" fill-opacity="0.8" stroke="none"/>
  <path d="M138.717,-103.008 L139.747,-104.038 Q139.800,-104.091 139.853,-104.038 Q139.906,-103.985 139.853,-103.932 L138.823,-102.902 Q138.770,-102.849 138.717,-102.902 Q138.664,-102.955 138.717,-103.008 Z" fill="#FF4500" fill-opacity="0.8" stroke="none"/>
  <path d="M139.475,-112.305 L139.475,-111.438 Q139.475,-111.363 139.400,-111.363 Q139.325,-111.363 139.325,-111.438 L139.325,-112.305 Q139.325,-112.380 139.400,-112.380 Q139.475,-112.380 139.475,-112.305 Z" fill="#FF4500" fill-opacity="0.8" stroke="none"/>
  <path d="M137.953,-113.858 L139.453,-112.358 Q139.506,-112.305 139.453,-112.252 Q139.400,-112.199 139.347,-112.252 L137.847,-113.752 Q137.794,-113.805 137.847,-113.858 Q137.900,-113.911 137.953,-113.858 Z" fill="#FF4500" fill-opacity="0.8" stroke="none"/>
  <path d="M137.975,-113.905 L137.975,-113.805 Q137.975,-113.730 137.900,-113.730 Q137.825,-113.730 137.825,-113.805 L137.825,-113.905 Q137.825,-113.980 137.900,-113.980 Q137.975,-113.980 137.975,-113.905 Z" fill="#FF4500" fill-opacity="0.8" stroke="none"/>
  <path d="M143.099,-112.610 L143.447,-112.958 Q143.500,-113.011 143.553,-112.958 Q143.606,-112.905 143.553,-112.852 L143.205,-112.504 Q143.152,-112.451 143.099,-112.504 Q143.046,-112.557 143.099,-112.610 Z" fill="#FF4500" fill-opacity="0.8" stroke="none"/>
  <path d="M141.725,-111.438 L141.725,-111.901 Q141.725,-111.976 141.800,-111.976 Q141.875,-111.976 141.875,-111.901 L141.875,-111.438 Q141.875,-111.363 141.800,-111.363 Q141.725,-111.363 141.725,-111.438 Z" fill="#FF4500" fill-opacity="0.8" stroke="none"/>
  <path d="M143.500,-113.370 L142.530,-113.370 Q142.455,-113.370 142.455,-113.445 Q142.455,-113.520 142.530,-113.520 L143.500,-113.520 Q143.575,-113.520 143.575,-113.445 Q143.575,-113.370 143.500,-113.370 Z" fill="#FF4500" fill-opacity="0.8" stroke="none"/>
  <path d="M143.425,-112.905 L143.425,-113.445 Q143.425,-113.520 143.500,-113.520 Q143.575,-113.520 143.575,-113.445 L143.575,-112.905 Q143.575,-112.830 143.500,-112.830 Q143.425,-112.830 143.425,-112.905 Z" fill="#FF4500" fill-opacity="0.8" stroke="none"/>
  <path d="M142.456,-112.632 L143.152,-112.632 Q143.227,-112.632 143.227,-112.557 Q143.227,-112.482 143.152,-112.482 L142.456,-112.482 Q142.381,-112.482 142.381,-112.557 Q142.381,-112.632 142.456,-112.632 Z" fill="#FF4500" fill-opacity="0.8" stroke="none"/>
  <path d="M141.747,-111.954 L142.403,-112.610 Q142.456,-112.663 142.509,-112.610 Q142.562,-112.557 142.509,-112.504 L141.853,-111.848 Q141.800,-111.795 141.747,-111.848 Q141.694,-111.901 141.747,-111.954 Z" fill="#FF4500" fill-opacity="0.8" stroke="none"/>
  <path d="M142.477,-113.392 L142.447,-113.422 Q142.394,-113.475 142.447,-113.528 Q142.500,-113.581 142.553,-113.528 L142.583,-113.498 Q142.636,-113.445 142.583,-113.392 Q142.530,-113.339 142.477,-113.392 Z" fill="#FF4500" fill-opacity="0.8" stroke="none"/>
  <path d="M141.238,-112.246 L141.053,-112.062 Q141.000,-112.009 140.947,-112.062 Q140.894,-112.115 140.947,-112.168 L141.132,-112.352 Q141.185,-112.406 141.238,-112.352 Q141.291,-112.299 141.238,-112.246 Z" fill="#FF4500" fill-opacity="0.8" stroke="none"/>
  <path d="M141.194,-112.224 L141.185,-112.224 Q141.110,-112.224 141.110,-112.299 Q141.110,-112.374 141.185,-112.374 L141.194,-112.374 Q141.269,-112.374 141.269,-112.299 Q141.269,-112.224 141.194,-112.224 Z" fill="#FF4500" fill-opacity="0.8" stroke="none"/>
  <path d="M141.075,-112.115 L141.075,-111.438 Q141.075,-111.363 141.000,-111.363 Q140.925,-111.363 140.925,-111.438 L140.925,-112.115 Q140.925,-112.190 141.000,-112.190 Q141.075,-112.190 141.075,-112.115 Z" fill="#FF4500" fill-opacity="0.8" stroke="none"/>
  <path d="M142.431,-113.032 L142.950,-113.032 Q143.025,-113.032 143.025,-112.957 Q143.025,-112.882 142.950,-112.882 L142.431,-112.882 Q142.356,-112.882 142.356,-112.957 Q142.356,-113.032 142.431,-113.032 Z" fill="#FF4500" fill-opacity="0.8" stroke="none"/>
  <path d="M141.325,-111.438 L141.325,-111.926 Q141.325,-112.001 141.400,-112.001 Q141.475,-112.001 141.475,-111.926 L141.475,-111.438 Q141.475,-111.363 141.400,-111.363 Q141.325,-111.363 141.325,-111.438 Z" fill="#FF4500" fill-opacity="0.8" stroke="none"/>
  <path d="M141.347,-111.979 L142.378,-113.010 Q142.431,-113.063 142.484,-113.010 Q142.537,-112.957 142.484,-112.904 L141.453,-111.873 Q141.400,-111.820 141.347,-111.873 Q141.294,-111.926 141.347,-111.979 Z" fill="#FF4500" fill-opacity="0.8" stroke="none"/>
  <path d="M142.847,-110.147 L142.547,-110.447 Q142.494,-110.500 142.547,-110.553 Q142.600,-110.606 142.653,-110.553 L142.953,-110.253 Q143.006,-110.200 142.953,-110.147 Q142.900,-110.094 142.847,-110.147 Z" fill="#FF4500" fill-opacity="0.8" stroke="none"/>
  <path d="M143.438,-110.125 L142.900,-110.125 Q142.825,-110.125 142.825,-110.200 Q142.825,-110.275 142.900,-110.275 L143.438,-110.275 Q143.512,-110.275 143.512,-110.200 Q143.512,-110.125 143.438,-110.125 Z" fill="#FF4500" fill-opacity="0.8" stroke="none"/>
  <path d="M143.438,-109.725 L142.734,-109.725 Q142.659,-109.725 142.659,-109.800 Q142.659,-109.875 142.734,-109.875 L143.438,-109.875 Q143.512,-109.875 143.512,-109.800 Q143.512,-109.725 143.438,-109.725 Z" fill="#FF4500" fill-opacity="0.8" stroke="none"/>
  <path d="M142.681,-109.747 L142.514,-109.914 Q142.461,-109.967 142.514,-110.020 Q142.567,-110.073 142.620,-110.020 L142.787,-109.853 Q142.840,-109.800 142.787,-109.747 Q142.734,-109.694 142.681,-109.747 Z" fill="#FF4500" fill-opacity="0.8" stroke="none"/>
  <path d="M145.500,-106.525 L143.438,-106.525 Q143.363,-106.525 143.363,-106.600 Q143.363,-106.675 143.438,-106.675 L145.500,-106.675 Q145.575,-106.675 145.575,-106.600 Q145.575,-106.525 145.500,-106.525 Z" fill="#FF4500" fill-opacity="0.8" stroke="none"/>
  <path d="M146.550,-107.544 L145.553,-106.547 Q145.500,-106.494 145.447,-106.547 Q145.394,-106.600 145.447,-106.653 L146.444,-107.650 Q146.497,-107.703 146.550,-107.650 Q146.603,-107.597 146.550,-107.544 Z" fill="#FF4500" fill-opacity="0.8" stroke="none"/>
  <path d="M142.583,-120.433 L143.353,-119.663 Q143.406,-119.610 143.353,-119.557 Q143.300,-119.504 143.247,-119.557 L142.477,-120.327 Q142.424,-120.380 142.477,-120.433 Q142.530,-120.486 142.583,-120.433 Z" fill="#FF4500" fill-opacity="0.8" stroke="none"/>
  <path d="M146.572,-115.303 L146.572,-107.597 Q146.572,-107.522 146.497,-107.522 Q146.422,-107.522 146.422,-107.597 L146.422,-115.303 Q146.422,-115.378 146.497,-115.378 Q146.572,-115.378 146.572,-115.303 Z" fill="#FF4500" fill-opacity="0.8" stroke="none"/>
  <path d="M143.375,-119.610 L143.375,-118.500 Q143.375,-118.425 143.300,-118.425 Q143.225,-118.425 143.225,-118.500 L143.225,-119.610 Q143.225,-119.685 143.300,-119.685 Q143.375,-119.685 143.375,-119.610 Z" fill="#FF4500" fill-opacity="0.8" stroke="none"/>
  <path d="M143.353,-118.553 L146.550,-115.356 Q146.603,-115.303 146.550,-115.250 Q146.497,-115.197 146.444,-115.250 L143.247,-118.447 Q143.194,-118.500 143.247,-118.553 Q143.300,-118.606 143.353,-118.553 Z" fill="#FF4500" fill-opacity="0.8" stroke="none"/>
  <path d="M146.143,-115.051 L142.477,-118.717 Q142.424,-118.770 142.477,-118.823 Q142.530,-118.876 142.583,-118.823 L146.249,-115.157 Q146.302,-115.104 146.249,-115.051 Q146.196,-114.998 146.143,-115.051 Z" fill="#FF4500" fill-opacity="0.8" stroke="none"/>
  <path d="M143.438,-110.675 L145.439,-110.675 Q145.514,-110.675 145.514,-110.600 Q145.514,-110.525 145.439,-110.525 L143.438,-110.525 Q143.363,-110.525 143.363,-110.600 Q143.363,-110.675 143.438,-110.675 Z" fill="#FF4500" fill-opacity="0.8" stroke="none"/>
  <path d="M142.455,-118.770 L142.455,-119.110 Q142.455,-119.185 142.530,-119.185 Q142.605,-119.185 142.605,-119.110 L142.605,-118.770 Q142.605,-118.695 142.530,-118.695 Q142.455,-118.695 142.455,-118.770 Z" fill="#FF4500" fill-opacity="0.8" stroke="none"/>
  <path d="M145.386,-110.653 L146.143,-111.410 Q146.196,-111.463 146.249,-111.410 Q146.302,-111.357 146.249,-111.304 L145.492,-110.547 Q145.439,-110.494 145.386,-110.547 Q145.333,-110.600 145.386,-110.653 Z" fill="#FF4500" fill-opacity="0.8" stroke="none"/>
  <path d="M146.121,-111.357 L146.121,-115.104 Q146.121,-115.179 146.196,-115.179 Q146.271,-115.179 146.271,-115.104 L146.271,-111.357 Q146.271,-111.282 146.196,-111.282 Q146.121,-111.282 146.121,-111.357 Z" fill="#FF4500" fill-opacity="0.8" stroke="none"/>
  <path d="M144.200,-106.125 L143.438,-106.125 Q143.363,-106.125 143.363,-106.200 Q143.363,-106.275 143.438,-106.275 L144.200,-106.275 Q144.275,-106.275 144.275,-106.200 Q144.275,-106.125 144.200,-106.125 Z" fill="#FF4500" fill-opacity="0.8" stroke="none"/>
  <path d="M144.500,-105.725 L143.438,-105.725 Q143.363,-105.725 143.363,-105.800 Q143.363,-105.875 143.438,-105.875 L144.500,-105.875 Q144.575,-105.875 144.575,-105.800 Q144.575,-105.725 144.500,-105.725 Z" fill="#FF4500" fill-opacity="0.8" stroke="none"/>
  <path d="M144.753,-105.947 L144.553,-105.747 Q144.500,-105.694 144.447,-105.747 Q144.394,-105.800 144.447,-105.853 L144.647,-106.053 Q144.700,-106.106 144.753,-106.053 Q144.806,-106.000 144.753,-105.947 Z" fill="#FF4500" fill-opacity="0.8" stroke="none"/>
  <path d="M142.347,-106.947 L142.147,-107.147 Q142.094,-107.200 142.147,-107.253 Q142.200,-107.306 142.253,-107.253 L142.453,-107.053 Q142.506,-107.000 142.453,-106.947 Q142.400,-106.894 142.347,-106.947 Z" fill="#FF4500" fill-opacity="0.8" stroke="none"/>
  <path d="M143.438,-106.925 L142.400,-106.925 Q142.325,-106.925 142.325,-107.000 Q142.325,-107.075 142.400,-107.075 L143.438,-107.075 Q143.512,-107.075 143.512,-107.000 Q143.512,-106.925 143.438,-106.925 Z" fill="#FF4500" fill-opacity="0.8" stroke="none"/>
  <path d="M141.197,-91.508 L141.647,-91.958 Q141.700,-92.011 141.753,-91.958 Q141.806,-91.905 141.753,-91.852 L141.303,-91.402 Q141.250,-91.349 141.197,-91.402 Q141.144,-91.455 141.197,-91.508 Z" fill="#FF4500" fill-opacity="0.8" stroke="none"/>
  <path d="M141.625,-93.192 L141.625,-93.467 Q141.625,-93.542 141.700,-93.542 Q141.775,-93.542 141.775,-93.467 L141.775,-93.192 Q141.775,-93.118 141.700,-93.118 Q141.625,-93.118 141.625,-93.192 Z" fill="#FF4500" fill-opacity="0.8" stroke="none"/>
  <path d="M141.625,-91.905 L141.625,-92.423 Q141.625,-92.497 141.700,-92.497 Q141.775,-92.497 141.775,-92.423 L141.775,-91.905 Q141.775,-91.830 141.700,-91.830 Q141.625,-91.830 141.625,-91.905 Z" fill="#FF4500" fill-opacity="0.8" stroke="none"/>
  <path d="M141.175,-90.735 L141.175,-91.455 Q141.175,-91.530 141.250,-91.530 Q141.325,-91.530 141.325,-91.455 L141.325,-90.735 Q141.325,-90.660 141.250,-90.660 Q141.175,-90.660 141.175,-90.735 Z" fill="#FF4500" fill-opacity="0.8" stroke="none"/>
  <path d="M142.189,-94.031 L143.861,-94.031 Q143.936,-94.031 143.936,-93.956 Q143.936,-93.881 143.861,-93.881 L142.189,-93.881 Q142.114,-93.881 142.114,-93.956 Q142.114,-94.031 142.189,-94.031 Z" fill="#FF4500" fill-opacity="0.8" stroke="none"/>
  <path d="M143.915,-94.009 L144.553,-93.371 Q144.606,-93.317 144.553,-93.264 Q144.500,-93.211 144.447,-93.264 L143.808,-93.903 Q143.755,-93.956 143.808,-94.009 Q143.861,-94.062 143.915,-94.009 Z" fill="#FF4500" fill-opacity="0.8" stroke="none"/>
  <path d="M141.647,-93.521 L142.135,-94.009 Q142.189,-94.062 142.242,-94.009 Q142.295,-93.956 142.242,-93.903 L141.753,-93.414 Q141.700,-93.361 141.647,-93.414 Q141.594,-93.467 141.647,-93.521 Z" fill="#FF4500" fill-opacity="0.8" stroke="none"/>
  <path d="M141.775,-93.192 L141.775,-92.423 Q141.775,-92.348 141.700,-92.348 Q141.625,-92.348 141.625,-92.423 L141.625,-93.192 Q141.625,-93.267 141.700,-93.267 Q141.775,-93.267 141.775,-93.192 Z" fill="#FF4500" fill-opacity="0.8" stroke="none"/>
  <path d="M142.663,-93.730 L143.163,-93.730 Q143.238,-93.730 143.238,-93.655 Q143.238,-93.580 143.163,-93.580 L142.663,-93.580 Q142.588,-93.580 142.588,-93.655 Q142.588,-93.730 142.663,-93.730 Z" fill="#FF4500" fill-opacity="0.8" stroke="none"/>
  <path d="M142.097,-92.426 L142.147,-92.476 Q142.200,-92.529 142.253,-92.476 Q142.306,-92.423 142.253,-92.369 L142.203,-92.319 Q142.150,-92.266 142.097,-92.319 Q142.044,-92.372 142.097,-92.426 Z" fill="#FF4500" fill-opacity="0.8" stroke="none"/>
  <path d="M138.574,-89.911 L138.851,-89.911 Q138.926,-89.911 138.926,-89.836 Q138.926,-89.761 138.851,-89.761 L138.574,-89.761 Q138.499,-89.761 138.499,-89.836 Q138.499,-89.911 138.574,-89.911 Z" fill="#FF4500" fill-opacity="0.8" stroke="none"/>
  <path d="M143.216,-93.708 L143.553,-93.371 Q143.606,-93.317 143.553,-93.264 Q143.500,-93.211 143.447,-93.264 L143.109,-93.602 Q143.056,-93.655 143.109,-93.708 Q143.163,-93.761 143.216,-93.708 Z" fill="#FF4500" fill-opacity="0.8" stroke="none"/>
  <path d="M142.275,-93.192 L142.275,-92.423 Q142.275,-92.348 142.200,-92.348 Q142.125,-92.348 142.125,-92.423 L142.125,-93.192 Q142.125,-93.267 142.200,-93.267 Q142.275,-93.267 142.275,-93.192 Z" fill="#FF4500" fill-opacity="0.8" stroke="none"/>
  <path d="M138.303,-90.213 L138.628,-89.889 Q138.681,-89.836 138.628,-89.783 Q138.574,-89.729 138.521,-89.783 L138.197,-90.107 Q138.144,-90.160 138.197,-90.213 Q138.250,-90.266 138.303,-90.213 Z" fill="#FF4500" fill-opacity="0.8" stroke="none"/>
  <path d="M138.325,-90.735 L138.325,-90.160 Q138.325,-90.085 138.250,-90.085 Q138.175,-90.085 138.175,-90.160 L138.175,-90.735 Q138.175,-90.810 138.250,-90.810 Q138.325,-90.810 138.325,-90.735 Z" fill="#FF4500" fill-opacity="0.8" stroke="none"/>
  <path d="M142.147,-93.246 L142.609,-93.708 Q142.663,-93.761 142.716,-93.708 Q142.769,-93.655 142.716,-93.602 L142.253,-93.139 Q142.200,-93.086 142.147,-93.139 Q142.094,-93.192 142.147,-93.246 Z" fill="#FF4500" fill-opacity="0.8" stroke="none"/>
  <path d="M142.075,-91.755 L142.075,-92.372 Q142.075,-92.447 142.150,-92.447 Q142.225,-92.447 142.225,-92.372 L142.225,-91.755 Q142.225,-91.680 142.150,-91.680 Q142.075,-91.680 142.075,-91.755 Z" fill="#FF4500" fill-opacity="0.8" stroke="none"/>
  <path d="M137.706,-90.266 L138.511,-89.461 Q138.617,-89.355 138.511,-89.249 Q138.405,-89.143 138.299,-89.249 L137.494,-90.054 Q137.388,-90.160 137.494,-90.266 Q137.600,-90.372 137.706,-90.266 Z" fill="#FF4500" fill-opacity="0.8" stroke="none"/>
  <path d="M142.250,-90.126 L142.250,-90.735 Q142.250,-90.885 142.400,-90.885 Q142.550,-90.885 142.550,-90.735 L142.550,-90.126 Q142.550,-89.976 142.400,-89.976 Q142.250,-89.976 142.250,-90.126 Z" fill="#FF4500" fill-opacity="0.8" stroke="none"/>
  <path d="M141.523,-89.461 L142.294,-90.232 Q142.400,-90.338 142.506,-90.232 Q142.612,-90.126 142.506,-90.020 L141.735,-89.249 Q141.629,-89.143 141.523,-89.249 Q141.417,-89.355 141.523,-89.461 Z" fill="#FF4500" fill-opacity="0.8" stroke="none"/>
  <path d="M138.405,-89.505 L141.629,-89.505 Q141.779,-89.505 141.779,-89.355 Q141.779,-89.205 141.629,-89.205 L138.405,-89.205 Q138.255,-89.205 138.255,-89.355 Q138.255,-89.505 138.405,-89.505 Z" fill="#FF4500" fill-opacity="0.8" stroke="none"/>
  <path d="M136.006,-92.501 L135.906,-92.401 Q135.800,-92.295 135.694,-92.401 Q135.588,-92.507 135.694,-92.614 L135.794,-92.714 Q135.900,-92.820 136.006,-92.714 Q136.112,-92.608 136.006,-92.501 Z" fill="#FF4500" fill-opacity="0.8" stroke="none"/>
  <path d="M137.275,-92.457 L135.900,-92.457 Q135.750,-92.457 135.750,-92.607 Q135.750,-92.757 135.900,-92.757 L137.275,-92.757 Q137.425,-92.757 137.425,-92.607 Q137.425,-92.457 137.275,-92.457 Z" fill="#FF4500" fill-opacity="0.8" stroke="none"/>
  <path d="M137.450,-90.735 L137.450,-91.605 Q137.450,-91.755 137.600,-91.755 Q137.750,-91.755 137.750,-91.605 L137.750,-90.735 Q137.750,-90.585 137.600,-90.585 Q137.450,-90.585 137.450,-90.735 Z" fill="#FF4500" fill-opacity="0.8" stroke="none"/>
  <path d="M137.125,-91.930 L137.125,-92.607 Q137.125,-92.757 137.275,-92.757 Q137.425,-92.757 137.425,-92.607 L137.425,-91.930 Q137.425,-91.780 137.275,-91.780 Q137.125,-91.780 137.125,-91.930 Z" fill="#FF4500" fill-opacity="0.8" stroke="none"/>
  <path d="M137.494,-91.499 L137.169,-91.824 Q137.063,-91.930 137.169,-92.036 Q137.275,-92.142 137.381,-92.036 L137.706,-91.711 Q137.812,-91.605 137.706,-91.499 Q137.600,-91.393 137.494,-91.499 Z" fill="#FF4500" fill-opacity="0.8" stroke="none"/>
  <path d="M137.750,-90.735 L137.750,-90.160 Q137.750,-90.010 137.600,-90.010 Q137.450,-90.010 137.450,-90.160 L137.450,-90.735 Q137.450,-90.885 137.600,-90.885 Q137.750,-90.885 137.750,-90.735 Z" fill="#FF4500" fill-opacity="0.8" stroke="none"/>
  <path d="M140.775,-93.043 L140.775,-92.860 Q140.775,-92.760 140.675,-92.760 Q140.575,-92.760 140.575,-92.860 L140.575,-93.043 Q140.575,-93.143 140.675,-93.143 Q140.775,-93.143 140.775,-93.043 Z" fill="#FF4500" fill-opacity="0.8" stroke="none"/>
  <path d="M140.771,-90.856 L140.821,-90.806 Q140.891,-90.735 140.821,-90.664 Q140.750,-90.594 140.679,-90.664 L140.629,-90.714 Q140.559,-90.785 140.629,-90.856 Q140.700,-90.926 140.771,-90.856 Z" fill="#FF4500" fill-opacity="0.8" stroke="none"/>
  <path d="M140.800,-92.835 L140.800,-92.423 Q140.800,-92.323 140.700,-92.323 Q140.600,-92.323 140.600,-92.423 L140.600,-92.835 Q140.600,-92.935 140.700,-92.935 Q140.800,-92.935 140.800,-92.835 Z" fill="#FF4500" fill-opacity="0.8" stroke="none"/>
  <path d="M140.038,-90.009 L140.499,-90.009 Q140.599,-90.009 140.599,-89.909 Q140.599,-89.809 140.499,-89.809 L140.038,-89.809 Q139.938,-89.809 139.938,-89.909 Q139.938,-90.009 140.038,-90.009 Z" fill="#FF4500" fill-opacity="0.8" stroke="none"/>
  <path d="M140.746,-92.931 L140.771,-92.906 Q140.841,-92.835 140.771,-92.764 Q140.700,-92.694 140.629,-92.764 L140.604,-92.789 Q140.534,-92.860 140.604,-92.931 Q140.675,-93.001 140.746,-92.931 Z" fill="#FF4500" fill-opacity="0.8" stroke="none"/>
  <path d="M140.650,-90.160 L140.650,-90.735 Q140.650,-90.835 140.750,-90.835 Q140.850,-90.835 140.850,-90.735 L140.850,-90.160 Q140.850,-90.060 140.750,-90.060 Q140.650,-90.060 140.650,-90.160 Z" fill="#FF4500" fill-opacity="0.8" stroke="none"/>
  <path d="M140.771,-92.997 L140.746,-92.972 Q140.675,-92.901 140.604,-92.972 Q140.534,-93.043 140.604,-93.113 L140.629,-93.138 Q140.700,-93.209 140.771,-93.138 Q140.841,-93.067 140.771,-92.997 Z" fill="#FF4500" fill-opacity="0.8" stroke="none"/>
  <path d="M140.775,-100.370 L140.775,-93.630 Q140.775,-93.530 140.675,-93.530 Q140.575,-93.530 140.575,-93.630 L140.575,-100.370 Q140.575,-100.470 140.675,-100.470 Q140.775,-100.470 140.775,-100.370 Z" fill="#FF4500" fill-opacity="0.8" stroke="none"/>
  <path d="M140.800,-92.372 L140.800,-92.372 Q140.800,-92.272 140.700,-92.272 Q140.600,-92.272 140.600,-92.372 L140.600,-92.372 Q140.600,-92.472 140.700,-92.472 Q140.800,-92.472 140.800,-92.372 Z" fill="#FF4500" fill-opacity="0.8" stroke="none"/>
  <path d="M140.800,-92.423 L140.800,-92.372 Q140.800,-92.272 140.700,-92.272 Q140.600,-92.272 140.600,-92.372 L140.600,-92.423 Q140.600,-92.522 140.700,-92.522 Q140.800,-92.522 140.800,-92.423 Z" fill="#FF4500" fill-opacity="0.8" stroke="none"/>
  <path d="M140.746,-93.701 L140.771,-93.676 Q140.841,-93.605 140.771,-93.534 Q140.700,-93.464 140.629,-93.534 L140.604,-93.559 Q140.534,-93.630 140.604,-93.701 Q140.675,-93.771 140.746,-93.701 Z" fill="#FF4500" fill-opacity="0.8" stroke="none"/>
  <path d="M139.821,-90.268 L140.109,-89.980 Q140.179,-89.909 140.109,-89.838 Q140.038,-89.768 139.967,-89.838 L139.679,-90.126 Q139.609,-90.197 139.679,-90.268 Q139.750,-90.338 139.821,-90.268 Z" fill="#FF4500" fill-opacity="0.8" stroke="none"/>
  <path d="M140.428,-89.980 L140.679,-90.231 Q140.750,-90.301 140.821,-90.231 Q140.891,-90.160 140.821,-90.089 L140.570,-89.838 Q140.499,-89.768 140.428,-89.838 Q140.358,-89.909 140.428,-89.980 Z" fill="#FF4500" fill-opacity="0.8" stroke="none"/>
  <path d="M139.850,-90.735 L139.850,-90.197 Q139.850,-90.097 139.750,-90.097 Q139.650,-90.097 139.650,-90.197 L139.650,-90.735 Q139.650,-90.835 139.750,-90.835 Q139.850,-90.835 139.850,-90.735 Z" fill="#FF4500" fill-opacity="0.8" stroke="none"/>
  <path d="M140.800,-93.192 L140.800,-93.067 Q140.800,-92.967 140.700,-92.967 Q140.600,-92.967 140.600,-93.067 L140.600,-93.192 Q140.600,-93.292 140.700,-93.292 Q140.800,-93.292 140.800,-93.192 Z" fill="#FF4500" fill-opacity="0.8" stroke="none"/>
  <path d="M140.800,-93.605 L140.800,-93.192 Q140.800,-93.092 140.700,-93.092 Q140.600,-93.092 140.600,-93.192 L140.600,-93.605 Q140.600,-93.705 140.700,-93.705 Q140.800,-93.705 140.800,-93.605 Z" fill="#FF4500" fill-opacity="0.8" stroke="none"/>
  <path d="M141.821,-101.374 L140.746,-100.299 Q140.675,-100.229 140.604,-100.299 Q140.534,-100.370 140.604,-100.441 L141.679,-101.516 Q141.750,-101.586 141.821,-101.516 Q141.891,-101.445 141.821,-101.374 Z" fill="#FF4500" fill-opacity="0.8" stroke="none"/>
  <path d="M140.800,-92.372 L140.800,-90.785 Q140.800,-90.685 140.700,-90.685 Q140.600,-90.685 140.600,-90.785 L140.600,-92.372 Q140.600,-92.472 140.700,-92.472 Q140.800,-92.472 140.800,-92.372 Z" fill="#FF4500" fill-opacity="0.8" stroke="none"/>
  <path d="M140.325,-100.556 L140.325,-93.630 Q140.325,-93.530 140.225,-93.530 Q140.125,-93.530 140.125,-93.630 L140.125,-100.556 Q140.125,-100.656 140.225,-100.656 Q140.325,-100.656 140.325,-100.556 Z" fill="#FF4500" fill-opacity="0.8" stroke="none"/>
  <path d="M139.179,-91.344 L139.467,-91.632 Q139.538,-91.702 139.609,-91.632 Q139.679,-91.561 139.609,-91.490 L139.321,-91.202 Q139.250,-91.132 139.179,-91.202 Q139.109,-91.273 139.179,-91.344 Z" fill="#FF4500" fill-opacity="0.8" stroke="none"/>
  <path d="M140.300,-93.192 L140.300,-93.067 Q140.300,-92.967 140.200,-92.967 Q140.100,-92.967 140.100,-93.067 L140.100,-93.192 Q140.100,-93.292 140.200,-93.292 Q140.300,-93.292 140.300,-93.192 Z" fill="#FF4500" fill-opacity="0.8" stroke="none"/>
  <path d="M140.325,-93.043 L140.325,-92.860 Q140.325,-92.760 140.225,-92.760 Q140.125,-92.760 140.125,-92.860 L140.125,-93.043 Q140.125,-93.143 140.225,-93.143 Q140.325,-93.143 140.325,-93.043 Z" fill="#FF4500" fill-opacity="0.8" stroke="none"/>
  <path d="M140.296,-93.559 L140.271,-93.534 Q140.200,-93.464 140.129,-93.534 Q140.059,-93.605 140.129,-93.676 L140.154,-93.701 Q140.225,-93.771 140.296,-93.701 Q140.366,-93.630 140.296,-93.559 Z" fill="#FF4500" fill-opacity="0.8" stroke="none"/>
  <path d="M140.821,-101.011 L140.296,-100.486 Q140.225,-100.415 140.154,-100.486 Q140.084,-100.556 140.154,-100.627 L140.679,-101.152 Q140.750,-101.223 140.821,-101.152 Q140.891,-101.081 140.821,-101.011 Z" fill="#FF4500" fill-opacity="0.8" stroke="none"/>
  <path d="M140.300,-92.835 L140.300,-92.423 Q140.300,-92.323 140.200,-92.323 Q140.100,-92.323 140.100,-92.423 L140.100,-92.835 Q140.100,-92.935 140.200,-92.935 Q140.300,-92.935 140.300,-92.835 Z" fill="#FF4500" fill-opacity="0.8" stroke="none"/>
  <path d="M140.350,-91.310 L140.350,-90.735 Q140.350,-90.635 140.250,-90.635 Q140.150,-90.635 140.150,-90.735 L140.150,-91.310 Q140.150,-91.410 140.250,-91.410 Q140.350,-91.410 140.350,-91.310 Z" fill="#FF4500" fill-opacity="0.8" stroke="none"/>
  <path d="M140.350,-92.372 L140.350,-90.735 Q140.350,-90.635 140.250,-90.635 Q140.150,-90.635 140.150,-90.735 L140.150,-92.372 Q140.150,-92.472 140.250,-92.472 Q140.350,-92.472 140.350,-92.372 Z" fill="#FF4500" fill-opacity="0.8" stroke="none"/>
  <path d="M139.150,-90.735 L139.150,-91.273 Q139.150,-91.373 139.250,-91.373 Q139.350,-91.373 139.350,-91.273 L139.350,-90.735 Q139.350,-90.635 139.250,-90.635 Q139.150,-90.635 139.150,-90.735 Z" fill="#FF4500" fill-opacity="0.8" stroke="none"/>
  <path d="M140.850,-101.445 L140.850,-101.081 Q140.850,-100.981 140.750,-100.981 Q140.650,-100.981 140.650,-101.081 L140.650,-101.445 Q140.650,-101.545 140.750,-101.545 Q140.850,-101.545 140.850,-101.445 Z" fill="#FF4500" fill-opacity="0.8" stroke="none"/>
  <path d="M140.296,-92.789 L140.271,-92.764 Q140.200,-92.694 140.129,-92.764 Q140.059,-92.835 140.129,-92.906 L140.154,-92.931 Q140.225,-93.001 140.296,-92.931 Q140.366,-92.860 140.296,-92.789 Z" fill="#FF4500" fill-opacity="0.8" stroke="none"/>
  <path d="M140.300,-93.605 L140.300,-93.192 Q140.300,-93.092 140.200,-93.092 Q140.100,-93.092 140.100,-93.192 L140.100,-93.605 Q140.100,-93.705 140.200,-93.705 Q140.300,-93.705 140.300,-93.605 Z" fill="#FF4500" fill-opacity="0.8" stroke="none"/>
  <path d="M140.070,-91.632 L140.321,-91.381 Q140.391,-91.310 140.321,-91.239 Q140.250,-91.169 140.179,-91.239 L139.928,-91.490 Q139.858,-91.561 139.928,-91.632 Q139.999,-91.702 140.070,-91.632 Z" fill="#FF4500" fill-opacity="0.8" stroke="none"/>
  <path d="M140.271,-93.138 L140.296,-93.113 Q140.366,-93.043 140.296,-92.972 Q140.225,-92.901 140.154,-92.972 L140.129,-92.997 Q140.059,-93.067 140.129,-93.138 Q140.200,-93.209 140.271,-93.138 Z" fill="#FF4500" fill-opacity="0.8" stroke="none"/>
  <path d="M139.538,-91.661 L139.999,-91.661 Q140.099,-91.661 140.099,-91.561 Q140.099,-91.461 139.999,-91.461 L139.538,-91.461 Q139.438,-91.461 139.438,-91.561 Q139.438,-91.661 139.538,-91.661 Z" fill="#FF4500" fill-opacity="0.8" stroke="none"/>
  <path d="M140.271,-92.493 L140.321,-92.443 Q140.391,-92.372 140.321,-92.302 Q140.250,-92.231 140.179,-92.302 L140.129,-92.352 Q140.059,-92.423 140.129,-92.493 Q140.200,-92.564 140.271,-92.493 Z" fill="#FF4500" fill-opacity="0.8" stroke="none"/>
  <path d="M143.571,-95.956 L144.021,-95.506 Q144.091,-95.435 144.021,-95.364 Q143.950,-95.294 143.879,-95.364 L143.429,-95.814 Q143.359,-95.885 143.429,-95.956 Q143.500,-96.026 143.571,-95.956 Z" fill="#FF4500" fill-opacity="0.8" stroke="none"/>
  <path d="M138.725,-94.107 L138.725,-94.480 Q138.725,-94.630 138.875,-94.630 Q139.025,-94.630 139.025,-94.480 L139.025,-94.107 Q139.025,-93.957 138.875,-93.957 Q138.725,-93.957 138.725,-94.107 Z" fill="#FF4500" fill-opacity="0.8" stroke="none"/>
  <path d="M143.600,-96.368 L143.600,-95.885 Q143.600,-95.785 143.500,-95.785 Q143.400,-95.785 143.400,-95.885 L143.400,-96.368 Q143.400,-96.467 143.500,-96.467 Q143.600,-96.467 143.600,-96.368 Z" fill="#FF4500" fill-opacity="0.8" stroke="none"/>
  <path d="M138.769,-94.586 L139.244,-95.061 Q139.350,-95.167 139.456,-95.061 Q139.562,-94.955 139.456,-94.849 L138.981,-94.374 Q138.875,-94.268 138.769,-94.374 Q138.663,-94.480 138.769,-94.586 Z" fill="#FF4500" fill-opacity="0.8" stroke="none"/>
  <path d="M138.775,-92.607 L138.775,-94.058 Q138.775,-94.208 138.925,-94.208 Q139.075,-94.208 139.075,-94.058 L139.075,-92.607 Q139.075,-92.457 138.925,-92.457 Q138.775,-92.457 138.775,-92.607 Z" fill="#FF4500" fill-opacity="0.8" stroke="none"/>
  <path d="M142.844,-95.361 L143.144,-95.661 Q143.250,-95.767 143.356,-95.661 Q143.462,-95.555 143.356,-95.449 L143.056,-95.149 Q142.950,-95.043 142.844,-95.149 Q142.738,-95.255 142.844,-95.361 Z" fill="#FF4500" fill-opacity="0.8" stroke="none"/>
  <path d="M138.819,-93.951 L138.769,-94.001 Q138.663,-94.107 138.769,-94.214 Q138.875,-94.320 138.981,-94.214 L139.031,-94.164 Q139.137,-94.058 139.031,-93.951 Q138.925,-93.845 138.819,-93.951 Z" fill="#FF4500" fill-opacity="0.8" stroke="none"/>
  <path d="M144.950,-94.370 L144.940,-94.370 Q144.865,-94.370 144.865,-94.445 Q144.865,-94.520 144.940,-94.520 L144.950,-94.520 Q145.025,-94.520 145.025,-94.445 Q145.025,-94.370 144.950,-94.370 Z" fill="#FF4500" fill-opacity="0.8" stroke="none"/>
  <path d="M144.887,-94.392 L143.897,-95.382 Q143.844,-95.435 143.897,-95.488 Q143.950,-95.541 144.003,-95.488 L144.993,-94.498 Q145.046,-94.445 144.993,-94.392 Q144.940,-94.339 144.887,-94.392 Z" fill="#FF4500" fill-opacity="0.8" stroke="none"/>
  <path d="M143.250,-95.705 L143.830,-95.705 Q143.980,-95.705 143.980,-95.555 Q143.980,-95.405 143.830,-95.405 L143.250,-95.405 Q143.100,-95.405 143.100,-95.555 Q143.100,-95.705 143.250,-95.705 Z" fill="#FF4500" fill-opacity="0.8" stroke="none"/>
  <path d="M135.147,-106.948 L135.207,-107.008 Q135.260,-107.061 135.313,-107.008 Q135.366,-106.955 135.313,-106.902 L135.253,-106.842 Q135.200,-106.789 135.147,-106.842 Q135.094,-106.895 135.147,-106.948 Z" fill="#FF4500" fill-opacity="0.8" stroke="none"/>
  <path d="M143.936,-95.661 L144.056,-95.541 Q144.162,-95.435 144.056,-95.329 Q143.950,-95.223 143.844,-95.329 L143.724,-95.449 Q143.618,-95.555 143.724,-95.661 Q143.830,-95.767 143.936,-95.661 Z" fill="#FF4500" fill-opacity="0.8" stroke="none"/>
  <path d="M135.125,-106.100 L135.125,-106.895 Q135.125,-106.970 135.200,-106.970 Q135.275,-106.970 135.275,-106.895 L135.275,-106.100 Q135.275,-106.025 135.200,-106.025 Q135.125,-106.025 135.125,-106.100 Z" fill="#FF4500" fill-opacity="0.8" stroke="none"/>
  <path d="M137.566,-110.691 L137.226,-110.691 Q137.151,-110.691 137.151,-110.766 Q137.151,-110.841 137.226,-110.841 L137.566,-110.841 Q137.641,-110.841 137.641,-110.766 Q137.641,-110.691 137.566,-110.691 Z" fill="#FF4500" fill-opacity="0.8" stroke="none"/>
  <path d="M134.207,-107.008 L135.207,-108.008 Q135.260,-108.061 135.313,-108.008 Q135.366,-107.955 135.313,-107.902 L134.313,-106.902 Q134.260,-106.849 134.207,-106.902 Q134.154,-106.955 134.207,-107.008 Z" fill="#FF4500" fill-opacity="0.8" stroke="none"/>
  <path d="M133.819,-109.260 L133.819,-107.451 Q133.819,-107.376 133.744,-107.376 Q133.669,-107.376 133.669,-107.451 L133.669,-109.260 Q133.669,-109.335 133.744,-109.335 Q133.819,-109.335 133.819,-109.260 Z" fill="#FF4500" fill-opacity="0.8" stroke="none"/>
  <path d="M137.875,-111.438 L137.875,-111.000 Q137.875,-110.925 137.800,-110.925 Q137.725,-110.925 137.725,-111.000 L137.725,-111.438 Q137.725,-111.512 137.800,-111.512 Q137.875,-111.512 137.875,-111.438 Z" fill="#FF4500" fill-opacity="0.8" stroke="none"/>
  <path d="M133.797,-107.504 L134.293,-107.008 Q134.346,-106.955 134.293,-106.902 Q134.240,-106.849 134.187,-106.902 L133.691,-107.398 Q133.638,-107.451 133.691,-107.504 Q133.744,-107.557 133.797,-107.504 Z" fill="#FF4500" fill-opacity="0.8" stroke="none"/>
  <path d="M135.463,-110.873 L133.797,-109.207 Q133.744,-109.154 133.691,-109.207 Q133.638,-109.260 133.691,-109.314 L135.356,-110.979 Q135.410,-111.032 135.463,-110.979 Q135.516,-110.926 135.463,-110.873 Z" fill="#FF4500" fill-opacity="0.8" stroke="none"/>
  <path d="M137.173,-110.713 L137.013,-110.873 Q136.960,-110.926 137.013,-110.979 Q137.066,-111.032 137.119,-110.979 L137.279,-110.819 Q137.332,-110.766 137.279,-110.713 Q137.226,-110.660 137.173,-110.713 Z" fill="#FF4500" fill-opacity="0.8" stroke="none"/>
  <path d="M134.240,-107.030 L134.260,-107.030 Q134.335,-107.030 134.335,-106.955 Q134.335,-106.880 134.260,-106.880 L134.240,-106.880 Q134.165,-106.880 134.165,-106.955 Q134.165,-107.030 134.240,-107.030 Z" fill="#FF4500" fill-opacity="0.8" stroke="none"/>
  <path d="M137.066,-110.851 L135.410,-110.851 Q135.335,-110.851 135.335,-110.926 Q135.335,-111.001 135.410,-111.001 L137.066,-111.001 Q137.141,-111.001 137.141,-110.926 Q137.141,-110.851 137.066,-110.851 Z" fill="#FF4500" fill-opacity="0.8" stroke="none"/>
  <path d="M137.853,-110.947 L137.619,-110.713 Q137.566,-110.660 137.513,-110.713 Q137.460,-110.766 137.513,-110.819 L137.747,-111.053 Q137.800,-111.106 137.853,-111.053 Q137.906,-111.000 137.853,-110.947 Z" fill="#FF4500" fill-opacity="0.8" stroke="none"/>
  <path d="M142.275,-104.562 L142.275,-103.965 Q142.275,-103.890 142.200,-103.890 Q142.125,-103.890 142.125,-103.965 L142.125,-104.562 Q142.125,-104.637 142.200,-104.637 Q142.275,-104.637 142.275,-104.562 Z" fill="#FF4500" fill-opacity="0.8" stroke="none"/>
  <path d="M140.309,-102.808 L139.883,-102.382 Q139.830,-102.329 139.777,-102.382 Q139.724,-102.435 139.777,-102.488 L140.203,-102.914 Q140.256,-102.967 140.309,-102.914 Q140.362,-102.861 140.309,-102.808 Z" fill="#FF4500" fill-opacity="0.8" stroke="none"/>
  <path d="M144.697,-102.402 L144.197,-102.902 Q144.144,-102.955 144.197,-103.008 Q144.250,-103.061 144.303,-103.008 L144.803,-102.508 Q144.856,-102.455 144.803,-102.402 Q144.750,-102.349 144.697,-102.402 Z" fill="#FF4500" fill-opacity="0.8" stroke="none"/>
  <path d="M144.005,-114.117 L143.711,-114.412 Q143.658,-114.465 143.711,-114.518 Q143.764,-114.571 143.817,-114.518 L144.111,-114.223 Q144.164,-114.170 144.111,-114.117 Q144.058,-114.064 144.005,-114.117 Z" fill="#FF4500" fill-opacity="0.8" stroke="none"/>
  <path d="M143.697,-102.902 L142.547,-104.052 Q142.494,-104.105 142.547,-104.158 Q142.600,-104.211 142.653,-104.158 L143.803,-103.008 Q143.856,-102.955 143.803,-102.902 Q143.750,-102.849 143.697,-102.902 Z" fill="#FF4500" fill-opacity="0.8" stroke="none"/>
  <path d="M138.750,-102.510 L139.750,-102.510 Q139.825,-102.510 139.825,-102.435 Q139.825,-102.360 139.750,-102.360 L138.750,-102.360 Q138.675,-102.360 138.675,-102.435 Q138.675,-102.510 138.750,-102.510 Z" fill="#FF4500" fill-opacity="0.8" stroke="none"/>
  <path d="M135.175,-99.280 L135.175,-99.755 Q135.175,-99.830 135.250,-99.830 Q135.325,-99.830 135.325,-99.755 L135.325,-99.280 Q135.325,-99.205 135.250,-99.205 Q135.175,-99.205 135.175,-99.280 Z" fill="#FF4500" fill-opacity="0.8" stroke="none"/>
  <path d="M142.253,-104.018 L143.803,-102.468 Q143.856,-102.415 143.803,-102.362 Q143.750,-102.309 143.697,-102.362 L142.147,-103.912 Q142.094,-103.965 142.147,-104.018 Q142.200,-104.071 142.253,-104.018 Z" fill="#FF4500" fill-opacity="0.8" stroke="none"/>
  <path d="M143.413,-97.955 L142.470,-97.955 Q142.370,-97.955 142.370,-98.055 Q142.370,-98.155 142.470,-98.155 L143.413,-98.155 Q143.513,-98.155 143.513,-98.055 Q143.513,-97.955 143.413,-97.955 Z" fill="#FF4500" fill-opacity="0.8" stroke="none"/>
  <path d="M143.438,-105.475 L144.035,-105.475 Q144.110,-105.475 144.110,-105.400 Q144.110,-105.325 144.035,-105.325 L143.438,-105.325 Q143.363,-105.325 143.363,-105.400 Q143.363,-105.475 143.438,-105.475 Z" fill="#FF4500" fill-opacity="0.8" stroke="none"/>
  <path d="M140.125,-111.438 L140.125,-112.800 Q140.125,-112.875 140.200,-112.875 Q140.275,-112.875 140.275,-112.800 L140.275,-111.438 Q140.275,-111.363 140.200,-111.363 Q140.125,-111.363 140.125,-111.438 Z" fill="#FF4500" fill-opacity="0.8" stroke="none"/>
  <path d="M145.416,-109.509 L145.184,-109.509 Q145.109,-109.509 145.109,-109.584 Q145.109,-109.659 145.184,-109.659 L145.416,-109.659 Q145.491,-109.659 145.491,-109.584 Q145.491,-109.509 145.416,-109.509 Z" fill="#FF4500" fill-opacity="0.8" stroke="none"/>
  <path d="M143.438,-109.075 L144.725,-109.075 Q144.800,-109.075 144.800,-109.000 Q144.800,-108.925 144.725,-108.925 L143.438,-108.925 Q143.363,-108.925 143.363,-109.000 Q143.363,-109.075 143.438,-109.075 Z" fill="#FF4500" fill-opacity="0.8" stroke="none"/>
  <path d="M144.088,-105.453 L144.803,-104.738 Q144.856,-104.685 144.803,-104.632 Q144.750,-104.579 144.697,-104.632 L143.982,-105.347 Q143.929,-105.400 143.982,-105.453 Q144.035,-105.506 144.088,-105.453 Z" fill="#FF4500" fill-opacity="0.8" stroke="none"/>
  <path d="M142.525,-104.105 L142.525,-104.562 Q142.525,-104.637 142.600,-104.637 Q142.675,-104.637 142.675,-104.562 L142.675,-104.105 Q142.675,-104.030 142.600,-104.030 Q142.525,-104.030 142.525,-104.105 Z" fill="#FF4500" fill-opacity="0.8" stroke="none"/>
  <path d="M139.083,-115.828 L139.253,-115.658 Q139.306,-115.605 139.253,-115.552 Q139.200,-115.499 139.147,-115.552 L138.977,-115.722 Q138.924,-115.775 138.977,-115.828 Q139.030,-115.881 139.083,-115.828 Z" fill="#FF4500" fill-opacity="0.8" stroke="none"/>
  <path d="M134.325,-101.195 L134.325,-101.155 Q134.325,-101.080 134.250,-101.080 Q134.175,-101.080 134.175,-101.155 L134.175,-101.195 Q134.175,-101.270 134.250,-101.270 Q134.325,-101.270 134.325,-101.195 Z" fill="#FF4500" fill-opacity="0.8" stroke="none"/>
  <path d="M138.847,-99.258 L139.297,-99.708 Q139.350,-99.761 139.403,-99.708 Q139.456,-99.655 139.403,-99.602 L138.953,-99.152 Q138.900,-99.099 138.847,-99.152 Q138.794,-99.205 138.847,-99.258 Z" fill="#FF4500" fill-opacity="0.8" stroke="none"/>
  <path d="M138.675,-102.435 L138.675,-102.455 Q138.675,-102.530 138.750,-102.530 Q138.825,-102.530 138.825,-102.455 L138.825,-102.435 Q138.825,-102.360 138.750,-102.360 Q138.675,-102.360 138.675,-102.435 Z" fill="#FF4500" fill-opacity="0.8" stroke="none"/>
  <path d="M135.177,-109.588 L135.197,-109.608 Q135.250,-109.661 135.303,-109.608 Q135.356,-109.555 135.303,-109.502 L135.283,-109.482 Q135.230,-109.429 135.177,-109.482 Q135.124,-109.535 135.177,-109.588 Z" fill="#FF4500" fill-opacity="0.8" stroke="none"/>
  <path d="M134.820,-100.110 L134.250,-100.110 Q134.175,-100.110 134.175,-100.185 Q134.175,-100.260 134.250,-100.260 L134.820,-100.260 Q134.895,-100.260 134.895,-100.185 Q134.895,-100.110 134.820,-100.110 Z" fill="#FF4500" fill-opacity="0.8" stroke="none"/>
  <path d="M138.760,-99.280 L138.900,-99.280 Q138.975,-99.280 138.975,-99.205 Q138.975,-99.130 138.900,-99.130 L138.760,-99.130 Q138.685,-99.130 138.685,-99.205 Q138.685,-99.280 138.760,-99.280 Z" fill="#FF4500" fill-opacity="0.8" stroke="none"/>
  <path d="M139.975,-113.200 L139.975,-113.000 Q139.975,-112.925 139.900,-112.925 Q139.825,-112.925 139.825,-113.000 L139.825,-113.200 Q139.825,-113.275 139.900,-113.275 Q139.975,-113.275 139.975,-113.200 Z" fill="#FF4500" fill-opacity="0.8" stroke="none"/>
  <path d="M135.155,-108.955 L135.155,-109.535 Q135.155,-109.610 135.230,-109.610 Q135.305,-109.610 135.305,-109.535 L135.305,-108.955 Q135.305,-108.880 135.230,-108.880 Q135.155,-108.880 135.155,-108.955 Z" fill="#FF4500" fill-opacity="0.8" stroke="none"/>
  <path d="M136.562,-108.925 L135.275,-108.925 Q135.200,-108.925 135.200,-109.000 Q135.200,-109.075 135.275,-109.075 L136.562,-109.075 Q136.637,-109.075 136.637,-109.000 Q136.637,-108.925 136.562,-108.925 Z" fill="#FF4500" fill-opacity="0.8" stroke="none"/>
  <path d="M143.125,-99.345 L143.125,-98.955 Q143.125,-98.880 143.050,-98.880 Q142.975,-98.880 142.975,-98.955 L142.975,-99.345 Q142.975,-99.420 143.050,-99.420 Q143.125,-99.420 143.125,-99.345 Z" fill="#FF4500" fill-opacity="0.8" stroke="none"/>
  <path d="M144.953,-109.032 L144.823,-108.902 Q144.770,-108.849 144.717,-108.902 Q144.664,-108.955 144.717,-109.008 L144.847,-109.138 Q144.900,-109.191 144.953,-109.138 Q145.006,-109.085 144.953,-109.032 Z" fill="#FF4500" fill-opacity="0.8" stroke="none"/>
  <path d="M139.830,-102.360 L139.750,-102.360 Q139.675,-102.360 139.675,-102.435 Q139.675,-102.510 139.750,-102.510 L139.830,-102.510 Q139.905,-102.510 139.905,-102.435 Q139.905,-102.360 139.830,-102.360 Z" fill="#FF4500" fill-opacity="0.8" stroke="none"/>
  <path d="M143.447,-98.258 L143.887,-98.698 Q143.940,-98.751 143.993,-98.698 Q144.046,-98.645 143.993,-98.592 L143.553,-98.152 Q143.500,-98.099 143.447,-98.152 Q143.394,-98.205 143.447,-98.258 Z" fill="#FF4500" fill-opacity="0.8" stroke="none"/>
  <path d="M143.553,-98.089 L143.466,-98.002 Q143.413,-97.949 143.359,-98.002 Q143.306,-98.055 143.359,-98.108 L143.447,-98.196 Q143.500,-98.249 143.553,-98.196 Q143.606,-98.143 143.553,-98.089 Z" fill="#FF4500" fill-opacity="0.8" stroke="none"/>
  <path d="M144.778,-109.053 L144.823,-109.008 Q144.876,-108.955 144.823,-108.902 Q144.770,-108.849 144.717,-108.902 L144.672,-108.947 Q144.619,-109.000 144.672,-109.053 Q144.725,-109.106 144.778,-109.053 Z" fill="#FF4500" fill-opacity="0.8" stroke="none"/>
  <path d="M142.523,-98.002 L142.403,-97.882 Q142.350,-97.829 142.297,-97.882 Q142.244,-97.935 142.297,-97.988 L142.417,-98.108 Q142.470,-98.161 142.523,-98.108 Q142.576,-98.055 142.523,-98.002 Z" fill="#FF4500" fill-opacity="0.8" stroke="none"/>
  <path d="M134.303,-101.208 L134.803,-100.708 Q134.856,-100.655 134.803,-100.602 Q134.750,-100.549 134.697,-100.602 L134.197,-101.102 Q134.144,-101.155 134.197,-101.208 Q134.250,-101.261 134.303,-101.208 Z" fill="#FF4500" fill-opacity="0.8" stroke="none"/>
  <path d="M139.697,-103.008 L140.547,-103.858 Q140.600,-103.911 140.653,-103.858 Q140.706,-103.805 140.653,-103.752 L139.803,-102.902 Q139.750,-102.849 139.697,-102.902 Q139.644,-102.955 139.697,-103.008 Z" fill="#FF4500" fill-opacity="0.8" stroke="none"/>
  <path d="M135.197,-99.702 L134.767,-100.132 Q134.714,-100.185 134.767,-100.238 Q134.820,-100.291 134.873,-100.238 L135.303,-99.808 Q135.356,-99.755 135.303,-99.702 Q135.250,-99.649 135.197,-99.702 Z" fill="#FF4500" fill-opacity="0.8" stroke="none"/>
  <path d="M135.250,-104.760 L135.920,-104.760 Q135.995,-104.760 135.995,-104.685 Q135.995,-104.610 135.920,-104.610 L135.250,-104.610 Q135.175,-104.610 135.175,-104.685 Q135.175,-104.760 135.250,-104.760 Z" fill="#FF4500" fill-opacity="0.8" stroke="none"/>
  <path d="M144.250,-102.880 L143.750,-102.880 Q143.675,-102.880 143.675,-102.955 Q143.675,-103.030 143.750,-103.030 L144.250,-103.030 Q144.325,-103.030 144.325,-102.955 Q144.325,-102.880 144.250,-102.880 Z" fill="#FF4500" fill-opacity="0.8" stroke="none"/>
  <path d="M144.675,-102.415 L144.675,-102.455 Q144.675,-102.530 144.750,-102.530 Q144.825,-102.530 144.825,-102.455 L144.825,-102.415 Q144.825,-102.340 144.750,-102.340 Q144.675,-102.340 144.675,-102.415 Z" fill="#FF4500" fill-opacity="0.8" stroke="none"/>
  <path d="M140.125,-103.905 L140.125,-104.562 Q140.125,-104.637 140.200,-104.637 Q140.275,-104.637 140.275,-104.562 L140.275,-103.905 Q140.275,-103.830 140.200,-103.830 Q140.125,-103.830 140.125,-103.905 Z" fill="#FF4500" fill-opacity="0.8" stroke="none"/>
  <path d="M144.133,-104.632 L144.103,-104.602 Q144.050,-104.549 143.997,-104.602 Q143.944,-104.655 143.997,-104.708 L144.027,-104.738 Q144.080,-104.791 144.133,-104.738 Q144.186,-104.685 144.133,-104.632 Z" fill="#FF4500" fill-opacity="0.8" stroke="none"/>
  <path d="M144.975,-109.300 L144.975,-109.085 Q144.975,-109.010 144.900,-109.010 Q144.825,-109.010 144.825,-109.085 L144.825,-109.300 Q144.825,-109.375 144.900,-109.375 Q144.975,-109.375 144.975,-109.300 Z" fill="#FF4500" fill-opacity="0.8" stroke="none"/>
  <path d="M143.750,-102.490 L144.750,-102.490 Q144.825,-102.490 144.825,-102.415 Q144.825,-102.340 144.750,-102.340 L143.750,-102.340 Q143.675,-102.340 143.675,-102.415 Q143.675,-102.490 143.750,-102.490 Z" fill="#FF4500" fill-opacity="0.8" stroke="none"/>
  <path d="M140.331,-102.944 L140.331,-102.861 Q140.331,-102.786 140.256,-102.786 Q140.181,-102.786 140.181,-102.861 L140.181,-102.944 Q140.181,-103.019 140.256,-103.019 Q140.331,-103.019 140.331,-102.944 Z" fill="#FF4500" fill-opacity="0.8" stroke="none"/>
  <path d="M142.275,-97.935 L142.275,-98.755 Q142.275,-98.830 142.350,-98.830 Q142.425,-98.830 142.425,-98.755 L142.425,-97.935 Q142.425,-97.860 142.350,-97.860 Q142.275,-97.860 142.275,-97.935 Z" fill="#FF4500" fill-opacity="0.8" stroke="none"/>
  <path d="M140.147,-112.853 L140.447,-113.153 Q140.500,-113.206 140.553,-113.153 Q140.606,-113.100 140.553,-113.047 L140.253,-112.747 Q140.200,-112.694 140.147,-112.747 Q140.094,-112.800 140.147,-112.853 Z" fill="#FF4500" fill-opacity="0.8" stroke="none"/>
  <path d="M138.760,-100.280 L138.800,-100.280 Q138.875,-100.280 138.875,-100.205 Q138.875,-100.130 138.800,-100.130 L138.760,-100.130 Q138.685,-100.130 138.685,-100.205 Q138.685,-100.280 138.760,-100.280 Z" fill="#FF4500" fill-opacity="0.8" stroke="none"/>
  <path d="M139.105,-116.955 L139.105,-115.775 Q139.105,-115.700 139.030,-115.700 Q138.955,-115.700 138.955,-115.775 L138.955,-116.955 Q138.955,-117.030 139.030,-117.030 Q139.105,-117.030 139.105,-116.955 Z" fill="#FF4500" fill-opacity="0.8" stroke="none"/>
  <path d="M140.500,-113.400 L140.175,-113.400 Q140.100,-113.400 140.100,-113.475 Q140.100,-113.550 140.175,-113.550 L140.500,-113.550 Q140.575,-113.550 140.575,-113.475 Q140.575,-113.400 140.500,-113.400 Z" fill="#FF4500" fill-opacity="0.8" stroke="none"/>
  <path d="M134.227,-100.238 L134.697,-100.708 Q134.750,-100.761 134.803,-100.708 Q134.856,-100.655 134.803,-100.602 L134.333,-100.132 Q134.280,-100.079 134.227,-100.132 Q134.174,-100.185 134.227,-100.238 Z" fill="#FF4500" fill-opacity="0.8" stroke="none"/>
  <path d="M145.237,-109.531 L144.953,-109.247 Q144.900,-109.194 144.847,-109.247 Q144.794,-109.300 144.847,-109.353 L145.131,-109.637 Q145.184,-109.690 145.237,-109.637 Q145.290,-109.584 145.237,-109.531 Z" fill="#FF4500" fill-opacity="0.8" stroke="none"/>
  <path d="M144.750,-104.610 L144.080,-104.610 Q144.005,-104.610 144.005,-104.685 Q144.005,-104.760 144.080,-104.760 L144.750,-104.760 Q144.825,-104.760 144.825,-104.685 Q144.825,-104.610 144.750,-104.610 Z" fill="#FF4500" fill-opacity="0.8" stroke="none"/>
  <path d="M137.744,-117.438 L137.453,-117.147 Q137.400,-117.094 137.347,-117.147 Q137.294,-117.200 137.347,-117.253 L137.638,-117.544 Q137.691,-117.597 137.744,-117.544 Q137.797,-117.491 137.744,-117.438 Z" fill="#FF4500" fill-opacity="0.8" stroke="none"/>
  <path d="M134.250,-100.260 L134.280,-100.260 Q134.355,-100.260 134.355,-100.185 Q134.355,-100.110 134.280,-100.110 L134.250,-100.110 Q134.175,-100.110 134.175,-100.185 Q134.175,-100.260 134.250,-100.260 Z" fill="#FF4500" fill-opacity="0.8" stroke="none"/>
  <path d="M143.425,-98.143 L143.425,-98.205 Q143.425,-98.280 143.500,-98.280 Q143.575,-98.280 143.575,-98.205 L143.575,-98.143 Q143.575,-98.068 143.500,-98.068 Q143.425,-98.068 143.425,-98.143 Z" fill="#FF4500" fill-opacity="0.8" stroke="none"/>
  <path d="M138.853,-100.258 L139.403,-99.708 Q139.456,-99.655 139.403,-99.602 Q139.350,-99.549 139.297,-99.602 L138.747,-100.152 Q138.694,-100.205 138.747,-100.258 Q138.800,-100.311 138.853,-100.258 Z" fill="#FF4500" fill-opacity="0.8" stroke="none"/>
  <path d="M140.228,-113.422 L139.953,-113.147 Q139.900,-113.094 139.847,-113.147 Q139.794,-113.200 139.847,-113.253 L140.122,-113.528 Q140.175,-113.581 140.228,-113.528 Q140.281,-113.475 140.228,-113.422 Z" fill="#FF4500" fill-opacity="0.8" stroke="none"/>
  <path d="M140.525,-103.805 L140.525,-104.562 Q140.525,-104.637 140.600,-104.637 Q140.675,-104.637 140.675,-104.562 L140.675,-103.805 Q140.675,-103.730 140.600,-103.730 Q140.525,-103.730 140.525,-103.805 Z" fill="#FF4500" fill-opacity="0.8" stroke="none"/>
  <path d="M143.103,-98.902 L142.403,-98.202 Q142.350,-98.149 142.297,-98.202 Q142.244,-98.255 142.297,-98.308 L142.997,-99.008 Q143.050,-99.061 143.103,-99.008 Q143.156,-98.955 143.103,-98.902 Z" fill="#FF4500" fill-opacity="0.8" stroke="none"/>
  <path d="M140.425,-113.100 L140.425,-113.475 Q140.425,-113.550 140.500,-113.550 Q140.575,-113.550 140.575,-113.475 L140.575,-113.100 Q140.575,-113.025 140.500,-113.025 Q140.425,-113.025 140.425,-113.100 Z" fill="#FF4500" fill-opacity="0.8" stroke="none"/>
  <path d="M136.562,-105.325 L135.965,-105.325 Q135.890,-105.325 135.890,-105.400 Q135.890,-105.475 135.965,-105.475 L136.562,-105.475 Q136.637,-105.475 136.637,-105.400 Q136.637,-105.325 136.562,-105.325 Z" fill="#FF4500" fill-opacity="0.8" stroke="none"/>
  <path d="M138.697,-102.508 L140.147,-103.958 Q140.200,-104.011 140.253,-103.958 Q140.306,-103.905 140.253,-103.852 L138.803,-102.402 Q138.750,-102.349 138.697,-102.402 Q138.644,-102.455 138.697,-102.508 Z" fill="#FF4500" fill-opacity="0.8" stroke="none"/>
  <path d="M139.675,-102.435 L139.675,-102.955 Q139.675,-103.030 139.750,-103.030 Q139.825,-103.030 139.825,-102.955 L139.825,-102.435 Q139.825,-102.360 139.750,-102.360 Q139.675,-102.360 139.675,-102.435 Z" fill="#FF4500" fill-opacity="0.8" stroke="none"/>
  <path d="M135.973,-104.738 L136.003,-104.708 Q136.056,-104.655 136.003,-104.602 Q135.950,-104.549 135.897,-104.602 L135.867,-104.632 Q135.814,-104.685 135.867,-104.738 Q135.920,-104.791 135.973,-104.738 Z" fill="#FF4500" fill-opacity="0.8" stroke="none"/>
  <path d="M142.425,-98.255 L142.425,-97.935 Q142.425,-97.860 142.350,-97.860 Q142.275,-97.860 142.275,-97.935 L142.275,-98.255 Q142.275,-98.330 142.350,-98.330 Q142.425,-98.330 142.425,-98.255 Z" fill="#FF4500" fill-opacity="0.8" stroke="none"/>
  <path d="M143.764,-114.390 L143.500,-114.390 Q143.425,-114.390 143.425,-114.465 Q143.425,-114.540 143.500,-114.540 L143.764,-114.540 Q143.839,-114.540 143.839,-114.465 Q143.839,-114.390 143.764,-114.390 Z" fill="#FF4500" fill-opacity="0.8" stroke="none"/>
  <path d="M143.865,-98.645 L143.865,-99.080 Q143.865,-99.155 143.940,-99.155 Q144.015,-99.155 144.015,-99.080 L144.015,-98.645 Q144.015,-98.570 143.940,-98.570 Q143.865,-98.570 143.865,-98.645 Z" fill="#FF4500" fill-opacity="0.8" stroke="none"/>
  <path d="M137.900,-115.680 L139.200,-115.680 Q139.275,-115.680 139.275,-115.605 Q139.275,-115.530 139.200,-115.530 L137.900,-115.530 Q137.825,-115.530 137.825,-115.605 Q137.825,-115.680 137.900,-115.680 Z" fill="#FF4500" fill-opacity="0.8" stroke="none"/>
  <path d="M144.675,-102.415 L144.675,-103.055 Q144.675,-103.130 144.750,-103.130 Q144.825,-103.130 144.825,-103.055 L144.825,-102.415 Q144.825,-102.340 144.750,-102.340 Q144.675,-102.340 144.675,-102.415 Z" fill="#FF4500" fill-opacity="0.8" stroke="none"/>
  <path d="M135.328,-108.947 L135.283,-108.902 Q135.230,-108.849 135.177,-108.902 Q135.124,-108.955 135.177,-109.008 L135.222,-109.053 Q135.275,-109.106 135.328,-109.053 Q135.381,-109.000 135.328,-108.947 Z" fill="#FF4500" fill-opacity="0.8" stroke="none"/>
  <path d="M138.977,-116.902 L138.441,-117.438 Q138.388,-117.491 138.441,-117.544 Q138.494,-117.597 138.547,-117.544 L139.083,-117.008 Q139.136,-116.955 139.083,-116.902 Q139.030,-116.849 138.977,-116.902 Z" fill="#FF4500" fill-opacity="0.8" stroke="none"/>
  <path d="M138.494,-117.416 L137.691,-117.416 Q137.616,-117.416 137.616,-117.491 Q137.616,-117.566 137.691,-117.566 L138.494,-117.566 Q138.569,-117.566 138.569,-117.491 Q138.569,-117.416 138.494,-117.416 Z" fill="#FF4500" fill-opacity="0.8" stroke="none"/>
  <path d="M136.018,-105.347 L135.303,-104.632 Q135.250,-104.579 135.197,-104.632 Q135.144,-104.685 135.197,-104.738 L135.912,-105.453 Q135.965,-105.506 136.018,-105.453 Q136.071,-105.400 136.018,-105.347 Z" fill="#FF4500" fill-opacity="0.8" stroke="none"/>
</svg>
